%TF.GenerationSoftware,KiCad,Pcbnew,9.0.1*%
%TF.CreationDate,2026-09-09T17:21:39+07:00*%
%TF.ProjectId,Master_Hand_Kicad,4d617374-6572-45f4-9861-6e645f4b6963,+ (Unreleased)*%
%TF.SameCoordinates,Original*%
%TF.FileFunction,Plated,1,6,PTH,Mixed*%
%TF.FilePolarity,Positive*%
%FSLAX46Y46*%
G04 Gerber Fmt 4.6, Leading zero omitted, Abs format (unit mm)*
G04 Created by KiCad (PCBNEW 9.0.1) date 2026-09-09 17:21:39*
%MOMM*%
%LPD*%
G01*
G04 APERTURE LIST*
%TA.AperFunction,ViaDrill*%
%ADD10C,0.250000*%
%TD*%
%TA.AperFunction,ViaDrill*%
%ADD11C,0.300000*%
%TD*%
%TA.AperFunction,ViaDrill*%
%ADD12C,0.400000*%
%TD*%
G04 aperture for slot hole*
%TA.AperFunction,ComponentDrill*%
%ADD13C,0.599998*%
%TD*%
%TA.AperFunction,ComponentDrill*%
%ADD14C,0.999998*%
%TD*%
%TA.AperFunction,ComponentDrill*%
%ADD15C,1.700022*%
%TD*%
G04 APERTURE END LIST*
D10*
X124900000Y-77400000D03*
X124900000Y-78310000D03*
X125160000Y-69850000D03*
X125160000Y-70760000D03*
X125410000Y-65210000D03*
X125410000Y-66030000D03*
X125720000Y-77400000D03*
X125720000Y-78310000D03*
X125980000Y-69850000D03*
X125980000Y-70760000D03*
X126320000Y-65210000D03*
X126320000Y-66030000D03*
X126582500Y-91160000D03*
X126622500Y-92660000D03*
X127470000Y-84790000D03*
X127510000Y-86290000D03*
X127622500Y-91160000D03*
X127622500Y-92660000D03*
X128510000Y-84790000D03*
X128510000Y-86290000D03*
X129470000Y-106580000D03*
X129510000Y-108080000D03*
X129790000Y-75740000D03*
X129790000Y-76990000D03*
X129790000Y-78240000D03*
X129970000Y-63675000D03*
X130472500Y-91960000D03*
X130510000Y-106580000D03*
X130510000Y-108080000D03*
X131502711Y-73351253D03*
X131520000Y-112810000D03*
X131560000Y-114310000D03*
X131925500Y-68322981D03*
X131925500Y-69705500D03*
X132560000Y-112810000D03*
X132560000Y-114310000D03*
X132792500Y-93300000D03*
X132800000Y-74490000D03*
X132820000Y-80920000D03*
X132820000Y-81830000D03*
X133640000Y-80920000D03*
X133640000Y-81830000D03*
X133800000Y-77230000D03*
X133800000Y-78140000D03*
X133919996Y-70513494D03*
X133919996Y-72013494D03*
X133920000Y-69013493D03*
X134110002Y-65575000D03*
X134115000Y-64270001D03*
X134140000Y-66350000D03*
X134620000Y-77230000D03*
X134620000Y-78140000D03*
X134922500Y-95570000D03*
X135050000Y-67510000D03*
X136240000Y-84290000D03*
X136280000Y-85790000D03*
X136650000Y-111350000D03*
X136690000Y-112850000D03*
X136880000Y-92310000D03*
X137240000Y-87680000D03*
X137280000Y-84290000D03*
X137280000Y-85790000D03*
X137440000Y-117880000D03*
X137440000Y-118920000D03*
X137455000Y-75740000D03*
X137455000Y-76990000D03*
X137455000Y-78240000D03*
X137690000Y-111350000D03*
X137690000Y-112850000D03*
X138160000Y-110370000D03*
X138940000Y-117880000D03*
X138940000Y-118880000D03*
X140214004Y-71824498D03*
X140214004Y-73094498D03*
X140410000Y-117850000D03*
X140410000Y-118890000D03*
X140440000Y-107190000D03*
X140740000Y-102490000D03*
X141910000Y-117850000D03*
X141910000Y-118850000D03*
X142960000Y-107240000D03*
X143050000Y-95260000D03*
X143450000Y-117850000D03*
X143450000Y-118890000D03*
X143532000Y-79120000D03*
X143840000Y-74289997D03*
X144040149Y-61659851D03*
X144950000Y-117850000D03*
X144950000Y-118850000D03*
X145200588Y-61600588D03*
X146958000Y-68822000D03*
X147050000Y-74360000D03*
X147544000Y-65012001D03*
X147544000Y-70554499D03*
X148490000Y-117998333D03*
X148635001Y-102474955D03*
X148635004Y-90474952D03*
X148635005Y-78474950D03*
X148750000Y-72940000D03*
X149362108Y-102454955D03*
X149362111Y-90454952D03*
X149362112Y-78454950D03*
X149510000Y-66900000D03*
X150370000Y-65189999D03*
X150380000Y-70580000D03*
X150600000Y-88225000D03*
X150600000Y-89225000D03*
X150700000Y-102000000D03*
X150720000Y-100400000D03*
X150790000Y-119940000D03*
X150790000Y-122270000D03*
X151080000Y-106000002D03*
X151080003Y-93999999D03*
X151080004Y-81999997D03*
X151085966Y-106800173D03*
X151085969Y-94800170D03*
X151085970Y-82800168D03*
X151371689Y-91710584D03*
X151378423Y-79710335D03*
X151400000Y-103709997D03*
X151400000Y-104390000D03*
X151400003Y-92389997D03*
X151400004Y-80389995D03*
X151610000Y-88210000D03*
X151620000Y-89230000D03*
X151765664Y-106779830D03*
X151765667Y-94779827D03*
X151765668Y-82779825D03*
X152200000Y-102000000D03*
X152220000Y-100360000D03*
X152290000Y-117998333D03*
X152290000Y-118690000D03*
X152290000Y-119390000D03*
X152300000Y-108094602D03*
X152300004Y-84094597D03*
X152310000Y-95410000D03*
X152390000Y-90030000D03*
X152970782Y-75240000D03*
X152980000Y-62371267D03*
X153200000Y-107100000D03*
X153340000Y-64230000D03*
X153340000Y-68230000D03*
X153350000Y-63230000D03*
X153350000Y-65230000D03*
X153350000Y-67230000D03*
X153350000Y-69230000D03*
X153799495Y-64731267D03*
X153799495Y-66731267D03*
X153799495Y-68731267D03*
X153814363Y-63726760D03*
X153814363Y-67726760D03*
X153814363Y-69726760D03*
X153912178Y-75188999D03*
X154069412Y-74189412D03*
X154970000Y-63040000D03*
X155341782Y-59771915D03*
X155590000Y-90040000D03*
X155640000Y-71530000D03*
X155880000Y-84490000D03*
X155900000Y-107220000D03*
X155960000Y-95220000D03*
X155970000Y-83220000D03*
X156135041Y-59668264D03*
X156275000Y-64625000D03*
X156340000Y-62750000D03*
X156340000Y-71220000D03*
X156836760Y-70755637D03*
X156841272Y-79161272D03*
X156843240Y-63224363D03*
X157340000Y-62760000D03*
X157340000Y-71230000D03*
X157590000Y-122240000D03*
X157680000Y-59820000D03*
X157838733Y-63209495D03*
X157841267Y-70770505D03*
X158340000Y-62750000D03*
X158340000Y-71220000D03*
X158843240Y-63224363D03*
X159021648Y-119437142D03*
X159040000Y-118048333D03*
X159040000Y-118740000D03*
X159190000Y-75200000D03*
X159340000Y-71230000D03*
X159841267Y-70770505D03*
X160315000Y-60006446D03*
X160340000Y-71220000D03*
X160450000Y-67000000D03*
X160600000Y-95716210D03*
X160610000Y-106940000D03*
X160615000Y-65726760D03*
X160779999Y-83338822D03*
X160830462Y-59555567D03*
X161340000Y-62750000D03*
X161365637Y-66226760D03*
X161400619Y-59185000D03*
X161453003Y-78444995D03*
X161503000Y-90430992D03*
X161553001Y-102434565D03*
X161830000Y-64230000D03*
X161830000Y-70730000D03*
X161840000Y-66730000D03*
X161840000Y-67730000D03*
X161850000Y-69226760D03*
X162180110Y-78424995D03*
X162230107Y-90410992D03*
X162280108Y-102414565D03*
X162590000Y-61120588D03*
X162630000Y-103170000D03*
X162675000Y-59625000D03*
X162970000Y-72330000D03*
X163340000Y-101420000D03*
X163340000Y-102330000D03*
X163416667Y-59625000D03*
X163898002Y-81970042D03*
X163903968Y-82770213D03*
X163947999Y-93956039D03*
X163953965Y-94756210D03*
X163990000Y-100480000D03*
X163998000Y-105959612D03*
X164003966Y-106759783D03*
X164158333Y-59625000D03*
X164160000Y-101420000D03*
X164160000Y-102330000D03*
X164194787Y-79658001D03*
X164218002Y-80360040D03*
X164257853Y-91666110D03*
X164267999Y-92346037D03*
X164318000Y-104349610D03*
X164320000Y-103650000D03*
X164583666Y-82749870D03*
X164633663Y-94735867D03*
X164683664Y-106739440D03*
X164900000Y-59625000D03*
X165110000Y-69210000D03*
X165118002Y-84064642D03*
X165120000Y-66410000D03*
X165167999Y-96050639D03*
X165210000Y-111440000D03*
X165218000Y-108054212D03*
X165500000Y-87600000D03*
X165500000Y-88200000D03*
X165500000Y-88800000D03*
X165500000Y-89400000D03*
X165500000Y-90000000D03*
X165725000Y-99146520D03*
X165725000Y-101710000D03*
X165940000Y-59660000D03*
X166720000Y-68140000D03*
X166724997Y-69679999D03*
X167620000Y-68129999D03*
X167620000Y-70650000D03*
X168440000Y-91930000D03*
X168440000Y-92530000D03*
X168440000Y-93130000D03*
X168440000Y-93730000D03*
X169200000Y-68140000D03*
X169220001Y-80640000D03*
X169220003Y-81440000D03*
X169230000Y-70640000D03*
X169340000Y-63180000D03*
X169990000Y-80640000D03*
X169990002Y-81440001D03*
X170190000Y-102890000D03*
X170700000Y-80640000D03*
X170700002Y-81440001D03*
X170800000Y-117730000D03*
X170800000Y-120450000D03*
X171030000Y-61000000D03*
X171060000Y-59640000D03*
X171130000Y-102390000D03*
X172010000Y-66900000D03*
X172120000Y-98910000D03*
X172120000Y-99820000D03*
X172350000Y-82779999D03*
X172350000Y-83579998D03*
X172648911Y-120360000D03*
X172790000Y-122090000D03*
X172800000Y-106590000D03*
X172820000Y-64340000D03*
X172940000Y-98910000D03*
X172940000Y-99820000D03*
X173090000Y-82779999D03*
X173090002Y-83580000D03*
X173310682Y-71030001D03*
X173460000Y-120890000D03*
X173859999Y-82780000D03*
X173860001Y-83580000D03*
X173874000Y-119770000D03*
X173890000Y-60120000D03*
X174050000Y-78710000D03*
X174320000Y-120890000D03*
X174590000Y-82780000D03*
X174590001Y-83579998D03*
X174990000Y-78700000D03*
X175686000Y-120520000D03*
X175690000Y-75160000D03*
X175840000Y-64230000D03*
X175840000Y-68230000D03*
X175850000Y-63230000D03*
X175850000Y-65230000D03*
X175850000Y-67230000D03*
X175850000Y-69230000D03*
X175870000Y-78690000D03*
X176290000Y-115190000D03*
X176299495Y-64731267D03*
X176299495Y-66731267D03*
X176299495Y-68731267D03*
X176314363Y-63726760D03*
X176314363Y-65726760D03*
X176314363Y-67726760D03*
X176314363Y-69726760D03*
X176540000Y-122120000D03*
X176569412Y-74189412D03*
X176590000Y-75170000D03*
X176590000Y-78700000D03*
X176590000Y-113290000D03*
X176590000Y-114030000D03*
X176590001Y-111790000D03*
X176590001Y-112520001D03*
X177040000Y-59690000D03*
X177070000Y-82220000D03*
X177090000Y-115190000D03*
X177389999Y-111789999D03*
X177389999Y-114030000D03*
X177390000Y-78700000D03*
X177390001Y-112519999D03*
X177390001Y-113289998D03*
X177450000Y-121390000D03*
X177890000Y-115190000D03*
X178070000Y-82220000D03*
X178140000Y-59740000D03*
X178140000Y-71530000D03*
X178210000Y-78710000D03*
X178690000Y-115190000D03*
X178840000Y-71220000D03*
X178910000Y-59370000D03*
X179336760Y-70755637D03*
X179840000Y-62760000D03*
X179840000Y-71230000D03*
X180040000Y-59760000D03*
X180338733Y-63209495D03*
X180341267Y-70770505D03*
X180610000Y-77660000D03*
X180610000Y-79210000D03*
X180840000Y-62750000D03*
X180840000Y-71220000D03*
X181343240Y-63224363D03*
X181620000Y-75190001D03*
X181840000Y-71230000D03*
X182341267Y-70770505D03*
X182470000Y-60060000D03*
X182840000Y-71220000D03*
X182990000Y-59490000D03*
X183840000Y-62750000D03*
X183865637Y-66226760D03*
X183890000Y-79630000D03*
X183900619Y-59185000D03*
X184000000Y-74530000D03*
X184000000Y-75570000D03*
X184290000Y-78350000D03*
X184330000Y-64230000D03*
X184330000Y-70730000D03*
X184340000Y-66730000D03*
X184340000Y-67730000D03*
X184350000Y-69226760D03*
X185390000Y-79590000D03*
X185470000Y-61410000D03*
X185470000Y-72320000D03*
X185500000Y-74530000D03*
X185500000Y-75530000D03*
X185790000Y-78350000D03*
X187610000Y-69210000D03*
X187620000Y-66410000D03*
X187820000Y-71940000D03*
X187860000Y-73440000D03*
X188420000Y-59870000D03*
X188460000Y-61370000D03*
X189124385Y-62855131D03*
X189220000Y-68140000D03*
X189224997Y-69679999D03*
X189260000Y-71950000D03*
X189260000Y-73450000D03*
X189460000Y-59870000D03*
X189460000Y-61370000D03*
X190120000Y-68129999D03*
X190120000Y-70650000D03*
X190430000Y-62040000D03*
X191280000Y-59850000D03*
X191320000Y-61350000D03*
X191700000Y-68140000D03*
X191730000Y-70640000D03*
X192190000Y-74550000D03*
X192230000Y-76050000D03*
X192320000Y-59850000D03*
X192320000Y-61350000D03*
X192950000Y-64410000D03*
X192950000Y-65735000D03*
X192950000Y-67035001D03*
X193750000Y-74550000D03*
X193750000Y-76050000D03*
X195050000Y-61460000D03*
X195090000Y-62960000D03*
X195880000Y-68880000D03*
X195920000Y-70380000D03*
X196090000Y-61460000D03*
X196090000Y-62960000D03*
X196920000Y-68880000D03*
X196920000Y-70380000D03*
X197160000Y-67920000D03*
D11*
X136852500Y-91390000D03*
X136862500Y-93310000D03*
X140440000Y-106250000D03*
X140450000Y-108150000D03*
X154621181Y-60061646D03*
D12*
X145240002Y-111269954D03*
X145240006Y-87269949D03*
X145240007Y-99269952D03*
X145250002Y-103159954D03*
X145250006Y-91159953D03*
X145250007Y-79159951D03*
X158058004Y-87239994D03*
X158068004Y-79129994D03*
X158108003Y-99225992D03*
X158118002Y-91115993D03*
X158158004Y-111229565D03*
X158168003Y-103119566D03*
X165050000Y-78365000D03*
X165160000Y-113870000D03*
X165160000Y-114790000D03*
X165200000Y-112860000D03*
X166110000Y-113860000D03*
X166110000Y-114780000D03*
X166150000Y-112850000D03*
X167120000Y-113860000D03*
X167120000Y-114780000D03*
X167160000Y-112850000D03*
X168070000Y-113870000D03*
X168070000Y-114790000D03*
X168110000Y-112860000D03*
X168970000Y-113860000D03*
X168970000Y-114780000D03*
X169010000Y-112850000D03*
D13*
%TO.C,J9*%
X127040000Y-87830000D02*
X126440000Y-87830000D01*
X127040000Y-96470000D02*
X126440000Y-96470000D01*
%TO.C,J10*%
X130252500Y-102880000D02*
X129652500Y-102880000D01*
X130252500Y-111520000D02*
X129652500Y-111520000D01*
%TO.C,J9*%
X131400012Y-87830000D02*
X130499988Y-87830000D01*
X131399999Y-96470000D02*
X130500001Y-96470000D01*
%TO.C,J10*%
X134612512Y-102880000D02*
X133712488Y-102880000D01*
X134612499Y-111520000D02*
X133712501Y-111520000D01*
D14*
%TO.C,J1*%
X135590000Y-119990000D03*
X146590000Y-119990000D03*
%TO.C,J2*%
X161360426Y-119498536D03*
X164860426Y-119498536D03*
D15*
%TO.C,J1*%
X138590000Y-114990000D03*
X143590000Y-114990000D03*
M02*
