%TF.GenerationSoftware,KiCad,Pcbnew,9.0.1*%
%TF.CreationDate,2026-09-09T17:21:39+07:00*%
%TF.ProjectId,Master_Hand_Kicad,4d617374-6572-45f4-9861-6e645f4b6963,+ (Unreleased)*%
%TF.SameCoordinates,Original*%
%TF.FileFunction,Drillmap*%
%TF.FilePolarity,Positive*%
%FSLAX45Y45*%
G04 Gerber Fmt 4.5, Leading zero omitted, Abs format (unit mm)*
G04 Created by KiCad (PCBNEW 9.0.1) date 2026-09-09 17:21:39*
%MOMM*%
%LPD*%
G01*
G04 APERTURE LIST*
%ADD10C,0.150000*%
%ADD11C,0.200000*%
%ADD12C,0.100000*%
%ADD13C,0.240000*%
G04 APERTURE END LIST*
D10*
X14198522Y-5977106D02*
X16086302Y-5744825D01*
X17994809Y-5744454D02*
X19478711Y-5926295D01*
X13330373Y-12325442D02*
X18095184Y-12325442D01*
X13330000Y-12325000D02*
X13196210Y-12017899D01*
X12330374Y-6777371D02*
G75*
G02*
X12647230Y-6392790I427866J-29699D01*
G01*
X13196210Y-12017899D02*
G75*
G02*
X13002567Y-11524157I-29030J273459D01*
G01*
X19478711Y-5926295D02*
G75*
G02*
X19834126Y-6218348I-52301J-425935D01*
G01*
X18095184Y-12325442D02*
X18095184Y-11944442D01*
X16092369Y-5744454D02*
X17994809Y-5744454D01*
X16894043Y-8644347D02*
X18095184Y-11944442D01*
X19955024Y-6631173D02*
G75*
G02*
X19938060Y-6826892I-237524J-78007D01*
G01*
X19740991Y-7170010D02*
G75*
G02*
X19875276Y-7670000I-23801J-274420D01*
G01*
X16894043Y-8644347D02*
X19572626Y-7670000D01*
X19955024Y-6631173D02*
X19834126Y-6218348D01*
X19740952Y-7170461D02*
X19938061Y-6826893D01*
X16086302Y-5744825D02*
G75*
G02*
X16092369Y-5744454I6068J-49505D01*
G01*
X12647230Y-6392792D02*
X14198522Y-5977106D01*
X19572626Y-7670000D02*
X19875276Y-7670000D01*
X12306753Y-7876175D02*
G75*
G02*
X12330375Y-6777371I11495737J302515D01*
G01*
X12333753Y-8417398D02*
G75*
G02*
X12306753Y-7876174I33428J272953D01*
G01*
X13002560Y-11524148D02*
G75*
G02*
X12333753Y-8417398I10800220J3950388D01*
G01*
D11*
D12*
X12152000Y-8119000D02*
X12202000Y-8169000D01*
X12202000Y-8119000D02*
X12152000Y-8169000D01*
X12200000Y-8240000D02*
X12250000Y-8290000D01*
X12250000Y-8240000D02*
X12200000Y-8290000D01*
X12201000Y-7995000D02*
X12251000Y-8045000D01*
X12251000Y-7995000D02*
X12201000Y-8045000D01*
X12325000Y-8304000D02*
X12375000Y-8354000D01*
X12375000Y-8304000D02*
X12325000Y-8354000D01*
X12327000Y-7946000D02*
X12377000Y-7996000D01*
X12377000Y-7946000D02*
X12327000Y-7996000D01*
X12453000Y-8245000D02*
X12503000Y-8295000D01*
X12503000Y-8245000D02*
X12453000Y-8295000D01*
X12454000Y-8000000D02*
X12504000Y-8050000D01*
X12504000Y-8000000D02*
X12454000Y-8050000D01*
X12501000Y-8119000D02*
X12551000Y-8169000D01*
X12551000Y-8119000D02*
X12501000Y-8169000D01*
X12982000Y-11725000D02*
X13032000Y-11775000D01*
X13032000Y-11725000D02*
X12982000Y-11775000D01*
X13017000Y-8901000D02*
X13067000Y-8951000D01*
X13067000Y-8901000D02*
X13017000Y-8951000D01*
X13017000Y-9479000D02*
X13067000Y-9529000D01*
X13067000Y-9479000D02*
X13017000Y-9529000D01*
X13030000Y-11846000D02*
X13080000Y-11896000D01*
X13080000Y-11846000D02*
X13030000Y-11896000D01*
X13031000Y-11601000D02*
X13081000Y-11651000D01*
X13081000Y-11601000D02*
X13031000Y-11651000D01*
X13155000Y-11910000D02*
X13205000Y-11960000D01*
X13205000Y-11910000D02*
X13155000Y-11960000D01*
X13157000Y-11552000D02*
X13207000Y-11602000D01*
X13207000Y-11552000D02*
X13157000Y-11602000D01*
X13283000Y-11851000D02*
X13333000Y-11901000D01*
X13333000Y-11851000D02*
X13283000Y-11901000D01*
X13284000Y-11606000D02*
X13334000Y-11656000D01*
X13334000Y-11606000D02*
X13284000Y-11656000D01*
X13331000Y-11725000D02*
X13381000Y-11775000D01*
X13381000Y-11725000D02*
X13331000Y-11775000D01*
X13338250Y-10406000D02*
X13388250Y-10456000D01*
X13388250Y-10406000D02*
X13338250Y-10456000D01*
X13338250Y-10984000D02*
X13388250Y-11034000D01*
X13388250Y-10984000D02*
X13338250Y-11034000D01*
X19531715Y-7399662D02*
X19581715Y-7449662D01*
X19581715Y-7399662D02*
X19531715Y-7449662D01*
X19579715Y-7520662D02*
X19629715Y-7570662D01*
X19629715Y-7520662D02*
X19579715Y-7570662D01*
X19580715Y-7275662D02*
X19630715Y-7325662D01*
X19630715Y-7275662D02*
X19580715Y-7325662D01*
X19704715Y-7584662D02*
X19754715Y-7634662D01*
X19754715Y-7584662D02*
X19704715Y-7634662D01*
X19706715Y-7226662D02*
X19756715Y-7276662D01*
X19756715Y-7226662D02*
X19706715Y-7276662D01*
X19832715Y-7525662D02*
X19882715Y-7575662D01*
X19882715Y-7525662D02*
X19832715Y-7575662D01*
X19833715Y-7280662D02*
X19883715Y-7330662D01*
X19883715Y-7280662D02*
X19833715Y-7330662D01*
X19880715Y-7399662D02*
X19930715Y-7449662D01*
X19930715Y-7399662D02*
X19880715Y-7449662D01*
D13*
X12470000Y-8144000D02*
G75*
G02*
X12230000Y-8144000I-120000J0D01*
G01*
X12230000Y-8144000D02*
G75*
G02*
X12470000Y-8144000I120000J0D01*
G01*
X13300000Y-11750000D02*
G75*
G02*
X13060000Y-11750000I-120000J0D01*
G01*
X13060000Y-11750000D02*
G75*
G02*
X13300000Y-11750000I120000J0D01*
G01*
X19849715Y-7424662D02*
G75*
G02*
X19609715Y-7424662I-120000J0D01*
G01*
X19609715Y-7424662D02*
G75*
G02*
X19849715Y-7424662I120000J0D01*
G01*
D11*
X12345466Y-12644426D02*
X12345466Y-12444426D01*
X12345466Y-12444426D02*
X12393085Y-12444426D01*
X12393085Y-12444426D02*
X12421656Y-12453949D01*
X12421656Y-12453949D02*
X12440704Y-12472997D01*
X12440704Y-12472997D02*
X12450228Y-12492045D01*
X12450228Y-12492045D02*
X12459751Y-12530140D01*
X12459751Y-12530140D02*
X12459751Y-12558711D01*
X12459751Y-12558711D02*
X12450228Y-12596806D01*
X12450228Y-12596806D02*
X12440704Y-12615854D01*
X12440704Y-12615854D02*
X12421656Y-12634902D01*
X12421656Y-12634902D02*
X12393085Y-12644426D01*
X12393085Y-12644426D02*
X12345466Y-12644426D01*
X12545466Y-12644426D02*
X12545466Y-12511092D01*
X12545466Y-12549187D02*
X12554989Y-12530140D01*
X12554989Y-12530140D02*
X12564513Y-12520616D01*
X12564513Y-12520616D02*
X12583561Y-12511092D01*
X12583561Y-12511092D02*
X12602609Y-12511092D01*
X12669275Y-12644426D02*
X12669275Y-12511092D01*
X12669275Y-12444426D02*
X12659751Y-12453949D01*
X12659751Y-12453949D02*
X12669275Y-12463473D01*
X12669275Y-12463473D02*
X12678799Y-12453949D01*
X12678799Y-12453949D02*
X12669275Y-12444426D01*
X12669275Y-12444426D02*
X12669275Y-12463473D01*
X12793085Y-12644426D02*
X12774037Y-12634902D01*
X12774037Y-12634902D02*
X12764513Y-12615854D01*
X12764513Y-12615854D02*
X12764513Y-12444426D01*
X12897847Y-12644426D02*
X12878799Y-12634902D01*
X12878799Y-12634902D02*
X12869275Y-12615854D01*
X12869275Y-12615854D02*
X12869275Y-12444426D01*
X13126418Y-12644426D02*
X13126418Y-12444426D01*
X13126418Y-12444426D02*
X13193085Y-12587283D01*
X13193085Y-12587283D02*
X13259751Y-12444426D01*
X13259751Y-12444426D02*
X13259751Y-12644426D01*
X13440704Y-12644426D02*
X13440704Y-12539664D01*
X13440704Y-12539664D02*
X13431180Y-12520616D01*
X13431180Y-12520616D02*
X13412132Y-12511092D01*
X13412132Y-12511092D02*
X13374037Y-12511092D01*
X13374037Y-12511092D02*
X13354989Y-12520616D01*
X13440704Y-12634902D02*
X13421656Y-12644426D01*
X13421656Y-12644426D02*
X13374037Y-12644426D01*
X13374037Y-12644426D02*
X13354989Y-12634902D01*
X13354989Y-12634902D02*
X13345466Y-12615854D01*
X13345466Y-12615854D02*
X13345466Y-12596806D01*
X13345466Y-12596806D02*
X13354989Y-12577759D01*
X13354989Y-12577759D02*
X13374037Y-12568235D01*
X13374037Y-12568235D02*
X13421656Y-12568235D01*
X13421656Y-12568235D02*
X13440704Y-12558711D01*
X13535942Y-12511092D02*
X13535942Y-12711092D01*
X13535942Y-12520616D02*
X13554989Y-12511092D01*
X13554989Y-12511092D02*
X13593085Y-12511092D01*
X13593085Y-12511092D02*
X13612132Y-12520616D01*
X13612132Y-12520616D02*
X13621656Y-12530140D01*
X13621656Y-12530140D02*
X13631180Y-12549187D01*
X13631180Y-12549187D02*
X13631180Y-12606330D01*
X13631180Y-12606330D02*
X13621656Y-12625378D01*
X13621656Y-12625378D02*
X13612132Y-12634902D01*
X13612132Y-12634902D02*
X13593085Y-12644426D01*
X13593085Y-12644426D02*
X13554989Y-12644426D01*
X13554989Y-12644426D02*
X13535942Y-12634902D01*
X13716894Y-12625378D02*
X13726418Y-12634902D01*
X13726418Y-12634902D02*
X13716894Y-12644426D01*
X13716894Y-12644426D02*
X13707370Y-12634902D01*
X13707370Y-12634902D02*
X13716894Y-12625378D01*
X13716894Y-12625378D02*
X13716894Y-12644426D01*
X13716894Y-12520616D02*
X13726418Y-12530140D01*
X13726418Y-12530140D02*
X13716894Y-12539664D01*
X13716894Y-12539664D02*
X13707370Y-12530140D01*
X13707370Y-12530140D02*
X13716894Y-12520616D01*
X13716894Y-12520616D02*
X13716894Y-12539664D01*
D12*
X12034689Y-12947942D02*
X12084689Y-12997942D01*
X12084689Y-12947942D02*
X12034689Y-12997942D01*
D11*
X12383561Y-12864426D02*
X12402609Y-12864426D01*
X12402609Y-12864426D02*
X12421656Y-12873949D01*
X12421656Y-12873949D02*
X12431180Y-12883473D01*
X12431180Y-12883473D02*
X12440704Y-12902521D01*
X12440704Y-12902521D02*
X12450228Y-12940616D01*
X12450228Y-12940616D02*
X12450228Y-12988235D01*
X12450228Y-12988235D02*
X12440704Y-13026330D01*
X12440704Y-13026330D02*
X12431180Y-13045378D01*
X12431180Y-13045378D02*
X12421656Y-13054902D01*
X12421656Y-13054902D02*
X12402609Y-13064426D01*
X12402609Y-13064426D02*
X12383561Y-13064426D01*
X12383561Y-13064426D02*
X12364513Y-13054902D01*
X12364513Y-13054902D02*
X12354989Y-13045378D01*
X12354989Y-13045378D02*
X12345466Y-13026330D01*
X12345466Y-13026330D02*
X12335942Y-12988235D01*
X12335942Y-12988235D02*
X12335942Y-12940616D01*
X12335942Y-12940616D02*
X12345466Y-12902521D01*
X12345466Y-12902521D02*
X12354989Y-12883473D01*
X12354989Y-12883473D02*
X12364513Y-12873949D01*
X12364513Y-12873949D02*
X12383561Y-12864426D01*
X12535942Y-13045378D02*
X12545466Y-13054902D01*
X12545466Y-13054902D02*
X12535942Y-13064426D01*
X12535942Y-13064426D02*
X12526418Y-13054902D01*
X12526418Y-13054902D02*
X12535942Y-13045378D01*
X12535942Y-13045378D02*
X12535942Y-13064426D01*
X12726418Y-12864426D02*
X12631180Y-12864426D01*
X12631180Y-12864426D02*
X12621656Y-12959664D01*
X12621656Y-12959664D02*
X12631180Y-12950140D01*
X12631180Y-12950140D02*
X12650228Y-12940616D01*
X12650228Y-12940616D02*
X12697847Y-12940616D01*
X12697847Y-12940616D02*
X12716894Y-12950140D01*
X12716894Y-12950140D02*
X12726418Y-12959664D01*
X12726418Y-12959664D02*
X12735942Y-12978711D01*
X12735942Y-12978711D02*
X12735942Y-13026330D01*
X12735942Y-13026330D02*
X12726418Y-13045378D01*
X12726418Y-13045378D02*
X12716894Y-13054902D01*
X12716894Y-13054902D02*
X12697847Y-13064426D01*
X12697847Y-13064426D02*
X12650228Y-13064426D01*
X12650228Y-13064426D02*
X12631180Y-13054902D01*
X12631180Y-13054902D02*
X12621656Y-13045378D01*
X12859751Y-12864426D02*
X12878799Y-12864426D01*
X12878799Y-12864426D02*
X12897847Y-12873949D01*
X12897847Y-12873949D02*
X12907370Y-12883473D01*
X12907370Y-12883473D02*
X12916894Y-12902521D01*
X12916894Y-12902521D02*
X12926418Y-12940616D01*
X12926418Y-12940616D02*
X12926418Y-12988235D01*
X12926418Y-12988235D02*
X12916894Y-13026330D01*
X12916894Y-13026330D02*
X12907370Y-13045378D01*
X12907370Y-13045378D02*
X12897847Y-13054902D01*
X12897847Y-13054902D02*
X12878799Y-13064426D01*
X12878799Y-13064426D02*
X12859751Y-13064426D01*
X12859751Y-13064426D02*
X12840704Y-13054902D01*
X12840704Y-13054902D02*
X12831180Y-13045378D01*
X12831180Y-13045378D02*
X12821656Y-13026330D01*
X12821656Y-13026330D02*
X12812132Y-12988235D01*
X12812132Y-12988235D02*
X12812132Y-12940616D01*
X12812132Y-12940616D02*
X12821656Y-12902521D01*
X12821656Y-12902521D02*
X12831180Y-12883473D01*
X12831180Y-12883473D02*
X12840704Y-12873949D01*
X12840704Y-12873949D02*
X12859751Y-12864426D01*
X13050228Y-12864426D02*
X13069275Y-12864426D01*
X13069275Y-12864426D02*
X13088323Y-12873949D01*
X13088323Y-12873949D02*
X13097847Y-12883473D01*
X13097847Y-12883473D02*
X13107370Y-12902521D01*
X13107370Y-12902521D02*
X13116894Y-12940616D01*
X13116894Y-12940616D02*
X13116894Y-12988235D01*
X13116894Y-12988235D02*
X13107370Y-13026330D01*
X13107370Y-13026330D02*
X13097847Y-13045378D01*
X13097847Y-13045378D02*
X13088323Y-13054902D01*
X13088323Y-13054902D02*
X13069275Y-13064426D01*
X13069275Y-13064426D02*
X13050228Y-13064426D01*
X13050228Y-13064426D02*
X13031180Y-13054902D01*
X13031180Y-13054902D02*
X13021656Y-13045378D01*
X13021656Y-13045378D02*
X13012132Y-13026330D01*
X13012132Y-13026330D02*
X13002609Y-12988235D01*
X13002609Y-12988235D02*
X13002609Y-12940616D01*
X13002609Y-12940616D02*
X13012132Y-12902521D01*
X13012132Y-12902521D02*
X13021656Y-12883473D01*
X13021656Y-12883473D02*
X13031180Y-12873949D01*
X13031180Y-12873949D02*
X13050228Y-12864426D01*
X13202609Y-13064426D02*
X13202609Y-12931092D01*
X13202609Y-12950140D02*
X13212132Y-12940616D01*
X13212132Y-12940616D02*
X13231180Y-12931092D01*
X13231180Y-12931092D02*
X13259751Y-12931092D01*
X13259751Y-12931092D02*
X13278799Y-12940616D01*
X13278799Y-12940616D02*
X13288323Y-12959664D01*
X13288323Y-12959664D02*
X13288323Y-13064426D01*
X13288323Y-12959664D02*
X13297847Y-12940616D01*
X13297847Y-12940616D02*
X13316894Y-12931092D01*
X13316894Y-12931092D02*
X13345466Y-12931092D01*
X13345466Y-12931092D02*
X13364513Y-12940616D01*
X13364513Y-12940616D02*
X13374037Y-12959664D01*
X13374037Y-12959664D02*
X13374037Y-13064426D01*
X13469275Y-13064426D02*
X13469275Y-12931092D01*
X13469275Y-12950140D02*
X13478799Y-12940616D01*
X13478799Y-12940616D02*
X13497847Y-12931092D01*
X13497847Y-12931092D02*
X13526418Y-12931092D01*
X13526418Y-12931092D02*
X13545466Y-12940616D01*
X13545466Y-12940616D02*
X13554990Y-12959664D01*
X13554990Y-12959664D02*
X13554990Y-13064426D01*
X13554990Y-12959664D02*
X13564513Y-12940616D01*
X13564513Y-12940616D02*
X13583561Y-12931092D01*
X13583561Y-12931092D02*
X13612132Y-12931092D01*
X13612132Y-12931092D02*
X13631180Y-12940616D01*
X13631180Y-12940616D02*
X13640704Y-12959664D01*
X13640704Y-12959664D02*
X13640704Y-13064426D01*
X14031180Y-12854902D02*
X13859752Y-13112045D01*
X14288323Y-12864426D02*
X14307371Y-12864426D01*
X14307371Y-12864426D02*
X14326418Y-12873949D01*
X14326418Y-12873949D02*
X14335942Y-12883473D01*
X14335942Y-12883473D02*
X14345466Y-12902521D01*
X14345466Y-12902521D02*
X14354990Y-12940616D01*
X14354990Y-12940616D02*
X14354990Y-12988235D01*
X14354990Y-12988235D02*
X14345466Y-13026330D01*
X14345466Y-13026330D02*
X14335942Y-13045378D01*
X14335942Y-13045378D02*
X14326418Y-13054902D01*
X14326418Y-13054902D02*
X14307371Y-13064426D01*
X14307371Y-13064426D02*
X14288323Y-13064426D01*
X14288323Y-13064426D02*
X14269275Y-13054902D01*
X14269275Y-13054902D02*
X14259752Y-13045378D01*
X14259752Y-13045378D02*
X14250228Y-13026330D01*
X14250228Y-13026330D02*
X14240704Y-12988235D01*
X14240704Y-12988235D02*
X14240704Y-12940616D01*
X14240704Y-12940616D02*
X14250228Y-12902521D01*
X14250228Y-12902521D02*
X14259752Y-12883473D01*
X14259752Y-12883473D02*
X14269275Y-12873949D01*
X14269275Y-12873949D02*
X14288323Y-12864426D01*
X14440704Y-13045378D02*
X14450228Y-13054902D01*
X14450228Y-13054902D02*
X14440704Y-13064426D01*
X14440704Y-13064426D02*
X14431180Y-13054902D01*
X14431180Y-13054902D02*
X14440704Y-13045378D01*
X14440704Y-13045378D02*
X14440704Y-13064426D01*
X14574037Y-12864426D02*
X14593085Y-12864426D01*
X14593085Y-12864426D02*
X14612133Y-12873949D01*
X14612133Y-12873949D02*
X14621656Y-12883473D01*
X14621656Y-12883473D02*
X14631180Y-12902521D01*
X14631180Y-12902521D02*
X14640704Y-12940616D01*
X14640704Y-12940616D02*
X14640704Y-12988235D01*
X14640704Y-12988235D02*
X14631180Y-13026330D01*
X14631180Y-13026330D02*
X14621656Y-13045378D01*
X14621656Y-13045378D02*
X14612133Y-13054902D01*
X14612133Y-13054902D02*
X14593085Y-13064426D01*
X14593085Y-13064426D02*
X14574037Y-13064426D01*
X14574037Y-13064426D02*
X14554990Y-13054902D01*
X14554990Y-13054902D02*
X14545466Y-13045378D01*
X14545466Y-13045378D02*
X14535942Y-13026330D01*
X14535942Y-13026330D02*
X14526418Y-12988235D01*
X14526418Y-12988235D02*
X14526418Y-12940616D01*
X14526418Y-12940616D02*
X14535942Y-12902521D01*
X14535942Y-12902521D02*
X14545466Y-12883473D01*
X14545466Y-12883473D02*
X14554990Y-12873949D01*
X14554990Y-12873949D02*
X14574037Y-12864426D01*
X14831180Y-13064426D02*
X14716894Y-13064426D01*
X14774037Y-13064426D02*
X14774037Y-12864426D01*
X14774037Y-12864426D02*
X14754990Y-12892997D01*
X14754990Y-12892997D02*
X14735942Y-12912045D01*
X14735942Y-12912045D02*
X14716894Y-12921568D01*
X14926418Y-13064426D02*
X14964513Y-13064426D01*
X14964513Y-13064426D02*
X14983561Y-13054902D01*
X14983561Y-13054902D02*
X14993085Y-13045378D01*
X14993085Y-13045378D02*
X15012133Y-13016806D01*
X15012133Y-13016806D02*
X15021656Y-12978711D01*
X15021656Y-12978711D02*
X15021656Y-12902521D01*
X15021656Y-12902521D02*
X15012133Y-12883473D01*
X15012133Y-12883473D02*
X15002609Y-12873949D01*
X15002609Y-12873949D02*
X14983561Y-12864426D01*
X14983561Y-12864426D02*
X14945466Y-12864426D01*
X14945466Y-12864426D02*
X14926418Y-12873949D01*
X14926418Y-12873949D02*
X14916894Y-12883473D01*
X14916894Y-12883473D02*
X14907371Y-12902521D01*
X14907371Y-12902521D02*
X14907371Y-12950140D01*
X14907371Y-12950140D02*
X14916894Y-12969187D01*
X14916894Y-12969187D02*
X14926418Y-12978711D01*
X14926418Y-12978711D02*
X14945466Y-12988235D01*
X14945466Y-12988235D02*
X14983561Y-12988235D01*
X14983561Y-12988235D02*
X15002609Y-12978711D01*
X15002609Y-12978711D02*
X15012133Y-12969187D01*
X15012133Y-12969187D02*
X15021656Y-12950140D01*
X15088323Y-12864426D02*
X15221656Y-12864426D01*
X15221656Y-12864426D02*
X15135942Y-13064426D01*
X15288323Y-12864426D02*
X15288323Y-12902521D01*
X15364514Y-12864426D02*
X15364514Y-12902521D01*
X15659752Y-13140616D02*
X15650228Y-13131092D01*
X15650228Y-13131092D02*
X15631180Y-13102521D01*
X15631180Y-13102521D02*
X15621656Y-13083473D01*
X15621656Y-13083473D02*
X15612133Y-13054902D01*
X15612133Y-13054902D02*
X15602609Y-13007283D01*
X15602609Y-13007283D02*
X15602609Y-12969187D01*
X15602609Y-12969187D02*
X15612133Y-12921568D01*
X15612133Y-12921568D02*
X15621656Y-12892997D01*
X15621656Y-12892997D02*
X15631180Y-12873949D01*
X15631180Y-12873949D02*
X15650228Y-12845378D01*
X15650228Y-12845378D02*
X15659752Y-12835854D01*
X15726418Y-12883473D02*
X15735942Y-12873949D01*
X15735942Y-12873949D02*
X15754990Y-12864426D01*
X15754990Y-12864426D02*
X15802609Y-12864426D01*
X15802609Y-12864426D02*
X15821656Y-12873949D01*
X15821656Y-12873949D02*
X15831180Y-12883473D01*
X15831180Y-12883473D02*
X15840704Y-12902521D01*
X15840704Y-12902521D02*
X15840704Y-12921568D01*
X15840704Y-12921568D02*
X15831180Y-12950140D01*
X15831180Y-12950140D02*
X15716895Y-13064426D01*
X15716895Y-13064426D02*
X15840704Y-13064426D01*
X15954990Y-12950140D02*
X15935942Y-12940616D01*
X15935942Y-12940616D02*
X15926418Y-12931092D01*
X15926418Y-12931092D02*
X15916895Y-12912045D01*
X15916895Y-12912045D02*
X15916895Y-12902521D01*
X15916895Y-12902521D02*
X15926418Y-12883473D01*
X15926418Y-12883473D02*
X15935942Y-12873949D01*
X15935942Y-12873949D02*
X15954990Y-12864426D01*
X15954990Y-12864426D02*
X15993085Y-12864426D01*
X15993085Y-12864426D02*
X16012133Y-12873949D01*
X16012133Y-12873949D02*
X16021656Y-12883473D01*
X16021656Y-12883473D02*
X16031180Y-12902521D01*
X16031180Y-12902521D02*
X16031180Y-12912045D01*
X16031180Y-12912045D02*
X16021656Y-12931092D01*
X16021656Y-12931092D02*
X16012133Y-12940616D01*
X16012133Y-12940616D02*
X15993085Y-12950140D01*
X15993085Y-12950140D02*
X15954990Y-12950140D01*
X15954990Y-12950140D02*
X15935942Y-12959664D01*
X15935942Y-12959664D02*
X15926418Y-12969187D01*
X15926418Y-12969187D02*
X15916895Y-12988235D01*
X15916895Y-12988235D02*
X15916895Y-13026330D01*
X15916895Y-13026330D02*
X15926418Y-13045378D01*
X15926418Y-13045378D02*
X15935942Y-13054902D01*
X15935942Y-13054902D02*
X15954990Y-13064426D01*
X15954990Y-13064426D02*
X15993085Y-13064426D01*
X15993085Y-13064426D02*
X16012133Y-13054902D01*
X16012133Y-13054902D02*
X16021656Y-13045378D01*
X16021656Y-13045378D02*
X16031180Y-13026330D01*
X16031180Y-13026330D02*
X16031180Y-12988235D01*
X16031180Y-12988235D02*
X16021656Y-12969187D01*
X16021656Y-12969187D02*
X16012133Y-12959664D01*
X16012133Y-12959664D02*
X15993085Y-12950140D01*
X16269276Y-13064426D02*
X16269276Y-12864426D01*
X16354990Y-13064426D02*
X16354990Y-12959664D01*
X16354990Y-12959664D02*
X16345466Y-12940616D01*
X16345466Y-12940616D02*
X16326418Y-12931092D01*
X16326418Y-12931092D02*
X16297847Y-12931092D01*
X16297847Y-12931092D02*
X16278799Y-12940616D01*
X16278799Y-12940616D02*
X16269276Y-12950140D01*
X16478799Y-13064426D02*
X16459752Y-13054902D01*
X16459752Y-13054902D02*
X16450228Y-13045378D01*
X16450228Y-13045378D02*
X16440704Y-13026330D01*
X16440704Y-13026330D02*
X16440704Y-12969187D01*
X16440704Y-12969187D02*
X16450228Y-12950140D01*
X16450228Y-12950140D02*
X16459752Y-12940616D01*
X16459752Y-12940616D02*
X16478799Y-12931092D01*
X16478799Y-12931092D02*
X16507371Y-12931092D01*
X16507371Y-12931092D02*
X16526418Y-12940616D01*
X16526418Y-12940616D02*
X16535942Y-12950140D01*
X16535942Y-12950140D02*
X16545466Y-12969187D01*
X16545466Y-12969187D02*
X16545466Y-13026330D01*
X16545466Y-13026330D02*
X16535942Y-13045378D01*
X16535942Y-13045378D02*
X16526418Y-13054902D01*
X16526418Y-13054902D02*
X16507371Y-13064426D01*
X16507371Y-13064426D02*
X16478799Y-13064426D01*
X16659752Y-13064426D02*
X16640704Y-13054902D01*
X16640704Y-13054902D02*
X16631180Y-13035854D01*
X16631180Y-13035854D02*
X16631180Y-12864426D01*
X16812133Y-13054902D02*
X16793085Y-13064426D01*
X16793085Y-13064426D02*
X16754990Y-13064426D01*
X16754990Y-13064426D02*
X16735942Y-13054902D01*
X16735942Y-13054902D02*
X16726418Y-13035854D01*
X16726418Y-13035854D02*
X16726418Y-12959664D01*
X16726418Y-12959664D02*
X16735942Y-12940616D01*
X16735942Y-12940616D02*
X16754990Y-12931092D01*
X16754990Y-12931092D02*
X16793085Y-12931092D01*
X16793085Y-12931092D02*
X16812133Y-12940616D01*
X16812133Y-12940616D02*
X16821657Y-12959664D01*
X16821657Y-12959664D02*
X16821657Y-12978711D01*
X16821657Y-12978711D02*
X16726418Y-12997759D01*
X16897847Y-13054902D02*
X16916895Y-13064426D01*
X16916895Y-13064426D02*
X16954990Y-13064426D01*
X16954990Y-13064426D02*
X16974038Y-13054902D01*
X16974038Y-13054902D02*
X16983561Y-13035854D01*
X16983561Y-13035854D02*
X16983561Y-13026330D01*
X16983561Y-13026330D02*
X16974038Y-13007283D01*
X16974038Y-13007283D02*
X16954990Y-12997759D01*
X16954990Y-12997759D02*
X16926419Y-12997759D01*
X16926419Y-12997759D02*
X16907371Y-12988235D01*
X16907371Y-12988235D02*
X16897847Y-12969187D01*
X16897847Y-12969187D02*
X16897847Y-12959664D01*
X16897847Y-12959664D02*
X16907371Y-12940616D01*
X16907371Y-12940616D02*
X16926419Y-12931092D01*
X16926419Y-12931092D02*
X16954990Y-12931092D01*
X16954990Y-12931092D02*
X16974038Y-12940616D01*
X17050228Y-13140616D02*
X17059752Y-13131092D01*
X17059752Y-13131092D02*
X17078800Y-13102521D01*
X17078800Y-13102521D02*
X17088323Y-13083473D01*
X17088323Y-13083473D02*
X17097847Y-13054902D01*
X17097847Y-13054902D02*
X17107371Y-13007283D01*
X17107371Y-13007283D02*
X17107371Y-12969187D01*
X17107371Y-12969187D02*
X17097847Y-12921568D01*
X17097847Y-12921568D02*
X17088323Y-12892997D01*
X17088323Y-12892997D02*
X17078800Y-12873949D01*
X17078800Y-12873949D02*
X17059752Y-12845378D01*
X17059752Y-12845378D02*
X17050228Y-12835854D01*
X17412133Y-13140616D02*
X17402609Y-13131092D01*
X17402609Y-13131092D02*
X17383561Y-13102521D01*
X17383561Y-13102521D02*
X17374038Y-13083473D01*
X17374038Y-13083473D02*
X17364514Y-13054902D01*
X17364514Y-13054902D02*
X17354990Y-13007283D01*
X17354990Y-13007283D02*
X17354990Y-12969187D01*
X17354990Y-12969187D02*
X17364514Y-12921568D01*
X17364514Y-12921568D02*
X17374038Y-12892997D01*
X17374038Y-12892997D02*
X17383561Y-12873949D01*
X17383561Y-12873949D02*
X17402609Y-12845378D01*
X17402609Y-12845378D02*
X17412133Y-12835854D01*
X17488323Y-12931092D02*
X17488323Y-13064426D01*
X17488323Y-12950140D02*
X17497847Y-12940616D01*
X17497847Y-12940616D02*
X17516895Y-12931092D01*
X17516895Y-12931092D02*
X17545466Y-12931092D01*
X17545466Y-12931092D02*
X17564514Y-12940616D01*
X17564514Y-12940616D02*
X17574038Y-12959664D01*
X17574038Y-12959664D02*
X17574038Y-13064426D01*
X17697847Y-13064426D02*
X17678800Y-13054902D01*
X17678800Y-13054902D02*
X17669276Y-13045378D01*
X17669276Y-13045378D02*
X17659752Y-13026330D01*
X17659752Y-13026330D02*
X17659752Y-12969187D01*
X17659752Y-12969187D02*
X17669276Y-12950140D01*
X17669276Y-12950140D02*
X17678800Y-12940616D01*
X17678800Y-12940616D02*
X17697847Y-12931092D01*
X17697847Y-12931092D02*
X17726419Y-12931092D01*
X17726419Y-12931092D02*
X17745466Y-12940616D01*
X17745466Y-12940616D02*
X17754990Y-12950140D01*
X17754990Y-12950140D02*
X17764514Y-12969187D01*
X17764514Y-12969187D02*
X17764514Y-13026330D01*
X17764514Y-13026330D02*
X17754990Y-13045378D01*
X17754990Y-13045378D02*
X17745466Y-13054902D01*
X17745466Y-13054902D02*
X17726419Y-13064426D01*
X17726419Y-13064426D02*
X17697847Y-13064426D01*
X17821657Y-12931092D02*
X17897847Y-12931092D01*
X17850228Y-12864426D02*
X17850228Y-13035854D01*
X17850228Y-13035854D02*
X17859752Y-13054902D01*
X17859752Y-13054902D02*
X17878800Y-13064426D01*
X17878800Y-13064426D02*
X17897847Y-13064426D01*
X18116895Y-12931092D02*
X18116895Y-13131092D01*
X18116895Y-12940616D02*
X18135942Y-12931092D01*
X18135942Y-12931092D02*
X18174038Y-12931092D01*
X18174038Y-12931092D02*
X18193085Y-12940616D01*
X18193085Y-12940616D02*
X18202609Y-12950140D01*
X18202609Y-12950140D02*
X18212133Y-12969187D01*
X18212133Y-12969187D02*
X18212133Y-13026330D01*
X18212133Y-13026330D02*
X18202609Y-13045378D01*
X18202609Y-13045378D02*
X18193085Y-13054902D01*
X18193085Y-13054902D02*
X18174038Y-13064426D01*
X18174038Y-13064426D02*
X18135942Y-13064426D01*
X18135942Y-13064426D02*
X18116895Y-13054902D01*
X18326419Y-13064426D02*
X18307371Y-13054902D01*
X18307371Y-13054902D02*
X18297847Y-13035854D01*
X18297847Y-13035854D02*
X18297847Y-12864426D01*
X18488323Y-13064426D02*
X18488323Y-12959664D01*
X18488323Y-12959664D02*
X18478800Y-12940616D01*
X18478800Y-12940616D02*
X18459752Y-12931092D01*
X18459752Y-12931092D02*
X18421657Y-12931092D01*
X18421657Y-12931092D02*
X18402609Y-12940616D01*
X18488323Y-13054902D02*
X18469276Y-13064426D01*
X18469276Y-13064426D02*
X18421657Y-13064426D01*
X18421657Y-13064426D02*
X18402609Y-13054902D01*
X18402609Y-13054902D02*
X18393085Y-13035854D01*
X18393085Y-13035854D02*
X18393085Y-13016806D01*
X18393085Y-13016806D02*
X18402609Y-12997759D01*
X18402609Y-12997759D02*
X18421657Y-12988235D01*
X18421657Y-12988235D02*
X18469276Y-12988235D01*
X18469276Y-12988235D02*
X18488323Y-12978711D01*
X18554990Y-12931092D02*
X18631181Y-12931092D01*
X18583562Y-12864426D02*
X18583562Y-13035854D01*
X18583562Y-13035854D02*
X18593085Y-13054902D01*
X18593085Y-13054902D02*
X18612133Y-13064426D01*
X18612133Y-13064426D02*
X18631181Y-13064426D01*
X18774038Y-13054902D02*
X18754990Y-13064426D01*
X18754990Y-13064426D02*
X18716895Y-13064426D01*
X18716895Y-13064426D02*
X18697847Y-13054902D01*
X18697847Y-13054902D02*
X18688323Y-13035854D01*
X18688323Y-13035854D02*
X18688323Y-12959664D01*
X18688323Y-12959664D02*
X18697847Y-12940616D01*
X18697847Y-12940616D02*
X18716895Y-12931092D01*
X18716895Y-12931092D02*
X18754990Y-12931092D01*
X18754990Y-12931092D02*
X18774038Y-12940616D01*
X18774038Y-12940616D02*
X18783562Y-12959664D01*
X18783562Y-12959664D02*
X18783562Y-12978711D01*
X18783562Y-12978711D02*
X18688323Y-12997759D01*
X18954990Y-13064426D02*
X18954990Y-12864426D01*
X18954990Y-13054902D02*
X18935943Y-13064426D01*
X18935943Y-13064426D02*
X18897847Y-13064426D01*
X18897847Y-13064426D02*
X18878800Y-13054902D01*
X18878800Y-13054902D02*
X18869276Y-13045378D01*
X18869276Y-13045378D02*
X18859752Y-13026330D01*
X18859752Y-13026330D02*
X18859752Y-12969187D01*
X18859752Y-12969187D02*
X18869276Y-12950140D01*
X18869276Y-12950140D02*
X18878800Y-12940616D01*
X18878800Y-12940616D02*
X18897847Y-12931092D01*
X18897847Y-12931092D02*
X18935943Y-12931092D01*
X18935943Y-12931092D02*
X18954990Y-12940616D01*
X19031181Y-13140616D02*
X19040704Y-13131092D01*
X19040704Y-13131092D02*
X19059752Y-13102521D01*
X19059752Y-13102521D02*
X19069276Y-13083473D01*
X19069276Y-13083473D02*
X19078800Y-13054902D01*
X19078800Y-13054902D02*
X19088323Y-13007283D01*
X19088323Y-13007283D02*
X19088323Y-12969187D01*
X19088323Y-12969187D02*
X19078800Y-12921568D01*
X19078800Y-12921568D02*
X19069276Y-12892997D01*
X19069276Y-12892997D02*
X19059752Y-12873949D01*
X19059752Y-12873949D02*
X19040704Y-12845378D01*
X19040704Y-12845378D02*
X19031181Y-12835854D01*
X12084689Y-13236942D02*
G75*
G02*
X11884689Y-13236942I-100000J0D01*
G01*
X11884689Y-13236942D02*
G75*
G02*
X12084689Y-13236942I100000J0D01*
G01*
X12335942Y-13147473D02*
X12345466Y-13137949D01*
X12345466Y-13137949D02*
X12364513Y-13128426D01*
X12364513Y-13128426D02*
X12412132Y-13128426D01*
X12412132Y-13128426D02*
X12431180Y-13137949D01*
X12431180Y-13137949D02*
X12440704Y-13147473D01*
X12440704Y-13147473D02*
X12450228Y-13166521D01*
X12450228Y-13166521D02*
X12450228Y-13185568D01*
X12450228Y-13185568D02*
X12440704Y-13214140D01*
X12440704Y-13214140D02*
X12326418Y-13328426D01*
X12326418Y-13328426D02*
X12450228Y-13328426D01*
X12535942Y-13309378D02*
X12545466Y-13318902D01*
X12545466Y-13318902D02*
X12535942Y-13328426D01*
X12535942Y-13328426D02*
X12526418Y-13318902D01*
X12526418Y-13318902D02*
X12535942Y-13309378D01*
X12535942Y-13309378D02*
X12535942Y-13328426D01*
X12716894Y-13195092D02*
X12716894Y-13328426D01*
X12669275Y-13118902D02*
X12621656Y-13261759D01*
X12621656Y-13261759D02*
X12745466Y-13261759D01*
X12859751Y-13128426D02*
X12878799Y-13128426D01*
X12878799Y-13128426D02*
X12897847Y-13137949D01*
X12897847Y-13137949D02*
X12907370Y-13147473D01*
X12907370Y-13147473D02*
X12916894Y-13166521D01*
X12916894Y-13166521D02*
X12926418Y-13204616D01*
X12926418Y-13204616D02*
X12926418Y-13252235D01*
X12926418Y-13252235D02*
X12916894Y-13290330D01*
X12916894Y-13290330D02*
X12907370Y-13309378D01*
X12907370Y-13309378D02*
X12897847Y-13318902D01*
X12897847Y-13318902D02*
X12878799Y-13328426D01*
X12878799Y-13328426D02*
X12859751Y-13328426D01*
X12859751Y-13328426D02*
X12840704Y-13318902D01*
X12840704Y-13318902D02*
X12831180Y-13309378D01*
X12831180Y-13309378D02*
X12821656Y-13290330D01*
X12821656Y-13290330D02*
X12812132Y-13252235D01*
X12812132Y-13252235D02*
X12812132Y-13204616D01*
X12812132Y-13204616D02*
X12821656Y-13166521D01*
X12821656Y-13166521D02*
X12831180Y-13147473D01*
X12831180Y-13147473D02*
X12840704Y-13137949D01*
X12840704Y-13137949D02*
X12859751Y-13128426D01*
X13050228Y-13128426D02*
X13069275Y-13128426D01*
X13069275Y-13128426D02*
X13088323Y-13137949D01*
X13088323Y-13137949D02*
X13097847Y-13147473D01*
X13097847Y-13147473D02*
X13107370Y-13166521D01*
X13107370Y-13166521D02*
X13116894Y-13204616D01*
X13116894Y-13204616D02*
X13116894Y-13252235D01*
X13116894Y-13252235D02*
X13107370Y-13290330D01*
X13107370Y-13290330D02*
X13097847Y-13309378D01*
X13097847Y-13309378D02*
X13088323Y-13318902D01*
X13088323Y-13318902D02*
X13069275Y-13328426D01*
X13069275Y-13328426D02*
X13050228Y-13328426D01*
X13050228Y-13328426D02*
X13031180Y-13318902D01*
X13031180Y-13318902D02*
X13021656Y-13309378D01*
X13021656Y-13309378D02*
X13012132Y-13290330D01*
X13012132Y-13290330D02*
X13002609Y-13252235D01*
X13002609Y-13252235D02*
X13002609Y-13204616D01*
X13002609Y-13204616D02*
X13012132Y-13166521D01*
X13012132Y-13166521D02*
X13021656Y-13147473D01*
X13021656Y-13147473D02*
X13031180Y-13137949D01*
X13031180Y-13137949D02*
X13050228Y-13128426D01*
X13202609Y-13328426D02*
X13202609Y-13195092D01*
X13202609Y-13214140D02*
X13212132Y-13204616D01*
X13212132Y-13204616D02*
X13231180Y-13195092D01*
X13231180Y-13195092D02*
X13259751Y-13195092D01*
X13259751Y-13195092D02*
X13278799Y-13204616D01*
X13278799Y-13204616D02*
X13288323Y-13223664D01*
X13288323Y-13223664D02*
X13288323Y-13328426D01*
X13288323Y-13223664D02*
X13297847Y-13204616D01*
X13297847Y-13204616D02*
X13316894Y-13195092D01*
X13316894Y-13195092D02*
X13345466Y-13195092D01*
X13345466Y-13195092D02*
X13364513Y-13204616D01*
X13364513Y-13204616D02*
X13374037Y-13223664D01*
X13374037Y-13223664D02*
X13374037Y-13328426D01*
X13469275Y-13328426D02*
X13469275Y-13195092D01*
X13469275Y-13214140D02*
X13478799Y-13204616D01*
X13478799Y-13204616D02*
X13497847Y-13195092D01*
X13497847Y-13195092D02*
X13526418Y-13195092D01*
X13526418Y-13195092D02*
X13545466Y-13204616D01*
X13545466Y-13204616D02*
X13554990Y-13223664D01*
X13554990Y-13223664D02*
X13554990Y-13328426D01*
X13554990Y-13223664D02*
X13564513Y-13204616D01*
X13564513Y-13204616D02*
X13583561Y-13195092D01*
X13583561Y-13195092D02*
X13612132Y-13195092D01*
X13612132Y-13195092D02*
X13631180Y-13204616D01*
X13631180Y-13204616D02*
X13640704Y-13223664D01*
X13640704Y-13223664D02*
X13640704Y-13328426D01*
X14031180Y-13118902D02*
X13859752Y-13376045D01*
X14288323Y-13128426D02*
X14307371Y-13128426D01*
X14307371Y-13128426D02*
X14326418Y-13137949D01*
X14326418Y-13137949D02*
X14335942Y-13147473D01*
X14335942Y-13147473D02*
X14345466Y-13166521D01*
X14345466Y-13166521D02*
X14354990Y-13204616D01*
X14354990Y-13204616D02*
X14354990Y-13252235D01*
X14354990Y-13252235D02*
X14345466Y-13290330D01*
X14345466Y-13290330D02*
X14335942Y-13309378D01*
X14335942Y-13309378D02*
X14326418Y-13318902D01*
X14326418Y-13318902D02*
X14307371Y-13328426D01*
X14307371Y-13328426D02*
X14288323Y-13328426D01*
X14288323Y-13328426D02*
X14269275Y-13318902D01*
X14269275Y-13318902D02*
X14259752Y-13309378D01*
X14259752Y-13309378D02*
X14250228Y-13290330D01*
X14250228Y-13290330D02*
X14240704Y-13252235D01*
X14240704Y-13252235D02*
X14240704Y-13204616D01*
X14240704Y-13204616D02*
X14250228Y-13166521D01*
X14250228Y-13166521D02*
X14259752Y-13147473D01*
X14259752Y-13147473D02*
X14269275Y-13137949D01*
X14269275Y-13137949D02*
X14288323Y-13128426D01*
X14440704Y-13309378D02*
X14450228Y-13318902D01*
X14450228Y-13318902D02*
X14440704Y-13328426D01*
X14440704Y-13328426D02*
X14431180Y-13318902D01*
X14431180Y-13318902D02*
X14440704Y-13309378D01*
X14440704Y-13309378D02*
X14440704Y-13328426D01*
X14574037Y-13128426D02*
X14593085Y-13128426D01*
X14593085Y-13128426D02*
X14612133Y-13137949D01*
X14612133Y-13137949D02*
X14621656Y-13147473D01*
X14621656Y-13147473D02*
X14631180Y-13166521D01*
X14631180Y-13166521D02*
X14640704Y-13204616D01*
X14640704Y-13204616D02*
X14640704Y-13252235D01*
X14640704Y-13252235D02*
X14631180Y-13290330D01*
X14631180Y-13290330D02*
X14621656Y-13309378D01*
X14621656Y-13309378D02*
X14612133Y-13318902D01*
X14612133Y-13318902D02*
X14593085Y-13328426D01*
X14593085Y-13328426D02*
X14574037Y-13328426D01*
X14574037Y-13328426D02*
X14554990Y-13318902D01*
X14554990Y-13318902D02*
X14545466Y-13309378D01*
X14545466Y-13309378D02*
X14535942Y-13290330D01*
X14535942Y-13290330D02*
X14526418Y-13252235D01*
X14526418Y-13252235D02*
X14526418Y-13204616D01*
X14526418Y-13204616D02*
X14535942Y-13166521D01*
X14535942Y-13166521D02*
X14545466Y-13147473D01*
X14545466Y-13147473D02*
X14554990Y-13137949D01*
X14554990Y-13137949D02*
X14574037Y-13128426D01*
X14735942Y-13328426D02*
X14774037Y-13328426D01*
X14774037Y-13328426D02*
X14793085Y-13318902D01*
X14793085Y-13318902D02*
X14802609Y-13309378D01*
X14802609Y-13309378D02*
X14821656Y-13280806D01*
X14821656Y-13280806D02*
X14831180Y-13242711D01*
X14831180Y-13242711D02*
X14831180Y-13166521D01*
X14831180Y-13166521D02*
X14821656Y-13147473D01*
X14821656Y-13147473D02*
X14812133Y-13137949D01*
X14812133Y-13137949D02*
X14793085Y-13128426D01*
X14793085Y-13128426D02*
X14754990Y-13128426D01*
X14754990Y-13128426D02*
X14735942Y-13137949D01*
X14735942Y-13137949D02*
X14726418Y-13147473D01*
X14726418Y-13147473D02*
X14716894Y-13166521D01*
X14716894Y-13166521D02*
X14716894Y-13214140D01*
X14716894Y-13214140D02*
X14726418Y-13233187D01*
X14726418Y-13233187D02*
X14735942Y-13242711D01*
X14735942Y-13242711D02*
X14754990Y-13252235D01*
X14754990Y-13252235D02*
X14793085Y-13252235D01*
X14793085Y-13252235D02*
X14812133Y-13242711D01*
X14812133Y-13242711D02*
X14821656Y-13233187D01*
X14821656Y-13233187D02*
X14831180Y-13214140D01*
X15002609Y-13195092D02*
X15002609Y-13328426D01*
X14954990Y-13118902D02*
X14907371Y-13261759D01*
X14907371Y-13261759D02*
X15031180Y-13261759D01*
X15202609Y-13128426D02*
X15107371Y-13128426D01*
X15107371Y-13128426D02*
X15097847Y-13223664D01*
X15097847Y-13223664D02*
X15107371Y-13214140D01*
X15107371Y-13214140D02*
X15126418Y-13204616D01*
X15126418Y-13204616D02*
X15174037Y-13204616D01*
X15174037Y-13204616D02*
X15193085Y-13214140D01*
X15193085Y-13214140D02*
X15202609Y-13223664D01*
X15202609Y-13223664D02*
X15212133Y-13242711D01*
X15212133Y-13242711D02*
X15212133Y-13290330D01*
X15212133Y-13290330D02*
X15202609Y-13309378D01*
X15202609Y-13309378D02*
X15193085Y-13318902D01*
X15193085Y-13318902D02*
X15174037Y-13328426D01*
X15174037Y-13328426D02*
X15126418Y-13328426D01*
X15126418Y-13328426D02*
X15107371Y-13318902D01*
X15107371Y-13318902D02*
X15097847Y-13309378D01*
X15288323Y-13128426D02*
X15288323Y-13166521D01*
X15364514Y-13128426D02*
X15364514Y-13166521D01*
X15659752Y-13404616D02*
X15650228Y-13395092D01*
X15650228Y-13395092D02*
X15631180Y-13366521D01*
X15631180Y-13366521D02*
X15621656Y-13347473D01*
X15621656Y-13347473D02*
X15612133Y-13318902D01*
X15612133Y-13318902D02*
X15602609Y-13271283D01*
X15602609Y-13271283D02*
X15602609Y-13233187D01*
X15602609Y-13233187D02*
X15612133Y-13185568D01*
X15612133Y-13185568D02*
X15621656Y-13156997D01*
X15621656Y-13156997D02*
X15631180Y-13137949D01*
X15631180Y-13137949D02*
X15650228Y-13109378D01*
X15650228Y-13109378D02*
X15659752Y-13099854D01*
X15716895Y-13128426D02*
X15840704Y-13128426D01*
X15840704Y-13128426D02*
X15774037Y-13204616D01*
X15774037Y-13204616D02*
X15802609Y-13204616D01*
X15802609Y-13204616D02*
X15821656Y-13214140D01*
X15821656Y-13214140D02*
X15831180Y-13223664D01*
X15831180Y-13223664D02*
X15840704Y-13242711D01*
X15840704Y-13242711D02*
X15840704Y-13290330D01*
X15840704Y-13290330D02*
X15831180Y-13309378D01*
X15831180Y-13309378D02*
X15821656Y-13318902D01*
X15821656Y-13318902D02*
X15802609Y-13328426D01*
X15802609Y-13328426D02*
X15745466Y-13328426D01*
X15745466Y-13328426D02*
X15726418Y-13318902D01*
X15726418Y-13318902D02*
X15716895Y-13309378D01*
X16078799Y-13328426D02*
X16078799Y-13128426D01*
X16164514Y-13328426D02*
X16164514Y-13223664D01*
X16164514Y-13223664D02*
X16154990Y-13204616D01*
X16154990Y-13204616D02*
X16135942Y-13195092D01*
X16135942Y-13195092D02*
X16107371Y-13195092D01*
X16107371Y-13195092D02*
X16088323Y-13204616D01*
X16088323Y-13204616D02*
X16078799Y-13214140D01*
X16288323Y-13328426D02*
X16269276Y-13318902D01*
X16269276Y-13318902D02*
X16259752Y-13309378D01*
X16259752Y-13309378D02*
X16250228Y-13290330D01*
X16250228Y-13290330D02*
X16250228Y-13233187D01*
X16250228Y-13233187D02*
X16259752Y-13214140D01*
X16259752Y-13214140D02*
X16269276Y-13204616D01*
X16269276Y-13204616D02*
X16288323Y-13195092D01*
X16288323Y-13195092D02*
X16316895Y-13195092D01*
X16316895Y-13195092D02*
X16335942Y-13204616D01*
X16335942Y-13204616D02*
X16345466Y-13214140D01*
X16345466Y-13214140D02*
X16354990Y-13233187D01*
X16354990Y-13233187D02*
X16354990Y-13290330D01*
X16354990Y-13290330D02*
X16345466Y-13309378D01*
X16345466Y-13309378D02*
X16335942Y-13318902D01*
X16335942Y-13318902D02*
X16316895Y-13328426D01*
X16316895Y-13328426D02*
X16288323Y-13328426D01*
X16469276Y-13328426D02*
X16450228Y-13318902D01*
X16450228Y-13318902D02*
X16440704Y-13299854D01*
X16440704Y-13299854D02*
X16440704Y-13128426D01*
X16621657Y-13318902D02*
X16602609Y-13328426D01*
X16602609Y-13328426D02*
X16564514Y-13328426D01*
X16564514Y-13328426D02*
X16545466Y-13318902D01*
X16545466Y-13318902D02*
X16535942Y-13299854D01*
X16535942Y-13299854D02*
X16535942Y-13223664D01*
X16535942Y-13223664D02*
X16545466Y-13204616D01*
X16545466Y-13204616D02*
X16564514Y-13195092D01*
X16564514Y-13195092D02*
X16602609Y-13195092D01*
X16602609Y-13195092D02*
X16621657Y-13204616D01*
X16621657Y-13204616D02*
X16631180Y-13223664D01*
X16631180Y-13223664D02*
X16631180Y-13242711D01*
X16631180Y-13242711D02*
X16535942Y-13261759D01*
X16707371Y-13318902D02*
X16726418Y-13328426D01*
X16726418Y-13328426D02*
X16764514Y-13328426D01*
X16764514Y-13328426D02*
X16783561Y-13318902D01*
X16783561Y-13318902D02*
X16793085Y-13299854D01*
X16793085Y-13299854D02*
X16793085Y-13290330D01*
X16793085Y-13290330D02*
X16783561Y-13271283D01*
X16783561Y-13271283D02*
X16764514Y-13261759D01*
X16764514Y-13261759D02*
X16735942Y-13261759D01*
X16735942Y-13261759D02*
X16716895Y-13252235D01*
X16716895Y-13252235D02*
X16707371Y-13233187D01*
X16707371Y-13233187D02*
X16707371Y-13223664D01*
X16707371Y-13223664D02*
X16716895Y-13204616D01*
X16716895Y-13204616D02*
X16735942Y-13195092D01*
X16735942Y-13195092D02*
X16764514Y-13195092D01*
X16764514Y-13195092D02*
X16783561Y-13204616D01*
X16859752Y-13404616D02*
X16869276Y-13395092D01*
X16869276Y-13395092D02*
X16888323Y-13366521D01*
X16888323Y-13366521D02*
X16897847Y-13347473D01*
X16897847Y-13347473D02*
X16907371Y-13318902D01*
X16907371Y-13318902D02*
X16916895Y-13271283D01*
X16916895Y-13271283D02*
X16916895Y-13233187D01*
X16916895Y-13233187D02*
X16907371Y-13185568D01*
X16907371Y-13185568D02*
X16897847Y-13156997D01*
X16897847Y-13156997D02*
X16888323Y-13137949D01*
X16888323Y-13137949D02*
X16869276Y-13109378D01*
X16869276Y-13109378D02*
X16859752Y-13099854D01*
X17221657Y-13404616D02*
X17212133Y-13395092D01*
X17212133Y-13395092D02*
X17193085Y-13366521D01*
X17193085Y-13366521D02*
X17183561Y-13347473D01*
X17183561Y-13347473D02*
X17174038Y-13318902D01*
X17174038Y-13318902D02*
X17164514Y-13271283D01*
X17164514Y-13271283D02*
X17164514Y-13233187D01*
X17164514Y-13233187D02*
X17174038Y-13185568D01*
X17174038Y-13185568D02*
X17183561Y-13156997D01*
X17183561Y-13156997D02*
X17193085Y-13137949D01*
X17193085Y-13137949D02*
X17212133Y-13109378D01*
X17212133Y-13109378D02*
X17221657Y-13099854D01*
X17297847Y-13195092D02*
X17297847Y-13328426D01*
X17297847Y-13214140D02*
X17307371Y-13204616D01*
X17307371Y-13204616D02*
X17326419Y-13195092D01*
X17326419Y-13195092D02*
X17354990Y-13195092D01*
X17354990Y-13195092D02*
X17374038Y-13204616D01*
X17374038Y-13204616D02*
X17383561Y-13223664D01*
X17383561Y-13223664D02*
X17383561Y-13328426D01*
X17507371Y-13328426D02*
X17488323Y-13318902D01*
X17488323Y-13318902D02*
X17478800Y-13309378D01*
X17478800Y-13309378D02*
X17469276Y-13290330D01*
X17469276Y-13290330D02*
X17469276Y-13233187D01*
X17469276Y-13233187D02*
X17478800Y-13214140D01*
X17478800Y-13214140D02*
X17488323Y-13204616D01*
X17488323Y-13204616D02*
X17507371Y-13195092D01*
X17507371Y-13195092D02*
X17535942Y-13195092D01*
X17535942Y-13195092D02*
X17554990Y-13204616D01*
X17554990Y-13204616D02*
X17564514Y-13214140D01*
X17564514Y-13214140D02*
X17574038Y-13233187D01*
X17574038Y-13233187D02*
X17574038Y-13290330D01*
X17574038Y-13290330D02*
X17564514Y-13309378D01*
X17564514Y-13309378D02*
X17554990Y-13318902D01*
X17554990Y-13318902D02*
X17535942Y-13328426D01*
X17535942Y-13328426D02*
X17507371Y-13328426D01*
X17631181Y-13195092D02*
X17707371Y-13195092D01*
X17659752Y-13128426D02*
X17659752Y-13299854D01*
X17659752Y-13299854D02*
X17669276Y-13318902D01*
X17669276Y-13318902D02*
X17688323Y-13328426D01*
X17688323Y-13328426D02*
X17707371Y-13328426D01*
X17926419Y-13195092D02*
X17926419Y-13395092D01*
X17926419Y-13204616D02*
X17945466Y-13195092D01*
X17945466Y-13195092D02*
X17983562Y-13195092D01*
X17983562Y-13195092D02*
X18002609Y-13204616D01*
X18002609Y-13204616D02*
X18012133Y-13214140D01*
X18012133Y-13214140D02*
X18021657Y-13233187D01*
X18021657Y-13233187D02*
X18021657Y-13290330D01*
X18021657Y-13290330D02*
X18012133Y-13309378D01*
X18012133Y-13309378D02*
X18002609Y-13318902D01*
X18002609Y-13318902D02*
X17983562Y-13328426D01*
X17983562Y-13328426D02*
X17945466Y-13328426D01*
X17945466Y-13328426D02*
X17926419Y-13318902D01*
X18135942Y-13328426D02*
X18116895Y-13318902D01*
X18116895Y-13318902D02*
X18107371Y-13299854D01*
X18107371Y-13299854D02*
X18107371Y-13128426D01*
X18297847Y-13328426D02*
X18297847Y-13223664D01*
X18297847Y-13223664D02*
X18288323Y-13204616D01*
X18288323Y-13204616D02*
X18269276Y-13195092D01*
X18269276Y-13195092D02*
X18231181Y-13195092D01*
X18231181Y-13195092D02*
X18212133Y-13204616D01*
X18297847Y-13318902D02*
X18278800Y-13328426D01*
X18278800Y-13328426D02*
X18231181Y-13328426D01*
X18231181Y-13328426D02*
X18212133Y-13318902D01*
X18212133Y-13318902D02*
X18202609Y-13299854D01*
X18202609Y-13299854D02*
X18202609Y-13280806D01*
X18202609Y-13280806D02*
X18212133Y-13261759D01*
X18212133Y-13261759D02*
X18231181Y-13252235D01*
X18231181Y-13252235D02*
X18278800Y-13252235D01*
X18278800Y-13252235D02*
X18297847Y-13242711D01*
X18364514Y-13195092D02*
X18440704Y-13195092D01*
X18393085Y-13128426D02*
X18393085Y-13299854D01*
X18393085Y-13299854D02*
X18402609Y-13318902D01*
X18402609Y-13318902D02*
X18421657Y-13328426D01*
X18421657Y-13328426D02*
X18440704Y-13328426D01*
X18583562Y-13318902D02*
X18564514Y-13328426D01*
X18564514Y-13328426D02*
X18526419Y-13328426D01*
X18526419Y-13328426D02*
X18507371Y-13318902D01*
X18507371Y-13318902D02*
X18497847Y-13299854D01*
X18497847Y-13299854D02*
X18497847Y-13223664D01*
X18497847Y-13223664D02*
X18507371Y-13204616D01*
X18507371Y-13204616D02*
X18526419Y-13195092D01*
X18526419Y-13195092D02*
X18564514Y-13195092D01*
X18564514Y-13195092D02*
X18583562Y-13204616D01*
X18583562Y-13204616D02*
X18593085Y-13223664D01*
X18593085Y-13223664D02*
X18593085Y-13242711D01*
X18593085Y-13242711D02*
X18497847Y-13261759D01*
X18764514Y-13328426D02*
X18764514Y-13128426D01*
X18764514Y-13318902D02*
X18745466Y-13328426D01*
X18745466Y-13328426D02*
X18707371Y-13328426D01*
X18707371Y-13328426D02*
X18688323Y-13318902D01*
X18688323Y-13318902D02*
X18678800Y-13309378D01*
X18678800Y-13309378D02*
X18669276Y-13290330D01*
X18669276Y-13290330D02*
X18669276Y-13233187D01*
X18669276Y-13233187D02*
X18678800Y-13214140D01*
X18678800Y-13214140D02*
X18688323Y-13204616D01*
X18688323Y-13204616D02*
X18707371Y-13195092D01*
X18707371Y-13195092D02*
X18745466Y-13195092D01*
X18745466Y-13195092D02*
X18764514Y-13204616D01*
X18840704Y-13404616D02*
X18850228Y-13395092D01*
X18850228Y-13395092D02*
X18869276Y-13366521D01*
X18869276Y-13366521D02*
X18878800Y-13347473D01*
X18878800Y-13347473D02*
X18888323Y-13318902D01*
X18888323Y-13318902D02*
X18897847Y-13271283D01*
X18897847Y-13271283D02*
X18897847Y-13233187D01*
X18897847Y-13233187D02*
X18888323Y-13185568D01*
X18888323Y-13185568D02*
X18878800Y-13156997D01*
X18878800Y-13156997D02*
X18869276Y-13137949D01*
X18869276Y-13137949D02*
X18850228Y-13109378D01*
X18850228Y-13109378D02*
X18840704Y-13099854D01*
M02*
