%TF.GenerationSoftware,KiCad,Pcbnew,9.0.1*%
%TF.CreationDate,2026-09-09T17:21:39+07:00*%
%TF.ProjectId,Master_Hand_Kicad,4d617374-6572-45f4-9861-6e645f4b6963,+ (Unreleased)*%
%TF.SameCoordinates,Original*%
%TF.FileFunction,Drillmap*%
%TF.FilePolarity,Positive*%
%FSLAX45Y45*%
G04 Gerber Fmt 4.5, Leading zero omitted, Abs format (unit mm)*
G04 Created by KiCad (PCBNEW 9.0.1) date 2026-09-09 17:21:39*
%MOMM*%
%LPD*%
G01*
G04 APERTURE LIST*
%ADD10C,0.150000*%
%ADD11C,0.200000*%
%ADD12C,0.100000*%
%ADD13C,0.170002*%
G04 APERTURE END LIST*
D10*
X14198522Y-5977106D02*
X16086302Y-5744825D01*
X17994809Y-5744454D02*
X19478711Y-5926295D01*
X13330373Y-12325442D02*
X18095184Y-12325442D01*
X13330000Y-12325000D02*
X13196210Y-12017899D01*
X12330374Y-6777371D02*
G75*
G02*
X12647230Y-6392790I427866J-29699D01*
G01*
X13196210Y-12017899D02*
G75*
G02*
X13002567Y-11524157I-29030J273459D01*
G01*
X19478711Y-5926295D02*
G75*
G02*
X19834126Y-6218348I-52301J-425935D01*
G01*
X18095184Y-12325442D02*
X18095184Y-11944442D01*
X16092369Y-5744454D02*
X17994809Y-5744454D01*
X16894043Y-8644347D02*
X18095184Y-11944442D01*
X19955024Y-6631173D02*
G75*
G02*
X19938060Y-6826892I-237524J-78007D01*
G01*
X19740991Y-7170010D02*
G75*
G02*
X19875276Y-7670000I-23801J-274420D01*
G01*
X16894043Y-8644347D02*
X19572626Y-7670000D01*
X19955024Y-6631173D02*
X19834126Y-6218348D01*
X19740952Y-7170461D02*
X19938061Y-6826893D01*
X16086302Y-5744825D02*
G75*
G02*
X16092369Y-5744454I6068J-49505D01*
G01*
X12647230Y-6392792D02*
X14198522Y-5977106D01*
X19572626Y-7670000D02*
X19875276Y-7670000D01*
X12306753Y-7876175D02*
G75*
G02*
X12330375Y-6777371I11495737J302515D01*
G01*
X12333753Y-8417398D02*
G75*
G02*
X12306753Y-7876174I33428J272953D01*
G01*
X13002560Y-11524148D02*
G75*
G02*
X12333753Y-8417398I10800220J3950388D01*
G01*
D11*
D12*
X12477500Y-7727500D02*
X12502500Y-7752500D01*
X12502500Y-7727500D02*
X12477500Y-7752500D01*
X12477500Y-7818500D02*
X12502500Y-7843500D01*
X12502500Y-7818500D02*
X12477500Y-7843500D01*
X12503500Y-6972500D02*
X12528500Y-6997500D01*
X12528500Y-6972500D02*
X12503500Y-6997500D01*
X12503500Y-7063500D02*
X12528500Y-7088500D01*
X12528500Y-7063500D02*
X12503500Y-7088500D01*
X12528500Y-6508500D02*
X12553500Y-6533500D01*
X12553500Y-6508500D02*
X12528500Y-6533500D01*
X12528500Y-6590500D02*
X12553500Y-6615500D01*
X12553500Y-6590500D02*
X12528500Y-6615500D01*
X12559500Y-7727500D02*
X12584500Y-7752500D01*
X12584500Y-7727500D02*
X12559500Y-7752500D01*
X12559500Y-7818500D02*
X12584500Y-7843500D01*
X12584500Y-7818500D02*
X12559500Y-7843500D01*
X12585500Y-6972500D02*
X12610500Y-6997500D01*
X12610500Y-6972500D02*
X12585500Y-6997500D01*
X12585500Y-7063500D02*
X12610500Y-7088500D01*
X12610500Y-7063500D02*
X12585500Y-7088500D01*
X12619500Y-6508500D02*
X12644500Y-6533500D01*
X12644500Y-6508500D02*
X12619500Y-6533500D01*
X12619500Y-6590500D02*
X12644500Y-6615500D01*
X12644500Y-6590500D02*
X12619500Y-6615500D01*
X12645750Y-9103500D02*
X12670750Y-9128500D01*
X12670750Y-9103500D02*
X12645750Y-9128500D01*
X12649750Y-9253500D02*
X12674750Y-9278500D01*
X12674750Y-9253500D02*
X12649750Y-9278500D01*
X12734500Y-8466500D02*
X12759500Y-8491500D01*
X12759500Y-8466500D02*
X12734500Y-8491500D01*
X12738500Y-8616500D02*
X12763500Y-8641500D01*
X12763500Y-8616500D02*
X12738500Y-8641500D01*
X12749750Y-9103500D02*
X12774750Y-9128500D01*
X12774750Y-9103500D02*
X12749750Y-9128500D01*
X12749750Y-9253500D02*
X12774750Y-9278500D01*
X12774750Y-9253500D02*
X12749750Y-9278500D01*
X12838500Y-8466500D02*
X12863500Y-8491500D01*
X12863500Y-8466500D02*
X12838500Y-8491500D01*
X12838500Y-8616500D02*
X12863500Y-8641500D01*
X12863500Y-8616500D02*
X12838500Y-8641500D01*
X12934500Y-10645500D02*
X12959500Y-10670500D01*
X12959500Y-10645500D02*
X12934500Y-10670500D01*
X12938500Y-10795500D02*
X12963500Y-10820500D01*
X12963500Y-10795500D02*
X12938500Y-10820500D01*
X12966500Y-7561500D02*
X12991500Y-7586500D01*
X12991500Y-7561500D02*
X12966500Y-7586500D01*
X12966500Y-7686500D02*
X12991500Y-7711500D01*
X12991500Y-7686500D02*
X12966500Y-7711500D01*
X12966500Y-7811500D02*
X12991500Y-7836500D01*
X12991500Y-7811500D02*
X12966500Y-7836500D01*
X12984500Y-6355000D02*
X13009500Y-6380000D01*
X13009500Y-6355000D02*
X12984500Y-6380000D01*
X13034750Y-9183500D02*
X13059750Y-9208500D01*
X13059750Y-9183500D02*
X13034750Y-9208500D01*
X13038500Y-10645500D02*
X13063500Y-10670500D01*
X13063500Y-10645500D02*
X13038500Y-10670500D01*
X13038500Y-10795500D02*
X13063500Y-10820500D01*
X13063500Y-10795500D02*
X13038500Y-10820500D01*
X13137771Y-7322625D02*
X13162771Y-7347625D01*
X13162771Y-7322625D02*
X13137771Y-7347625D01*
X13139500Y-11268500D02*
X13164500Y-11293500D01*
X13164500Y-11268500D02*
X13139500Y-11293500D01*
X13143500Y-11418500D02*
X13168500Y-11443500D01*
X13168500Y-11418500D02*
X13143500Y-11443500D01*
X13180050Y-6819798D02*
X13205050Y-6844798D01*
X13205050Y-6819798D02*
X13180050Y-6844798D01*
X13180050Y-6958050D02*
X13205050Y-6983050D01*
X13205050Y-6958050D02*
X13180050Y-6983050D01*
X13243500Y-11268500D02*
X13268500Y-11293500D01*
X13268500Y-11268500D02*
X13243500Y-11293500D01*
X13243500Y-11418500D02*
X13268500Y-11443500D01*
X13268500Y-11418500D02*
X13243500Y-11443500D01*
X13266750Y-9317500D02*
X13291750Y-9342500D01*
X13291750Y-9317500D02*
X13266750Y-9342500D01*
X13267500Y-7436500D02*
X13292500Y-7461500D01*
X13292500Y-7436500D02*
X13267500Y-7461500D01*
X13269500Y-8079500D02*
X13294500Y-8104500D01*
X13294500Y-8079500D02*
X13269500Y-8104500D01*
X13269500Y-8170500D02*
X13294500Y-8195500D01*
X13294500Y-8170500D02*
X13269500Y-8195500D01*
X13351500Y-8079500D02*
X13376500Y-8104500D01*
X13376500Y-8079500D02*
X13351500Y-8104500D01*
X13351500Y-8170500D02*
X13376500Y-8195500D01*
X13376500Y-8170500D02*
X13351500Y-8195500D01*
X13367500Y-7710500D02*
X13392500Y-7735500D01*
X13392500Y-7710500D02*
X13367500Y-7735500D01*
X13367500Y-7801500D02*
X13392500Y-7826500D01*
X13392500Y-7801500D02*
X13367500Y-7826500D01*
X13379500Y-7038849D02*
X13404500Y-7063849D01*
X13404500Y-7038849D02*
X13379500Y-7063849D01*
X13379500Y-7188849D02*
X13404500Y-7213849D01*
X13404500Y-7188849D02*
X13379500Y-7213849D01*
X13379500Y-6888849D02*
X13404500Y-6913849D01*
X13404500Y-6888849D02*
X13379500Y-6913849D01*
X13398500Y-6545000D02*
X13423500Y-6570000D01*
X13423500Y-6545000D02*
X13398500Y-6570000D01*
X13399000Y-6414500D02*
X13424000Y-6439500D01*
X13424000Y-6414500D02*
X13399000Y-6439500D01*
X13401500Y-6622500D02*
X13426500Y-6647500D01*
X13426500Y-6622500D02*
X13401500Y-6647500D01*
X13449500Y-7710500D02*
X13474500Y-7735500D01*
X13474500Y-7710500D02*
X13449500Y-7735500D01*
X13449500Y-7801500D02*
X13474500Y-7826500D01*
X13474500Y-7801500D02*
X13449500Y-7826500D01*
X13479750Y-9544500D02*
X13504750Y-9569500D01*
X13504750Y-9544500D02*
X13479750Y-9569500D01*
X13492500Y-6738500D02*
X13517500Y-6763500D01*
X13517500Y-6738500D02*
X13492500Y-6763500D01*
X13611500Y-8416500D02*
X13636500Y-8441500D01*
X13636500Y-8416500D02*
X13611500Y-8441500D01*
X13615500Y-8566500D02*
X13640500Y-8591500D01*
X13640500Y-8566500D02*
X13615500Y-8591500D01*
X13652500Y-11122500D02*
X13677500Y-11147500D01*
X13677500Y-11122500D02*
X13652500Y-11147500D01*
X13656500Y-11272500D02*
X13681500Y-11297500D01*
X13681500Y-11272500D02*
X13656500Y-11297500D01*
X13675500Y-9218500D02*
X13700500Y-9243500D01*
X13700500Y-9218500D02*
X13675500Y-9243500D01*
X13711500Y-8755500D02*
X13736500Y-8780500D01*
X13736500Y-8755500D02*
X13711500Y-8780500D01*
X13715500Y-8416500D02*
X13740500Y-8441500D01*
X13740500Y-8416500D02*
X13715500Y-8441500D01*
X13715500Y-8566500D02*
X13740500Y-8591500D01*
X13740500Y-8566500D02*
X13715500Y-8591500D01*
X13731500Y-11775500D02*
X13756500Y-11800500D01*
X13756500Y-11775500D02*
X13731500Y-11800500D01*
X13731500Y-11879500D02*
X13756500Y-11904500D01*
X13756500Y-11879500D02*
X13731500Y-11904500D01*
X13733000Y-7561500D02*
X13758000Y-7586500D01*
X13758000Y-7561500D02*
X13733000Y-7586500D01*
X13733000Y-7686500D02*
X13758000Y-7711500D01*
X13758000Y-7686500D02*
X13733000Y-7711500D01*
X13733000Y-7811500D02*
X13758000Y-7836500D01*
X13758000Y-7811500D02*
X13733000Y-7836500D01*
X13756500Y-11122500D02*
X13781500Y-11147500D01*
X13781500Y-11122500D02*
X13756500Y-11147500D01*
X13756500Y-11272500D02*
X13781500Y-11297500D01*
X13781500Y-11272500D02*
X13756500Y-11297500D01*
X13803500Y-11024500D02*
X13828500Y-11049500D01*
X13828500Y-11024500D02*
X13803500Y-11049500D01*
X13881500Y-11775500D02*
X13906500Y-11800500D01*
X13906500Y-11775500D02*
X13881500Y-11800500D01*
X13881500Y-11875500D02*
X13906500Y-11900500D01*
X13906500Y-11875500D02*
X13881500Y-11900500D01*
X14008900Y-7169950D02*
X14033900Y-7194950D01*
X14033900Y-7169950D02*
X14008900Y-7194950D01*
X14008900Y-7296950D02*
X14033900Y-7321950D01*
X14033900Y-7296950D02*
X14008900Y-7321950D01*
X14028500Y-11772500D02*
X14053500Y-11797500D01*
X14053500Y-11772500D02*
X14028500Y-11797500D01*
X14028500Y-11876500D02*
X14053500Y-11901500D01*
X14053500Y-11876500D02*
X14028500Y-11901500D01*
X14031500Y-10706500D02*
X14056500Y-10731500D01*
X14056500Y-10706500D02*
X14031500Y-10731500D01*
X14061500Y-10236500D02*
X14086500Y-10261500D01*
X14086500Y-10236500D02*
X14061500Y-10261500D01*
X14178500Y-11772500D02*
X14203500Y-11797500D01*
X14203500Y-11772500D02*
X14178500Y-11797500D01*
X14178500Y-11872500D02*
X14203500Y-11897500D01*
X14203500Y-11872500D02*
X14178500Y-11897500D01*
X14283500Y-10711500D02*
X14308500Y-10736500D01*
X14308500Y-10711500D02*
X14283500Y-10736500D01*
X14292500Y-9513500D02*
X14317500Y-9538500D01*
X14317500Y-9513500D02*
X14292500Y-9538500D01*
X14332500Y-11772500D02*
X14357500Y-11797500D01*
X14357500Y-11772500D02*
X14332500Y-11797500D01*
X14332500Y-11876500D02*
X14357500Y-11901500D01*
X14357500Y-11876500D02*
X14332500Y-11901500D01*
X14340700Y-7899500D02*
X14365700Y-7924500D01*
X14365700Y-7899500D02*
X14340700Y-7924500D01*
X14371500Y-7416500D02*
X14396500Y-7441500D01*
X14396500Y-7416500D02*
X14371500Y-7441500D01*
X14391515Y-6153485D02*
X14416515Y-6178485D01*
X14416515Y-6153485D02*
X14391515Y-6178485D01*
X14482500Y-11772500D02*
X14507500Y-11797500D01*
X14507500Y-11772500D02*
X14482500Y-11797500D01*
X14482500Y-11872500D02*
X14507500Y-11897500D01*
X14507500Y-11872500D02*
X14482500Y-11897500D01*
X14507559Y-6147559D02*
X14532559Y-6172559D01*
X14532559Y-6147559D02*
X14507559Y-6172559D01*
X14683300Y-6869700D02*
X14708300Y-6894700D01*
X14708300Y-6869700D02*
X14683300Y-6894700D01*
X14692500Y-7423500D02*
X14717500Y-7448500D01*
X14717500Y-7423500D02*
X14692500Y-7448500D01*
X14741900Y-6488700D02*
X14766900Y-6513700D01*
X14766900Y-6488700D02*
X14741900Y-6513700D01*
X14741900Y-7042950D02*
X14766900Y-7067950D01*
X14766900Y-7042950D02*
X14741900Y-7067950D01*
X14836500Y-11787333D02*
X14861500Y-11812333D01*
X14861500Y-11787333D02*
X14836500Y-11812333D01*
X14851000Y-10234996D02*
X14876000Y-10259996D01*
X14876000Y-10234996D02*
X14851000Y-10259996D01*
X14851000Y-9034995D02*
X14876000Y-9059995D01*
X14876000Y-9034995D02*
X14851000Y-9059995D01*
X14851000Y-7834995D02*
X14876000Y-7859995D01*
X14876000Y-7834995D02*
X14851000Y-7859995D01*
X14862500Y-7281500D02*
X14887500Y-7306500D01*
X14887500Y-7281500D02*
X14862500Y-7306500D01*
X14923711Y-10232996D02*
X14948711Y-10257996D01*
X14948711Y-10232996D02*
X14923711Y-10257996D01*
X14923711Y-9032995D02*
X14948711Y-9057995D01*
X14948711Y-9032995D02*
X14923711Y-9057995D01*
X14923711Y-7832995D02*
X14948711Y-7857995D01*
X14948711Y-7832995D02*
X14923711Y-7857995D01*
X14938500Y-6677500D02*
X14963500Y-6702500D01*
X14963500Y-6677500D02*
X14938500Y-6702500D01*
X15024500Y-6506500D02*
X15049500Y-6531500D01*
X15049500Y-6506500D02*
X15024500Y-6531500D01*
X15025500Y-7045500D02*
X15050500Y-7070500D01*
X15050500Y-7045500D02*
X15025500Y-7070500D01*
X15047500Y-8810000D02*
X15072500Y-8835000D01*
X15072500Y-8810000D02*
X15047500Y-8835000D01*
X15047500Y-8910000D02*
X15072500Y-8935000D01*
X15072500Y-8910000D02*
X15047500Y-8935000D01*
X15057500Y-10187500D02*
X15082500Y-10212500D01*
X15082500Y-10187500D02*
X15057500Y-10212500D01*
X15059500Y-10027500D02*
X15084500Y-10052500D01*
X15084500Y-10027500D02*
X15059500Y-10052500D01*
X15066500Y-11981500D02*
X15091500Y-12006500D01*
X15091500Y-11981500D02*
X15066500Y-12006500D01*
X15066500Y-12214500D02*
X15091500Y-12239500D01*
X15091500Y-12214500D02*
X15066500Y-12239500D01*
X15095500Y-10587500D02*
X15120500Y-10612500D01*
X15120500Y-10587500D02*
X15095500Y-10612500D01*
X15095500Y-9387500D02*
X15120500Y-9412500D01*
X15120500Y-9387500D02*
X15095500Y-9412500D01*
X15095500Y-8187500D02*
X15120500Y-8212500D01*
X15120500Y-8187500D02*
X15095500Y-8212500D01*
X15096097Y-10667517D02*
X15121097Y-10692517D01*
X15121097Y-10667517D02*
X15096097Y-10692517D01*
X15096097Y-9467517D02*
X15121097Y-9492517D01*
X15121097Y-9467517D02*
X15096097Y-9492517D01*
X15096097Y-8267517D02*
X15121097Y-8292517D01*
X15121097Y-8267517D02*
X15096097Y-8292517D01*
X15124669Y-9158558D02*
X15149669Y-9183558D01*
X15149669Y-9158558D02*
X15124669Y-9183558D01*
X15125342Y-7958533D02*
X15150342Y-7983533D01*
X15150342Y-7958533D02*
X15125342Y-7983533D01*
X15127500Y-10358500D02*
X15152500Y-10383500D01*
X15152500Y-10358500D02*
X15127500Y-10383500D01*
X15127500Y-10426500D02*
X15152500Y-10451500D01*
X15152500Y-10426500D02*
X15127500Y-10451500D01*
X15127500Y-9226500D02*
X15152500Y-9251500D01*
X15152500Y-9226500D02*
X15127500Y-9251500D01*
X15127500Y-8026499D02*
X15152500Y-8051499D01*
X15152500Y-8026499D02*
X15127500Y-8051499D01*
X15148500Y-8808500D02*
X15173500Y-8833500D01*
X15173500Y-8808500D02*
X15148500Y-8833500D01*
X15149500Y-8910500D02*
X15174500Y-8935500D01*
X15174500Y-8910500D02*
X15149500Y-8935500D01*
X15164066Y-10665483D02*
X15189066Y-10690483D01*
X15189066Y-10665483D02*
X15164066Y-10690483D01*
X15164067Y-9465483D02*
X15189067Y-9490483D01*
X15189067Y-9465483D02*
X15164067Y-9490483D01*
X15164067Y-8265482D02*
X15189067Y-8290482D01*
X15189067Y-8265482D02*
X15164067Y-8290482D01*
X15207500Y-10187500D02*
X15232500Y-10212500D01*
X15232500Y-10187500D02*
X15207500Y-10212500D01*
X15209500Y-10023500D02*
X15234500Y-10048500D01*
X15234500Y-10023500D02*
X15209500Y-10048500D01*
X15216500Y-11787333D02*
X15241500Y-11812333D01*
X15241500Y-11787333D02*
X15216500Y-11812333D01*
X15216500Y-11856500D02*
X15241500Y-11881500D01*
X15241500Y-11856500D02*
X15216500Y-11881500D01*
X15216500Y-11926500D02*
X15241500Y-11951500D01*
X15241500Y-11926500D02*
X15216500Y-11951500D01*
X15217500Y-10796960D02*
X15242500Y-10821960D01*
X15242500Y-10796960D02*
X15217500Y-10821960D01*
X15217500Y-8396960D02*
X15242500Y-8421960D01*
X15242500Y-8396960D02*
X15217500Y-8421960D01*
X15218500Y-9528500D02*
X15243500Y-9553500D01*
X15243500Y-9528500D02*
X15218500Y-9553500D01*
X15226500Y-8990500D02*
X15251500Y-9015500D01*
X15251500Y-8990500D02*
X15226500Y-9015500D01*
X15284578Y-7511500D02*
X15309578Y-7536500D01*
X15309578Y-7511500D02*
X15284578Y-7536500D01*
X15285500Y-6224627D02*
X15310500Y-6249627D01*
X15310500Y-6224627D02*
X15285500Y-6249627D01*
X15307500Y-10697500D02*
X15332500Y-10722500D01*
X15332500Y-10697500D02*
X15307500Y-10722500D01*
X15321500Y-6410500D02*
X15346500Y-6435500D01*
X15346500Y-6410500D02*
X15321500Y-6435500D01*
X15321500Y-6810500D02*
X15346500Y-6835500D01*
X15346500Y-6810500D02*
X15321500Y-6835500D01*
X15322500Y-6310500D02*
X15347500Y-6335500D01*
X15347500Y-6310500D02*
X15322500Y-6335500D01*
X15322500Y-6510500D02*
X15347500Y-6535500D01*
X15347500Y-6510500D02*
X15322500Y-6535500D01*
X15322500Y-6710500D02*
X15347500Y-6735500D01*
X15347500Y-6710500D02*
X15322500Y-6735500D01*
X15322500Y-6910500D02*
X15347500Y-6935500D01*
X15347500Y-6910500D02*
X15322500Y-6935500D01*
X15367449Y-6460627D02*
X15392449Y-6485627D01*
X15392449Y-6460627D02*
X15367449Y-6485627D01*
X15367449Y-6660627D02*
X15392449Y-6685627D01*
X15392449Y-6660627D02*
X15367449Y-6685627D01*
X15367449Y-6860627D02*
X15392449Y-6885627D01*
X15392449Y-6860627D02*
X15367449Y-6885627D01*
X15368936Y-6360176D02*
X15393936Y-6385176D01*
X15393936Y-6360176D02*
X15368936Y-6385176D01*
X15368936Y-6760176D02*
X15393936Y-6785176D01*
X15393936Y-6760176D02*
X15368936Y-6785176D01*
X15368936Y-6960176D02*
X15393936Y-6985176D01*
X15393936Y-6960176D02*
X15368936Y-6985176D01*
X15378718Y-7506400D02*
X15403718Y-7531400D01*
X15403718Y-7506400D02*
X15378718Y-7531400D01*
X15394441Y-7406441D02*
X15419441Y-7431441D01*
X15419441Y-7406441D02*
X15394441Y-7431441D01*
X15484500Y-6291500D02*
X15509500Y-6316500D01*
X15509500Y-6291500D02*
X15484500Y-6316500D01*
X15521678Y-5964691D02*
X15546678Y-5989691D01*
X15546678Y-5964691D02*
X15521678Y-5989691D01*
X15546500Y-8991500D02*
X15571500Y-9016500D01*
X15571500Y-8991500D02*
X15546500Y-9016500D01*
X15551500Y-7140500D02*
X15576500Y-7165500D01*
X15576500Y-7140500D02*
X15551500Y-7165500D01*
X15575500Y-8436500D02*
X15600500Y-8461500D01*
X15600500Y-8436500D02*
X15575500Y-8461500D01*
X15577500Y-10709500D02*
X15602500Y-10734500D01*
X15602500Y-10709500D02*
X15577500Y-10734500D01*
X15583500Y-9509500D02*
X15608500Y-9534500D01*
X15608500Y-9509500D02*
X15583500Y-9534500D01*
X15584500Y-8309500D02*
X15609500Y-8334500D01*
X15609500Y-8309500D02*
X15584500Y-8334500D01*
X15601004Y-5954326D02*
X15626004Y-5979326D01*
X15626004Y-5954326D02*
X15601004Y-5979326D01*
X15615000Y-6450000D02*
X15640000Y-6475000D01*
X15640000Y-6450000D02*
X15615000Y-6475000D01*
X15621500Y-6262500D02*
X15646500Y-6287500D01*
X15646500Y-6262500D02*
X15621500Y-6287500D01*
X15621500Y-7109500D02*
X15646500Y-7134500D01*
X15646500Y-7109500D02*
X15621500Y-7134500D01*
X15671176Y-7063064D02*
X15696176Y-7088064D01*
X15696176Y-7063064D02*
X15671176Y-7088064D01*
X15671627Y-7903627D02*
X15696627Y-7928627D01*
X15696627Y-7903627D02*
X15671627Y-7928627D01*
X15671824Y-6309936D02*
X15696824Y-6334936D01*
X15696824Y-6309936D02*
X15671824Y-6334936D01*
X15721500Y-6263500D02*
X15746500Y-6288500D01*
X15746500Y-6263500D02*
X15721500Y-6288500D01*
X15721500Y-7110500D02*
X15746500Y-7135500D01*
X15746500Y-7110500D02*
X15721500Y-7135500D01*
X15746500Y-12211500D02*
X15771500Y-12236500D01*
X15771500Y-12211500D02*
X15746500Y-12236500D01*
X15755500Y-5969500D02*
X15780500Y-5994500D01*
X15780500Y-5969500D02*
X15755500Y-5994500D01*
X15771373Y-6308449D02*
X15796373Y-6333449D01*
X15796373Y-6308449D02*
X15771373Y-6333449D01*
X15771627Y-7064550D02*
X15796627Y-7089550D01*
X15796627Y-7064550D02*
X15771627Y-7089550D01*
X15821500Y-6262500D02*
X15846500Y-6287500D01*
X15846500Y-6262500D02*
X15821500Y-6287500D01*
X15821500Y-7109500D02*
X15846500Y-7134500D01*
X15846500Y-7109500D02*
X15821500Y-7134500D01*
X15871824Y-6309936D02*
X15896824Y-6334936D01*
X15896824Y-6309936D02*
X15871824Y-6334936D01*
X15889665Y-11931214D02*
X15914665Y-11956214D01*
X15914665Y-11931214D02*
X15889665Y-11956214D01*
X15891500Y-11792333D02*
X15916500Y-11817333D01*
X15916500Y-11792333D02*
X15891500Y-11817333D01*
X15891500Y-11861500D02*
X15916500Y-11886500D01*
X15916500Y-11861500D02*
X15891500Y-11886500D01*
X15906500Y-7507500D02*
X15931500Y-7532500D01*
X15931500Y-7507500D02*
X15906500Y-7532500D01*
X15921500Y-7110500D02*
X15946500Y-7135500D01*
X15946500Y-7110500D02*
X15921500Y-7135500D01*
X15971627Y-7064550D02*
X15996627Y-7089550D01*
X15996627Y-7064550D02*
X15971627Y-7089550D01*
X16019000Y-5988145D02*
X16044000Y-6013145D01*
X16044000Y-5988145D02*
X16019000Y-6013145D01*
X16021500Y-7109500D02*
X16046500Y-7134500D01*
X16046500Y-7109500D02*
X16021500Y-7134500D01*
X16032500Y-6687500D02*
X16057500Y-6712500D01*
X16057500Y-6687500D02*
X16032500Y-6712500D01*
X16047500Y-9559121D02*
X16072500Y-9584121D01*
X16072500Y-9559121D02*
X16047500Y-9584121D01*
X16048500Y-10681500D02*
X16073500Y-10706500D01*
X16073500Y-10681500D02*
X16048500Y-10706500D01*
X16049000Y-6560176D02*
X16074000Y-6585176D01*
X16074000Y-6560176D02*
X16049000Y-6585176D01*
X16065500Y-8321382D02*
X16090500Y-8346382D01*
X16090500Y-8321382D02*
X16065500Y-8346382D01*
X16070546Y-5943057D02*
X16095546Y-5968057D01*
X16095546Y-5943057D02*
X16070546Y-5968057D01*
X16121500Y-6262500D02*
X16146500Y-6287500D01*
X16146500Y-6262500D02*
X16121500Y-6287500D01*
X16124064Y-6610176D02*
X16149064Y-6635176D01*
X16149064Y-6610176D02*
X16124064Y-6635176D01*
X16127562Y-5906000D02*
X16152562Y-5931000D01*
X16152562Y-5906000D02*
X16127562Y-5931000D01*
X16132800Y-7831999D02*
X16157800Y-7856999D01*
X16157800Y-7831999D02*
X16132800Y-7856999D01*
X16137800Y-9030599D02*
X16162800Y-9055599D01*
X16162800Y-9030599D02*
X16137800Y-9055599D01*
X16142800Y-10230957D02*
X16167800Y-10255957D01*
X16167800Y-10230957D02*
X16142800Y-10255957D01*
X16170500Y-6410500D02*
X16195500Y-6435500D01*
X16195500Y-6410500D02*
X16170500Y-6435500D01*
X16170500Y-7060500D02*
X16195500Y-7085500D01*
X16195500Y-7060500D02*
X16170500Y-7085500D01*
X16171500Y-6660500D02*
X16196500Y-6685500D01*
X16196500Y-6660500D02*
X16171500Y-6685500D01*
X16171500Y-6760500D02*
X16196500Y-6785500D01*
X16196500Y-6760500D02*
X16171500Y-6785500D01*
X16172500Y-6910176D02*
X16197500Y-6935176D01*
X16197500Y-6910176D02*
X16172500Y-6935176D01*
X16205511Y-7829999D02*
X16230511Y-7854999D01*
X16230511Y-7829999D02*
X16205511Y-7854999D01*
X16210511Y-9028599D02*
X16235511Y-9053599D01*
X16235511Y-9028599D02*
X16210511Y-9053599D01*
X16215511Y-10228957D02*
X16240511Y-10253957D01*
X16240511Y-10228957D02*
X16215511Y-10253957D01*
X16246500Y-6099559D02*
X16271500Y-6124559D01*
X16271500Y-6099559D02*
X16246500Y-6124559D01*
X16250500Y-10304500D02*
X16275500Y-10329500D01*
X16275500Y-10304500D02*
X16250500Y-10329500D01*
X16255000Y-5950000D02*
X16280000Y-5975000D01*
X16280000Y-5950000D02*
X16255000Y-5975000D01*
X16284500Y-7220500D02*
X16309500Y-7245500D01*
X16309500Y-7220500D02*
X16284500Y-7245500D01*
X16321500Y-10129500D02*
X16346500Y-10154500D01*
X16346500Y-10129500D02*
X16321500Y-10154500D01*
X16321500Y-10220500D02*
X16346500Y-10245500D01*
X16346500Y-10220500D02*
X16321500Y-10245500D01*
X16329167Y-5950000D02*
X16354167Y-5975000D01*
X16354167Y-5950000D02*
X16329167Y-5975000D01*
X16377300Y-8184504D02*
X16402300Y-8209504D01*
X16402300Y-8184504D02*
X16377300Y-8209504D01*
X16377897Y-8264521D02*
X16402897Y-8289521D01*
X16402897Y-8264521D02*
X16377897Y-8289521D01*
X16382300Y-9383104D02*
X16407300Y-9408104D01*
X16407300Y-9383104D02*
X16382300Y-9408104D01*
X16382896Y-9463121D02*
X16407896Y-9488121D01*
X16407896Y-9463121D02*
X16382896Y-9488121D01*
X16386500Y-10035500D02*
X16411500Y-10060500D01*
X16411500Y-10035500D02*
X16386500Y-10060500D01*
X16387300Y-10583461D02*
X16412300Y-10608461D01*
X16412300Y-10583461D02*
X16387300Y-10608461D01*
X16387897Y-10663478D02*
X16412897Y-10688478D01*
X16412897Y-10663478D02*
X16387897Y-10688478D01*
X16403333Y-5950000D02*
X16428333Y-5975000D01*
X16428333Y-5950000D02*
X16403333Y-5975000D01*
X16403500Y-10129500D02*
X16428500Y-10154500D01*
X16428500Y-10129500D02*
X16403500Y-10154500D01*
X16403500Y-10220500D02*
X16428500Y-10245500D01*
X16428500Y-10220500D02*
X16403500Y-10245500D01*
X16406979Y-7953300D02*
X16431979Y-7978300D01*
X16431979Y-7953300D02*
X16406979Y-7978300D01*
X16409300Y-8023504D02*
X16434300Y-8048504D01*
X16434300Y-8023504D02*
X16409300Y-8048504D01*
X16413285Y-9154111D02*
X16438285Y-9179111D01*
X16438285Y-9154111D02*
X16413285Y-9179111D01*
X16414300Y-9222104D02*
X16439300Y-9247104D01*
X16439300Y-9222104D02*
X16414300Y-9247104D01*
X16419300Y-10422461D02*
X16444300Y-10447461D01*
X16444300Y-10422461D02*
X16419300Y-10447461D01*
X16419500Y-10352500D02*
X16444500Y-10377500D01*
X16444500Y-10352500D02*
X16419500Y-10377500D01*
X16445867Y-8262487D02*
X16470867Y-8287487D01*
X16470867Y-8262487D02*
X16445867Y-8287487D01*
X16450866Y-9461087D02*
X16475866Y-9486087D01*
X16475866Y-9461087D02*
X16450866Y-9486087D01*
X16455866Y-10661444D02*
X16480866Y-10686444D01*
X16480866Y-10661444D02*
X16455866Y-10686444D01*
X16477500Y-5950000D02*
X16502500Y-5975000D01*
X16502500Y-5950000D02*
X16477500Y-5975000D01*
X16498500Y-6908500D02*
X16523500Y-6933500D01*
X16523500Y-6908500D02*
X16498500Y-6933500D01*
X16499300Y-8393964D02*
X16524300Y-8418964D01*
X16524300Y-8393964D02*
X16499300Y-8418964D01*
X16499500Y-6628500D02*
X16524500Y-6653500D01*
X16524500Y-6628500D02*
X16499500Y-6653500D01*
X16504300Y-9592564D02*
X16529300Y-9617564D01*
X16529300Y-9592564D02*
X16504300Y-9617564D01*
X16508500Y-11131500D02*
X16533500Y-11156500D01*
X16533500Y-11131500D02*
X16508500Y-11156500D01*
X16509300Y-10792921D02*
X16534300Y-10817921D01*
X16534300Y-10792921D02*
X16509300Y-10817921D01*
X16537500Y-8747500D02*
X16562500Y-8772500D01*
X16562500Y-8747500D02*
X16537500Y-8772500D01*
X16537500Y-8807500D02*
X16562500Y-8832500D01*
X16562500Y-8807500D02*
X16537500Y-8832500D01*
X16537500Y-8867500D02*
X16562500Y-8892500D01*
X16562500Y-8867500D02*
X16537500Y-8892500D01*
X16537500Y-8927500D02*
X16562500Y-8952500D01*
X16562500Y-8927500D02*
X16537500Y-8952500D01*
X16537500Y-8987500D02*
X16562500Y-9012500D01*
X16562500Y-8987500D02*
X16537500Y-9012500D01*
X16560000Y-9902152D02*
X16585000Y-9927152D01*
X16585000Y-9902152D02*
X16560000Y-9927152D01*
X16560000Y-10158500D02*
X16585000Y-10183500D01*
X16585000Y-10158500D02*
X16560000Y-10183500D01*
X16581500Y-5953500D02*
X16606500Y-5978500D01*
X16606500Y-5953500D02*
X16581500Y-5978500D01*
X16659500Y-6801500D02*
X16684500Y-6826500D01*
X16684500Y-6801500D02*
X16659500Y-6826500D01*
X16660000Y-6955500D02*
X16685000Y-6980500D01*
X16685000Y-6955500D02*
X16660000Y-6980500D01*
X16749500Y-6800500D02*
X16774500Y-6825500D01*
X16774500Y-6800500D02*
X16749500Y-6825500D01*
X16749500Y-7052500D02*
X16774500Y-7077500D01*
X16774500Y-7052500D02*
X16749500Y-7077500D01*
X16831500Y-9180500D02*
X16856500Y-9205500D01*
X16856500Y-9180500D02*
X16831500Y-9205500D01*
X16831500Y-9240500D02*
X16856500Y-9265500D01*
X16856500Y-9240500D02*
X16831500Y-9265500D01*
X16831500Y-9300500D02*
X16856500Y-9325500D01*
X16856500Y-9300500D02*
X16831500Y-9325500D01*
X16831500Y-9360500D02*
X16856500Y-9385500D01*
X16856500Y-9360500D02*
X16831500Y-9385500D01*
X16907500Y-6801500D02*
X16932500Y-6826500D01*
X16932500Y-6801500D02*
X16907500Y-6826500D01*
X16909500Y-8051500D02*
X16934500Y-8076500D01*
X16934500Y-8051500D02*
X16909500Y-8076500D01*
X16909500Y-8131500D02*
X16934500Y-8156500D01*
X16934500Y-8131500D02*
X16909500Y-8156500D01*
X16910500Y-7051500D02*
X16935500Y-7076500D01*
X16935500Y-7051500D02*
X16910500Y-7076500D01*
X16921500Y-6305500D02*
X16946500Y-6330500D01*
X16946500Y-6305500D02*
X16921500Y-6330500D01*
X16986500Y-8051500D02*
X17011500Y-8076500D01*
X17011500Y-8051500D02*
X16986500Y-8076500D01*
X16986500Y-8131500D02*
X17011500Y-8156500D01*
X17011500Y-8131500D02*
X16986500Y-8156500D01*
X17006500Y-10276500D02*
X17031500Y-10301500D01*
X17031500Y-10276500D02*
X17006500Y-10301500D01*
X17057500Y-8051500D02*
X17082500Y-8076500D01*
X17082500Y-8051500D02*
X17057500Y-8076500D01*
X17057500Y-8131500D02*
X17082500Y-8156500D01*
X17082500Y-8131500D02*
X17057500Y-8156500D01*
X17067500Y-11760500D02*
X17092500Y-11785500D01*
X17092500Y-11760500D02*
X17067500Y-11785500D01*
X17067500Y-12032500D02*
X17092500Y-12057500D01*
X17092500Y-12032500D02*
X17067500Y-12057500D01*
X17090500Y-6087500D02*
X17115500Y-6112500D01*
X17115500Y-6087500D02*
X17090500Y-6112500D01*
X17093500Y-5951500D02*
X17118500Y-5976500D01*
X17118500Y-5951500D02*
X17093500Y-5976500D01*
X17100500Y-10226500D02*
X17125500Y-10251500D01*
X17125500Y-10226500D02*
X17100500Y-10251500D01*
X17188500Y-6677500D02*
X17213500Y-6702500D01*
X17213500Y-6677500D02*
X17188500Y-6702500D01*
X17199500Y-9878500D02*
X17224500Y-9903500D01*
X17224500Y-9878500D02*
X17199500Y-9903500D01*
X17199500Y-9969500D02*
X17224500Y-9994500D01*
X17224500Y-9969500D02*
X17199500Y-9994500D01*
X17222500Y-8265500D02*
X17247500Y-8290500D01*
X17247500Y-8265500D02*
X17222500Y-8290500D01*
X17222500Y-8345500D02*
X17247500Y-8370500D01*
X17247500Y-8345500D02*
X17222500Y-8370500D01*
X17252391Y-12023500D02*
X17277391Y-12048500D01*
X17277391Y-12023500D02*
X17252391Y-12048500D01*
X17266500Y-12196500D02*
X17291500Y-12221500D01*
X17291500Y-12196500D02*
X17266500Y-12221500D01*
X17267500Y-10646500D02*
X17292500Y-10671500D01*
X17292500Y-10646500D02*
X17267500Y-10671500D01*
X17269500Y-6421500D02*
X17294500Y-6446500D01*
X17294500Y-6421500D02*
X17269500Y-6446500D01*
X17281500Y-9878500D02*
X17306500Y-9903500D01*
X17306500Y-9878500D02*
X17281500Y-9903500D01*
X17281500Y-9969500D02*
X17306500Y-9994500D01*
X17306500Y-9969500D02*
X17281500Y-9994500D01*
X17296500Y-8265500D02*
X17321500Y-8290500D01*
X17321500Y-8265500D02*
X17296500Y-8290500D01*
X17296500Y-8345500D02*
X17321500Y-8370500D01*
X17321500Y-8345500D02*
X17296500Y-8370500D01*
X17318568Y-7090500D02*
X17343568Y-7115500D01*
X17343568Y-7090500D02*
X17318568Y-7115500D01*
X17333500Y-12076500D02*
X17358500Y-12101500D01*
X17358500Y-12076500D02*
X17333500Y-12101500D01*
X17373500Y-8265500D02*
X17398500Y-8290500D01*
X17398500Y-8265500D02*
X17373500Y-8290500D01*
X17373500Y-8345500D02*
X17398500Y-8370500D01*
X17398500Y-8345500D02*
X17373500Y-8370500D01*
X17374900Y-11964500D02*
X17399900Y-11989500D01*
X17399900Y-11964500D02*
X17374900Y-11989500D01*
X17376500Y-5999500D02*
X17401500Y-6024500D01*
X17401500Y-5999500D02*
X17376500Y-6024500D01*
X17392500Y-7858500D02*
X17417500Y-7883500D01*
X17417500Y-7858500D02*
X17392500Y-7883500D01*
X17419500Y-12076500D02*
X17444500Y-12101500D01*
X17444500Y-12076500D02*
X17419500Y-12101500D01*
X17446500Y-8265500D02*
X17471500Y-8290500D01*
X17471500Y-8265500D02*
X17446500Y-8290500D01*
X17446500Y-8345500D02*
X17471500Y-8370500D01*
X17471500Y-8345500D02*
X17446500Y-8370500D01*
X17486500Y-7857500D02*
X17511500Y-7882500D01*
X17511500Y-7857500D02*
X17486500Y-7882500D01*
X17556100Y-12039500D02*
X17581100Y-12064500D01*
X17581100Y-12039500D02*
X17556100Y-12064500D01*
X17556500Y-7503500D02*
X17581500Y-7528500D01*
X17581500Y-7503500D02*
X17556500Y-7528500D01*
X17571500Y-6410500D02*
X17596500Y-6435500D01*
X17596500Y-6410500D02*
X17571500Y-6435500D01*
X17571500Y-6810500D02*
X17596500Y-6835500D01*
X17596500Y-6810500D02*
X17571500Y-6835500D01*
X17572500Y-6310500D02*
X17597500Y-6335500D01*
X17597500Y-6310500D02*
X17572500Y-6335500D01*
X17572500Y-6510500D02*
X17597500Y-6535500D01*
X17597500Y-6510500D02*
X17572500Y-6535500D01*
X17572500Y-6710500D02*
X17597500Y-6735500D01*
X17597500Y-6710500D02*
X17572500Y-6735500D01*
X17572500Y-6910500D02*
X17597500Y-6935500D01*
X17597500Y-6910500D02*
X17572500Y-6935500D01*
X17574500Y-7856500D02*
X17599500Y-7881500D01*
X17599500Y-7856500D02*
X17574500Y-7881500D01*
X17616500Y-11506500D02*
X17641500Y-11531500D01*
X17641500Y-11506500D02*
X17616500Y-11531500D01*
X17617450Y-6460627D02*
X17642450Y-6485627D01*
X17642450Y-6460627D02*
X17617450Y-6485627D01*
X17617450Y-6660627D02*
X17642450Y-6685627D01*
X17642450Y-6660627D02*
X17617450Y-6685627D01*
X17617450Y-6860627D02*
X17642450Y-6885627D01*
X17642450Y-6860627D02*
X17617450Y-6885627D01*
X17618936Y-6360176D02*
X17643936Y-6385176D01*
X17643936Y-6360176D02*
X17618936Y-6385176D01*
X17618936Y-6560176D02*
X17643936Y-6585176D01*
X17643936Y-6560176D02*
X17618936Y-6585176D01*
X17618936Y-6760176D02*
X17643936Y-6785176D01*
X17643936Y-6760176D02*
X17618936Y-6785176D01*
X17618936Y-6960176D02*
X17643936Y-6985176D01*
X17643936Y-6960176D02*
X17618936Y-6985176D01*
X17641500Y-12199500D02*
X17666500Y-12224500D01*
X17666500Y-12199500D02*
X17641500Y-12224500D01*
X17644441Y-7406441D02*
X17669441Y-7431441D01*
X17669441Y-7406441D02*
X17644441Y-7431441D01*
X17646500Y-7504500D02*
X17671500Y-7529500D01*
X17671500Y-7504500D02*
X17646500Y-7529500D01*
X17646500Y-7857500D02*
X17671500Y-7882500D01*
X17671500Y-7857500D02*
X17646500Y-7882500D01*
X17646500Y-11316500D02*
X17671500Y-11341500D01*
X17671500Y-11316500D02*
X17646500Y-11341500D01*
X17646500Y-11390500D02*
X17671500Y-11415500D01*
X17671500Y-11390500D02*
X17646500Y-11415500D01*
X17646500Y-11166500D02*
X17671500Y-11191500D01*
X17671500Y-11166500D02*
X17646500Y-11191500D01*
X17646500Y-11239500D02*
X17671500Y-11264500D01*
X17671500Y-11239500D02*
X17646500Y-11264500D01*
X17691500Y-5956500D02*
X17716500Y-5981500D01*
X17716500Y-5956500D02*
X17691500Y-5981500D01*
X17694500Y-8209500D02*
X17719500Y-8234500D01*
X17719500Y-8209500D02*
X17694500Y-8234500D01*
X17696500Y-11506500D02*
X17721500Y-11531500D01*
X17721500Y-11506500D02*
X17696500Y-11531500D01*
X17726500Y-11166500D02*
X17751500Y-11191500D01*
X17751500Y-11166500D02*
X17726500Y-11191500D01*
X17726500Y-11390500D02*
X17751500Y-11415500D01*
X17751500Y-11390500D02*
X17726500Y-11415500D01*
X17726500Y-7857500D02*
X17751500Y-7882500D01*
X17751500Y-7857500D02*
X17726500Y-7882500D01*
X17726500Y-11239500D02*
X17751500Y-11264500D01*
X17751500Y-11239500D02*
X17726500Y-11264500D01*
X17726500Y-11316500D02*
X17751500Y-11341500D01*
X17751500Y-11316500D02*
X17726500Y-11341500D01*
X17732500Y-12126500D02*
X17757500Y-12151500D01*
X17757500Y-12126500D02*
X17732500Y-12151500D01*
X17776500Y-11506500D02*
X17801500Y-11531500D01*
X17801500Y-11506500D02*
X17776500Y-11531500D01*
X17794500Y-8209500D02*
X17819500Y-8234500D01*
X17819500Y-8209500D02*
X17794500Y-8234500D01*
X17801500Y-5961500D02*
X17826500Y-5986500D01*
X17826500Y-5961500D02*
X17801500Y-5986500D01*
X17801500Y-7140500D02*
X17826500Y-7165500D01*
X17826500Y-7140500D02*
X17801500Y-7165500D01*
X17808500Y-7858500D02*
X17833500Y-7883500D01*
X17833500Y-7858500D02*
X17808500Y-7883500D01*
X17856500Y-11506500D02*
X17881500Y-11531500D01*
X17881500Y-11506500D02*
X17856500Y-11531500D01*
X17871500Y-7109500D02*
X17896500Y-7134500D01*
X17896500Y-7109500D02*
X17871500Y-7134500D01*
X17878500Y-5924500D02*
X17903500Y-5949500D01*
X17903500Y-5924500D02*
X17878500Y-5949500D01*
X17921176Y-7063064D02*
X17946176Y-7088064D01*
X17946176Y-7063064D02*
X17921176Y-7088064D01*
X17971500Y-6263500D02*
X17996500Y-6288500D01*
X17996500Y-6263500D02*
X17971500Y-6288500D01*
X17971500Y-7110500D02*
X17996500Y-7135500D01*
X17996500Y-7110500D02*
X17971500Y-7135500D01*
X17991500Y-5963500D02*
X18016500Y-5988500D01*
X18016500Y-5963500D02*
X17991500Y-5988500D01*
X18021373Y-6308449D02*
X18046373Y-6333449D01*
X18046373Y-6308449D02*
X18021373Y-6333449D01*
X18021627Y-7064550D02*
X18046627Y-7089550D01*
X18046627Y-7064550D02*
X18021627Y-7089550D01*
X18048500Y-7753500D02*
X18073500Y-7778500D01*
X18073500Y-7753500D02*
X18048500Y-7778500D01*
X18048500Y-7908500D02*
X18073500Y-7933500D01*
X18073500Y-7908500D02*
X18048500Y-7933500D01*
X18071500Y-6262500D02*
X18096500Y-6287500D01*
X18096500Y-6262500D02*
X18071500Y-6287500D01*
X18071500Y-7109500D02*
X18096500Y-7134500D01*
X18096500Y-7109500D02*
X18071500Y-7134500D01*
X18121824Y-6309936D02*
X18146824Y-6334936D01*
X18146824Y-6309936D02*
X18121824Y-6334936D01*
X18149500Y-7506500D02*
X18174500Y-7531500D01*
X18174500Y-7506500D02*
X18149500Y-7531500D01*
X18171500Y-7110500D02*
X18196500Y-7135500D01*
X18196500Y-7110500D02*
X18171500Y-7135500D01*
X18221627Y-7064550D02*
X18246627Y-7089550D01*
X18246627Y-7064550D02*
X18221627Y-7089550D01*
X18234500Y-5993500D02*
X18259500Y-6018500D01*
X18259500Y-5993500D02*
X18234500Y-6018500D01*
X18271500Y-7109500D02*
X18296500Y-7134500D01*
X18296500Y-7109500D02*
X18271500Y-7134500D01*
X18286500Y-5936500D02*
X18311500Y-5961500D01*
X18311500Y-5936500D02*
X18286500Y-5961500D01*
X18371500Y-6262500D02*
X18396500Y-6287500D01*
X18396500Y-6262500D02*
X18371500Y-6287500D01*
X18374064Y-6610176D02*
X18399064Y-6635176D01*
X18399064Y-6610176D02*
X18374064Y-6635176D01*
X18376500Y-7950500D02*
X18401500Y-7975500D01*
X18401500Y-7950500D02*
X18376500Y-7975500D01*
X18377562Y-5906000D02*
X18402562Y-5931000D01*
X18402562Y-5906000D02*
X18377562Y-5931000D01*
X18387500Y-7440500D02*
X18412500Y-7465500D01*
X18412500Y-7440500D02*
X18387500Y-7465500D01*
X18387500Y-7544500D02*
X18412500Y-7569500D01*
X18412500Y-7544500D02*
X18387500Y-7569500D01*
X18416500Y-7822500D02*
X18441500Y-7847500D01*
X18441500Y-7822500D02*
X18416500Y-7847500D01*
X18420500Y-6410500D02*
X18445500Y-6435500D01*
X18445500Y-6410500D02*
X18420500Y-6435500D01*
X18420500Y-7060500D02*
X18445500Y-7085500D01*
X18445500Y-7060500D02*
X18420500Y-7085500D01*
X18421500Y-6660500D02*
X18446500Y-6685500D01*
X18446500Y-6660500D02*
X18421500Y-6685500D01*
X18421500Y-6760500D02*
X18446500Y-6785500D01*
X18446500Y-6760500D02*
X18421500Y-6785500D01*
X18422500Y-6910176D02*
X18447500Y-6935176D01*
X18447500Y-6910176D02*
X18422500Y-6935176D01*
X18526500Y-7946500D02*
X18551500Y-7971500D01*
X18551500Y-7946500D02*
X18526500Y-7971500D01*
X18534500Y-6128500D02*
X18559500Y-6153500D01*
X18559500Y-6128500D02*
X18534500Y-6153500D01*
X18534500Y-7219500D02*
X18559500Y-7244500D01*
X18559500Y-7219500D02*
X18534500Y-7244500D01*
X18537500Y-7440500D02*
X18562500Y-7465500D01*
X18562500Y-7440500D02*
X18537500Y-7465500D01*
X18537500Y-7540500D02*
X18562500Y-7565500D01*
X18562500Y-7540500D02*
X18537500Y-7565500D01*
X18566500Y-7822500D02*
X18591500Y-7847500D01*
X18591500Y-7822500D02*
X18566500Y-7847500D01*
X18748500Y-6908500D02*
X18773500Y-6933500D01*
X18773500Y-6908500D02*
X18748500Y-6933500D01*
X18749500Y-6628500D02*
X18774500Y-6653500D01*
X18774500Y-6628500D02*
X18749500Y-6653500D01*
X18769500Y-7181500D02*
X18794500Y-7206500D01*
X18794500Y-7181500D02*
X18769500Y-7206500D01*
X18773500Y-7331500D02*
X18798500Y-7356500D01*
X18798500Y-7331500D02*
X18773500Y-7356500D01*
X18829500Y-5974500D02*
X18854500Y-5999500D01*
X18854500Y-5974500D02*
X18829500Y-5999500D01*
X18833500Y-6124500D02*
X18858500Y-6149500D01*
X18858500Y-6124500D02*
X18833500Y-6149500D01*
X18899939Y-6273013D02*
X18924939Y-6298013D01*
X18924939Y-6273013D02*
X18899939Y-6298013D01*
X18909500Y-6801500D02*
X18934500Y-6826500D01*
X18934500Y-6801500D02*
X18909500Y-6826500D01*
X18910000Y-6955500D02*
X18935000Y-6980500D01*
X18935000Y-6955500D02*
X18910000Y-6980500D01*
X18913500Y-7182500D02*
X18938500Y-7207500D01*
X18938500Y-7182500D02*
X18913500Y-7207500D01*
X18913500Y-7332500D02*
X18938500Y-7357500D01*
X18938500Y-7332500D02*
X18913500Y-7357500D01*
X18933500Y-5974500D02*
X18958500Y-5999500D01*
X18958500Y-5974500D02*
X18933500Y-5999500D01*
X18933500Y-6124500D02*
X18958500Y-6149500D01*
X18958500Y-6124500D02*
X18933500Y-6149500D01*
X18999500Y-6800500D02*
X19024500Y-6825500D01*
X19024500Y-6800500D02*
X18999500Y-6825500D01*
X18999500Y-7052500D02*
X19024500Y-7077500D01*
X19024500Y-7052500D02*
X18999500Y-7077500D01*
X19030500Y-6191500D02*
X19055500Y-6216500D01*
X19055500Y-6191500D02*
X19030500Y-6216500D01*
X19115500Y-5972500D02*
X19140500Y-5997500D01*
X19140500Y-5972500D02*
X19115500Y-5997500D01*
X19119500Y-6122500D02*
X19144500Y-6147500D01*
X19144500Y-6122500D02*
X19119500Y-6147500D01*
X19157500Y-6801500D02*
X19182500Y-6826500D01*
X19182500Y-6801500D02*
X19157500Y-6826500D01*
X19160500Y-7051500D02*
X19185500Y-7076500D01*
X19185500Y-7051500D02*
X19160500Y-7076500D01*
X19206500Y-7442500D02*
X19231500Y-7467500D01*
X19231500Y-7442500D02*
X19206500Y-7467500D01*
X19210500Y-7592500D02*
X19235500Y-7617500D01*
X19235500Y-7592500D02*
X19210500Y-7617500D01*
X19219500Y-5972500D02*
X19244500Y-5997500D01*
X19244500Y-5972500D02*
X19219500Y-5997500D01*
X19219500Y-6122500D02*
X19244500Y-6147500D01*
X19244500Y-6122500D02*
X19219500Y-6147500D01*
X19282500Y-6428500D02*
X19307500Y-6453500D01*
X19307500Y-6428500D02*
X19282500Y-6453500D01*
X19282500Y-6561000D02*
X19307500Y-6586000D01*
X19307500Y-6561000D02*
X19282500Y-6586000D01*
X19282500Y-6691000D02*
X19307500Y-6716000D01*
X19307500Y-6691000D02*
X19282500Y-6716000D01*
X19362500Y-7442500D02*
X19387500Y-7467500D01*
X19387500Y-7442500D02*
X19362500Y-7467500D01*
X19362500Y-7592500D02*
X19387500Y-7617500D01*
X19387500Y-7592500D02*
X19362500Y-7617500D01*
X19492500Y-6133500D02*
X19517500Y-6158500D01*
X19517500Y-6133500D02*
X19492500Y-6158500D01*
X19496500Y-6283500D02*
X19521500Y-6308500D01*
X19521500Y-6283500D02*
X19496500Y-6308500D01*
X19575500Y-6875500D02*
X19600500Y-6900500D01*
X19600500Y-6875500D02*
X19575500Y-6900500D01*
X19579500Y-7025500D02*
X19604500Y-7050500D01*
X19604500Y-7025500D02*
X19579500Y-7050500D01*
X19596500Y-6133500D02*
X19621500Y-6158500D01*
X19621500Y-6133500D02*
X19596500Y-6158500D01*
X19596500Y-6283500D02*
X19621500Y-6308500D01*
X19621500Y-6283500D02*
X19596500Y-6308500D01*
X19679500Y-6875500D02*
X19704500Y-6900500D01*
X19704500Y-6875500D02*
X19679500Y-6900500D01*
X19679500Y-7025500D02*
X19704500Y-7050500D01*
X19704500Y-7025500D02*
X19679500Y-7050500D01*
X19703500Y-6779500D02*
X19728500Y-6804500D01*
X19728500Y-6779500D02*
X19703500Y-6804500D01*
X13700250Y-9139000D02*
G75*
G02*
X13670250Y-9139000I-15000J0D01*
G01*
X13670250Y-9139000D02*
G75*
G02*
X13700250Y-9139000I15000J0D01*
G01*
X13701250Y-9331000D02*
G75*
G02*
X13671250Y-9331000I-15000J0D01*
G01*
X13671250Y-9331000D02*
G75*
G02*
X13701250Y-9331000I15000J0D01*
G01*
X14059000Y-10625000D02*
G75*
G02*
X14029000Y-10625000I-15000J0D01*
G01*
X14029000Y-10625000D02*
G75*
G02*
X14059000Y-10625000I15000J0D01*
G01*
X14060000Y-10815000D02*
G75*
G02*
X14030000Y-10815000I-15000J0D01*
G01*
X14030000Y-10815000D02*
G75*
G02*
X14060000Y-10815000I15000J0D01*
G01*
X15477118Y-6006165D02*
G75*
G02*
X15447118Y-6006165I-15000J0D01*
G01*
X15447118Y-6006165D02*
G75*
G02*
X15477118Y-6006165I15000J0D01*
G01*
X14524000Y-11106995D02*
X14524000Y-11146995D01*
X14504000Y-11126995D02*
X14544000Y-11126995D01*
X14524001Y-8706995D02*
X14524001Y-8746995D01*
X14504001Y-8726995D02*
X14544001Y-8726995D01*
X14524001Y-9906995D02*
X14524001Y-9946995D01*
X14504001Y-9926995D02*
X14544001Y-9926995D01*
X14525000Y-10295995D02*
X14525000Y-10335995D01*
X14505000Y-10315995D02*
X14545000Y-10315995D01*
X14525001Y-9095995D02*
X14525001Y-9135995D01*
X14505001Y-9115995D02*
X14545001Y-9115995D01*
X14525001Y-7895995D02*
X14525001Y-7935995D01*
X14505001Y-7915995D02*
X14545001Y-7915995D01*
X15805800Y-8703999D02*
X15805800Y-8743999D01*
X15785800Y-8723999D02*
X15825800Y-8723999D01*
X15806800Y-7892999D02*
X15806800Y-7932999D01*
X15786800Y-7912999D02*
X15826800Y-7912999D01*
X15810800Y-9902599D02*
X15810800Y-9942599D01*
X15790800Y-9922599D02*
X15830800Y-9922599D01*
X15811800Y-9091599D02*
X15811800Y-9131599D01*
X15791800Y-9111599D02*
X15831800Y-9111599D01*
X15815800Y-11102957D02*
X15815800Y-11142957D01*
X15795800Y-11122957D02*
X15835800Y-11122957D01*
X15816800Y-10291957D02*
X15816800Y-10331957D01*
X15796800Y-10311957D02*
X15836800Y-10311957D01*
X16505000Y-7816500D02*
X16505000Y-7856500D01*
X16485000Y-7836500D02*
X16525000Y-7836500D01*
X16516000Y-11367000D02*
X16516000Y-11407000D01*
X16496000Y-11387000D02*
X16536000Y-11387000D01*
X16516000Y-11459000D02*
X16516000Y-11499000D01*
X16496000Y-11479000D02*
X16536000Y-11479000D01*
X16520000Y-11266000D02*
X16520000Y-11306000D01*
X16500000Y-11286000D02*
X16540000Y-11286000D01*
X16611000Y-11366000D02*
X16611000Y-11406000D01*
X16591000Y-11386000D02*
X16631000Y-11386000D01*
X16611000Y-11458000D02*
X16611000Y-11498000D01*
X16591000Y-11478000D02*
X16631000Y-11478000D01*
X16615000Y-11265000D02*
X16615000Y-11305000D01*
X16595000Y-11285000D02*
X16635000Y-11285000D01*
X16712000Y-11366000D02*
X16712000Y-11406000D01*
X16692000Y-11386000D02*
X16732000Y-11386000D01*
X16712000Y-11458000D02*
X16712000Y-11498000D01*
X16692000Y-11478000D02*
X16732000Y-11478000D01*
X16716000Y-11265000D02*
X16716000Y-11305000D01*
X16696000Y-11285000D02*
X16736000Y-11285000D01*
X16807000Y-11367000D02*
X16807000Y-11407000D01*
X16787000Y-11387000D02*
X16827000Y-11387000D01*
X16807000Y-11459000D02*
X16807000Y-11499000D01*
X16787000Y-11479000D02*
X16827000Y-11479000D01*
X16811000Y-11266000D02*
X16811000Y-11306000D01*
X16791000Y-11286000D02*
X16831000Y-11286000D01*
X16897000Y-11366000D02*
X16897000Y-11406000D01*
X16877000Y-11386000D02*
X16917000Y-11386000D01*
X16897000Y-11458000D02*
X16897000Y-11498000D01*
X16877000Y-11478000D02*
X16917000Y-11478000D01*
X16901000Y-11265000D02*
X16901000Y-11305000D01*
X16881000Y-11285000D02*
X16921000Y-11285000D01*
X12695213Y-8804213D02*
X12695213Y-8761787D01*
X12652787Y-8761787D01*
X12652787Y-8804213D01*
X12695213Y-8804213D01*
X12644000Y-8813000D02*
X12704000Y-8813000D01*
X12704000Y-8753000D02*
G75*
G02*
X12704000Y-8813000I0J-30000D01*
G01*
X12704000Y-8753000D02*
X12644000Y-8753000D01*
X12644000Y-8753000D02*
G75*
G03*
X12644000Y-8813000I0J-30000D01*
G01*
X12695213Y-9668213D02*
X12695213Y-9625787D01*
X12652787Y-9625787D01*
X12652787Y-9668213D01*
X12695213Y-9668213D01*
X12644000Y-9677000D02*
X12704000Y-9677000D01*
X12704000Y-9617000D02*
G75*
G02*
X12704000Y-9677000I0J-30000D01*
G01*
X12704000Y-9617000D02*
X12644000Y-9617000D01*
X12644000Y-9617000D02*
G75*
G03*
X12644000Y-9677000I0J-30000D01*
G01*
X13016463Y-10309213D02*
X13016463Y-10266787D01*
X12974037Y-10266787D01*
X12974037Y-10309213D01*
X13016463Y-10309213D01*
X12965250Y-10318000D02*
X13025250Y-10318000D01*
X13025250Y-10258000D02*
G75*
G02*
X13025250Y-10318000I0J-30000D01*
G01*
X13025250Y-10258000D02*
X12965250Y-10258000D01*
X12965250Y-10258000D02*
G75*
G03*
X12965250Y-10318000I0J-30000D01*
G01*
X13016463Y-11173213D02*
X13016463Y-11130787D01*
X12974037Y-11130787D01*
X12974037Y-11173213D01*
X13016463Y-11173213D01*
X12965250Y-11182000D02*
X13025250Y-11182000D01*
X13025250Y-11122000D02*
G75*
G02*
X13025250Y-11182000I0J-30000D01*
G01*
X13025250Y-11122000D02*
X12965250Y-11122000D01*
X12965250Y-11122000D02*
G75*
G03*
X12965250Y-11182000I0J-30000D01*
G01*
X13116213Y-8804213D02*
X13116213Y-8761787D01*
X13073787Y-8761787D01*
X13073787Y-8804213D01*
X13116213Y-8804213D01*
X13049999Y-8813000D02*
X13140001Y-8813000D01*
X13140001Y-8753000D02*
G75*
G02*
X13140001Y-8813000I0J-30000D01*
G01*
X13140001Y-8753000D02*
X13049999Y-8753000D01*
X13049999Y-8753000D02*
G75*
G03*
X13049999Y-8813000I0J-30000D01*
G01*
X13116213Y-9668213D02*
X13116213Y-9625787D01*
X13073787Y-9625787D01*
X13073787Y-9668213D01*
X13116213Y-9668213D01*
X13050000Y-9677000D02*
X13140000Y-9677000D01*
X13140000Y-9617000D02*
G75*
G02*
X13140000Y-9677000I0J-30000D01*
G01*
X13140000Y-9617000D02*
X13050000Y-9617000D01*
X13050000Y-9617000D02*
G75*
G03*
X13050000Y-9677000I0J-30000D01*
G01*
X13437463Y-10309213D02*
X13437463Y-10266787D01*
X13395037Y-10266787D01*
X13395037Y-10309213D01*
X13437463Y-10309213D01*
X13371249Y-10318000D02*
X13461251Y-10318000D01*
X13461251Y-10258000D02*
G75*
G02*
X13461251Y-10318000I0J-30000D01*
G01*
X13461251Y-10258000D02*
X13371249Y-10258000D01*
X13371249Y-10258000D02*
G75*
G03*
X13371249Y-10318000I0J-30000D01*
G01*
X13437463Y-11173213D02*
X13437463Y-11130787D01*
X13395037Y-11130787D01*
X13395037Y-11173213D01*
X13437463Y-11173213D01*
X13371250Y-11182000D02*
X13461250Y-11182000D01*
X13461250Y-11122000D02*
G75*
G02*
X13461250Y-11182000I0J-30000D01*
G01*
X13461250Y-11122000D02*
X13371250Y-11122000D01*
X13371250Y-11122000D02*
G75*
G03*
X13371250Y-11182000I0J-30000D01*
G01*
X13559000Y-12049000D02*
X13609000Y-11999000D01*
X13559000Y-11949000D01*
X13509000Y-11999000D01*
X13559000Y-12049000D01*
X14659000Y-12049000D02*
X14709000Y-11999000D01*
X14659000Y-11949000D01*
X14609000Y-11999000D01*
X14659000Y-12049000D01*
X16136043Y-11999853D02*
X16186042Y-11949854D01*
X16136043Y-11899854D01*
X16086043Y-11949854D01*
X16136043Y-11999853D01*
X16486043Y-11999853D02*
X16536042Y-11949854D01*
X16486043Y-11899854D01*
X16436043Y-11949854D01*
X16486043Y-11999853D01*
D13*
X13773999Y-11413999D02*
X13944001Y-11584001D01*
X13944001Y-11413999D02*
X13773999Y-11584001D01*
X13944001Y-11499000D02*
G75*
G02*
X13773999Y-11499000I-85001J0D01*
G01*
X13773999Y-11499000D02*
G75*
G02*
X13944001Y-11499000I85001J0D01*
G01*
X14273999Y-11413999D02*
X14444001Y-11584001D01*
X14444001Y-11413999D02*
X14273999Y-11584001D01*
X14444001Y-11499000D02*
G75*
G02*
X14273999Y-11499000I-85001J0D01*
G01*
X14273999Y-11499000D02*
G75*
G02*
X14444001Y-11499000I85001J0D01*
G01*
D11*
X12345466Y-12644426D02*
X12345466Y-12444426D01*
X12345466Y-12444426D02*
X12393085Y-12444426D01*
X12393085Y-12444426D02*
X12421656Y-12453949D01*
X12421656Y-12453949D02*
X12440704Y-12472997D01*
X12440704Y-12472997D02*
X12450228Y-12492045D01*
X12450228Y-12492045D02*
X12459751Y-12530140D01*
X12459751Y-12530140D02*
X12459751Y-12558711D01*
X12459751Y-12558711D02*
X12450228Y-12596806D01*
X12450228Y-12596806D02*
X12440704Y-12615854D01*
X12440704Y-12615854D02*
X12421656Y-12634902D01*
X12421656Y-12634902D02*
X12393085Y-12644426D01*
X12393085Y-12644426D02*
X12345466Y-12644426D01*
X12545466Y-12644426D02*
X12545466Y-12511092D01*
X12545466Y-12549187D02*
X12554989Y-12530140D01*
X12554989Y-12530140D02*
X12564513Y-12520616D01*
X12564513Y-12520616D02*
X12583561Y-12511092D01*
X12583561Y-12511092D02*
X12602609Y-12511092D01*
X12669275Y-12644426D02*
X12669275Y-12511092D01*
X12669275Y-12444426D02*
X12659751Y-12453949D01*
X12659751Y-12453949D02*
X12669275Y-12463473D01*
X12669275Y-12463473D02*
X12678799Y-12453949D01*
X12678799Y-12453949D02*
X12669275Y-12444426D01*
X12669275Y-12444426D02*
X12669275Y-12463473D01*
X12793085Y-12644426D02*
X12774037Y-12634902D01*
X12774037Y-12634902D02*
X12764513Y-12615854D01*
X12764513Y-12615854D02*
X12764513Y-12444426D01*
X12897847Y-12644426D02*
X12878799Y-12634902D01*
X12878799Y-12634902D02*
X12869275Y-12615854D01*
X12869275Y-12615854D02*
X12869275Y-12444426D01*
X13126418Y-12644426D02*
X13126418Y-12444426D01*
X13126418Y-12444426D02*
X13193085Y-12587283D01*
X13193085Y-12587283D02*
X13259751Y-12444426D01*
X13259751Y-12444426D02*
X13259751Y-12644426D01*
X13440704Y-12644426D02*
X13440704Y-12539664D01*
X13440704Y-12539664D02*
X13431180Y-12520616D01*
X13431180Y-12520616D02*
X13412132Y-12511092D01*
X13412132Y-12511092D02*
X13374037Y-12511092D01*
X13374037Y-12511092D02*
X13354989Y-12520616D01*
X13440704Y-12634902D02*
X13421656Y-12644426D01*
X13421656Y-12644426D02*
X13374037Y-12644426D01*
X13374037Y-12644426D02*
X13354989Y-12634902D01*
X13354989Y-12634902D02*
X13345466Y-12615854D01*
X13345466Y-12615854D02*
X13345466Y-12596806D01*
X13345466Y-12596806D02*
X13354989Y-12577759D01*
X13354989Y-12577759D02*
X13374037Y-12568235D01*
X13374037Y-12568235D02*
X13421656Y-12568235D01*
X13421656Y-12568235D02*
X13440704Y-12558711D01*
X13535942Y-12511092D02*
X13535942Y-12711092D01*
X13535942Y-12520616D02*
X13554989Y-12511092D01*
X13554989Y-12511092D02*
X13593085Y-12511092D01*
X13593085Y-12511092D02*
X13612132Y-12520616D01*
X13612132Y-12520616D02*
X13621656Y-12530140D01*
X13621656Y-12530140D02*
X13631180Y-12549187D01*
X13631180Y-12549187D02*
X13631180Y-12606330D01*
X13631180Y-12606330D02*
X13621656Y-12625378D01*
X13621656Y-12625378D02*
X13612132Y-12634902D01*
X13612132Y-12634902D02*
X13593085Y-12644426D01*
X13593085Y-12644426D02*
X13554989Y-12644426D01*
X13554989Y-12644426D02*
X13535942Y-12634902D01*
X13716894Y-12625378D02*
X13726418Y-12634902D01*
X13726418Y-12634902D02*
X13716894Y-12644426D01*
X13716894Y-12644426D02*
X13707370Y-12634902D01*
X13707370Y-12634902D02*
X13716894Y-12625378D01*
X13716894Y-12625378D02*
X13716894Y-12644426D01*
X13716894Y-12520616D02*
X13726418Y-12530140D01*
X13726418Y-12530140D02*
X13716894Y-12539664D01*
X13716894Y-12539664D02*
X13707370Y-12530140D01*
X13707370Y-12530140D02*
X13716894Y-12520616D01*
X13716894Y-12520616D02*
X13716894Y-12539664D01*
D12*
X12059689Y-12960442D02*
X12084689Y-12985442D01*
X12084689Y-12960442D02*
X12059689Y-12985442D01*
D11*
X12383561Y-12864426D02*
X12402609Y-12864426D01*
X12402609Y-12864426D02*
X12421656Y-12873949D01*
X12421656Y-12873949D02*
X12431180Y-12883473D01*
X12431180Y-12883473D02*
X12440704Y-12902521D01*
X12440704Y-12902521D02*
X12450228Y-12940616D01*
X12450228Y-12940616D02*
X12450228Y-12988235D01*
X12450228Y-12988235D02*
X12440704Y-13026330D01*
X12440704Y-13026330D02*
X12431180Y-13045378D01*
X12431180Y-13045378D02*
X12421656Y-13054902D01*
X12421656Y-13054902D02*
X12402609Y-13064426D01*
X12402609Y-13064426D02*
X12383561Y-13064426D01*
X12383561Y-13064426D02*
X12364513Y-13054902D01*
X12364513Y-13054902D02*
X12354989Y-13045378D01*
X12354989Y-13045378D02*
X12345466Y-13026330D01*
X12345466Y-13026330D02*
X12335942Y-12988235D01*
X12335942Y-12988235D02*
X12335942Y-12940616D01*
X12335942Y-12940616D02*
X12345466Y-12902521D01*
X12345466Y-12902521D02*
X12354989Y-12883473D01*
X12354989Y-12883473D02*
X12364513Y-12873949D01*
X12364513Y-12873949D02*
X12383561Y-12864426D01*
X12535942Y-13045378D02*
X12545466Y-13054902D01*
X12545466Y-13054902D02*
X12535942Y-13064426D01*
X12535942Y-13064426D02*
X12526418Y-13054902D01*
X12526418Y-13054902D02*
X12535942Y-13045378D01*
X12535942Y-13045378D02*
X12535942Y-13064426D01*
X12621656Y-12883473D02*
X12631180Y-12873949D01*
X12631180Y-12873949D02*
X12650228Y-12864426D01*
X12650228Y-12864426D02*
X12697847Y-12864426D01*
X12697847Y-12864426D02*
X12716894Y-12873949D01*
X12716894Y-12873949D02*
X12726418Y-12883473D01*
X12726418Y-12883473D02*
X12735942Y-12902521D01*
X12735942Y-12902521D02*
X12735942Y-12921568D01*
X12735942Y-12921568D02*
X12726418Y-12950140D01*
X12726418Y-12950140D02*
X12612132Y-13064426D01*
X12612132Y-13064426D02*
X12735942Y-13064426D01*
X12916894Y-12864426D02*
X12821656Y-12864426D01*
X12821656Y-12864426D02*
X12812132Y-12959664D01*
X12812132Y-12959664D02*
X12821656Y-12950140D01*
X12821656Y-12950140D02*
X12840704Y-12940616D01*
X12840704Y-12940616D02*
X12888323Y-12940616D01*
X12888323Y-12940616D02*
X12907370Y-12950140D01*
X12907370Y-12950140D02*
X12916894Y-12959664D01*
X12916894Y-12959664D02*
X12926418Y-12978711D01*
X12926418Y-12978711D02*
X12926418Y-13026330D01*
X12926418Y-13026330D02*
X12916894Y-13045378D01*
X12916894Y-13045378D02*
X12907370Y-13054902D01*
X12907370Y-13054902D02*
X12888323Y-13064426D01*
X12888323Y-13064426D02*
X12840704Y-13064426D01*
X12840704Y-13064426D02*
X12821656Y-13054902D01*
X12821656Y-13054902D02*
X12812132Y-13045378D01*
X13050228Y-12864426D02*
X13069275Y-12864426D01*
X13069275Y-12864426D02*
X13088323Y-12873949D01*
X13088323Y-12873949D02*
X13097847Y-12883473D01*
X13097847Y-12883473D02*
X13107370Y-12902521D01*
X13107370Y-12902521D02*
X13116894Y-12940616D01*
X13116894Y-12940616D02*
X13116894Y-12988235D01*
X13116894Y-12988235D02*
X13107370Y-13026330D01*
X13107370Y-13026330D02*
X13097847Y-13045378D01*
X13097847Y-13045378D02*
X13088323Y-13054902D01*
X13088323Y-13054902D02*
X13069275Y-13064426D01*
X13069275Y-13064426D02*
X13050228Y-13064426D01*
X13050228Y-13064426D02*
X13031180Y-13054902D01*
X13031180Y-13054902D02*
X13021656Y-13045378D01*
X13021656Y-13045378D02*
X13012132Y-13026330D01*
X13012132Y-13026330D02*
X13002609Y-12988235D01*
X13002609Y-12988235D02*
X13002609Y-12940616D01*
X13002609Y-12940616D02*
X13012132Y-12902521D01*
X13012132Y-12902521D02*
X13021656Y-12883473D01*
X13021656Y-12883473D02*
X13031180Y-12873949D01*
X13031180Y-12873949D02*
X13050228Y-12864426D01*
X13202609Y-13064426D02*
X13202609Y-12931092D01*
X13202609Y-12950140D02*
X13212132Y-12940616D01*
X13212132Y-12940616D02*
X13231180Y-12931092D01*
X13231180Y-12931092D02*
X13259751Y-12931092D01*
X13259751Y-12931092D02*
X13278799Y-12940616D01*
X13278799Y-12940616D02*
X13288323Y-12959664D01*
X13288323Y-12959664D02*
X13288323Y-13064426D01*
X13288323Y-12959664D02*
X13297847Y-12940616D01*
X13297847Y-12940616D02*
X13316894Y-12931092D01*
X13316894Y-12931092D02*
X13345466Y-12931092D01*
X13345466Y-12931092D02*
X13364513Y-12940616D01*
X13364513Y-12940616D02*
X13374037Y-12959664D01*
X13374037Y-12959664D02*
X13374037Y-13064426D01*
X13469275Y-13064426D02*
X13469275Y-12931092D01*
X13469275Y-12950140D02*
X13478799Y-12940616D01*
X13478799Y-12940616D02*
X13497847Y-12931092D01*
X13497847Y-12931092D02*
X13526418Y-12931092D01*
X13526418Y-12931092D02*
X13545466Y-12940616D01*
X13545466Y-12940616D02*
X13554990Y-12959664D01*
X13554990Y-12959664D02*
X13554990Y-13064426D01*
X13554990Y-12959664D02*
X13564513Y-12940616D01*
X13564513Y-12940616D02*
X13583561Y-12931092D01*
X13583561Y-12931092D02*
X13612132Y-12931092D01*
X13612132Y-12931092D02*
X13631180Y-12940616D01*
X13631180Y-12940616D02*
X13640704Y-12959664D01*
X13640704Y-12959664D02*
X13640704Y-13064426D01*
X14031180Y-12854902D02*
X13859752Y-13112045D01*
X14288323Y-12864426D02*
X14307371Y-12864426D01*
X14307371Y-12864426D02*
X14326418Y-12873949D01*
X14326418Y-12873949D02*
X14335942Y-12883473D01*
X14335942Y-12883473D02*
X14345466Y-12902521D01*
X14345466Y-12902521D02*
X14354990Y-12940616D01*
X14354990Y-12940616D02*
X14354990Y-12988235D01*
X14354990Y-12988235D02*
X14345466Y-13026330D01*
X14345466Y-13026330D02*
X14335942Y-13045378D01*
X14335942Y-13045378D02*
X14326418Y-13054902D01*
X14326418Y-13054902D02*
X14307371Y-13064426D01*
X14307371Y-13064426D02*
X14288323Y-13064426D01*
X14288323Y-13064426D02*
X14269275Y-13054902D01*
X14269275Y-13054902D02*
X14259752Y-13045378D01*
X14259752Y-13045378D02*
X14250228Y-13026330D01*
X14250228Y-13026330D02*
X14240704Y-12988235D01*
X14240704Y-12988235D02*
X14240704Y-12940616D01*
X14240704Y-12940616D02*
X14250228Y-12902521D01*
X14250228Y-12902521D02*
X14259752Y-12883473D01*
X14259752Y-12883473D02*
X14269275Y-12873949D01*
X14269275Y-12873949D02*
X14288323Y-12864426D01*
X14440704Y-13045378D02*
X14450228Y-13054902D01*
X14450228Y-13054902D02*
X14440704Y-13064426D01*
X14440704Y-13064426D02*
X14431180Y-13054902D01*
X14431180Y-13054902D02*
X14440704Y-13045378D01*
X14440704Y-13045378D02*
X14440704Y-13064426D01*
X14574037Y-12864426D02*
X14593085Y-12864426D01*
X14593085Y-12864426D02*
X14612133Y-12873949D01*
X14612133Y-12873949D02*
X14621656Y-12883473D01*
X14621656Y-12883473D02*
X14631180Y-12902521D01*
X14631180Y-12902521D02*
X14640704Y-12940616D01*
X14640704Y-12940616D02*
X14640704Y-12988235D01*
X14640704Y-12988235D02*
X14631180Y-13026330D01*
X14631180Y-13026330D02*
X14621656Y-13045378D01*
X14621656Y-13045378D02*
X14612133Y-13054902D01*
X14612133Y-13054902D02*
X14593085Y-13064426D01*
X14593085Y-13064426D02*
X14574037Y-13064426D01*
X14574037Y-13064426D02*
X14554990Y-13054902D01*
X14554990Y-13054902D02*
X14545466Y-13045378D01*
X14545466Y-13045378D02*
X14535942Y-13026330D01*
X14535942Y-13026330D02*
X14526418Y-12988235D01*
X14526418Y-12988235D02*
X14526418Y-12940616D01*
X14526418Y-12940616D02*
X14535942Y-12902521D01*
X14535942Y-12902521D02*
X14545466Y-12883473D01*
X14545466Y-12883473D02*
X14554990Y-12873949D01*
X14554990Y-12873949D02*
X14574037Y-12864426D01*
X14764513Y-12864426D02*
X14783561Y-12864426D01*
X14783561Y-12864426D02*
X14802609Y-12873949D01*
X14802609Y-12873949D02*
X14812133Y-12883473D01*
X14812133Y-12883473D02*
X14821656Y-12902521D01*
X14821656Y-12902521D02*
X14831180Y-12940616D01*
X14831180Y-12940616D02*
X14831180Y-12988235D01*
X14831180Y-12988235D02*
X14821656Y-13026330D01*
X14821656Y-13026330D02*
X14812133Y-13045378D01*
X14812133Y-13045378D02*
X14802609Y-13054902D01*
X14802609Y-13054902D02*
X14783561Y-13064426D01*
X14783561Y-13064426D02*
X14764513Y-13064426D01*
X14764513Y-13064426D02*
X14745466Y-13054902D01*
X14745466Y-13054902D02*
X14735942Y-13045378D01*
X14735942Y-13045378D02*
X14726418Y-13026330D01*
X14726418Y-13026330D02*
X14716894Y-12988235D01*
X14716894Y-12988235D02*
X14716894Y-12940616D01*
X14716894Y-12940616D02*
X14726418Y-12902521D01*
X14726418Y-12902521D02*
X14735942Y-12883473D01*
X14735942Y-12883473D02*
X14745466Y-12873949D01*
X14745466Y-12873949D02*
X14764513Y-12864426D01*
X14926418Y-13064426D02*
X14964513Y-13064426D01*
X14964513Y-13064426D02*
X14983561Y-13054902D01*
X14983561Y-13054902D02*
X14993085Y-13045378D01*
X14993085Y-13045378D02*
X15012133Y-13016806D01*
X15012133Y-13016806D02*
X15021656Y-12978711D01*
X15021656Y-12978711D02*
X15021656Y-12902521D01*
X15021656Y-12902521D02*
X15012133Y-12883473D01*
X15012133Y-12883473D02*
X15002609Y-12873949D01*
X15002609Y-12873949D02*
X14983561Y-12864426D01*
X14983561Y-12864426D02*
X14945466Y-12864426D01*
X14945466Y-12864426D02*
X14926418Y-12873949D01*
X14926418Y-12873949D02*
X14916894Y-12883473D01*
X14916894Y-12883473D02*
X14907371Y-12902521D01*
X14907371Y-12902521D02*
X14907371Y-12950140D01*
X14907371Y-12950140D02*
X14916894Y-12969187D01*
X14916894Y-12969187D02*
X14926418Y-12978711D01*
X14926418Y-12978711D02*
X14945466Y-12988235D01*
X14945466Y-12988235D02*
X14983561Y-12988235D01*
X14983561Y-12988235D02*
X15002609Y-12978711D01*
X15002609Y-12978711D02*
X15012133Y-12969187D01*
X15012133Y-12969187D02*
X15021656Y-12950140D01*
X15135942Y-12950140D02*
X15116894Y-12940616D01*
X15116894Y-12940616D02*
X15107371Y-12931092D01*
X15107371Y-12931092D02*
X15097847Y-12912045D01*
X15097847Y-12912045D02*
X15097847Y-12902521D01*
X15097847Y-12902521D02*
X15107371Y-12883473D01*
X15107371Y-12883473D02*
X15116894Y-12873949D01*
X15116894Y-12873949D02*
X15135942Y-12864426D01*
X15135942Y-12864426D02*
X15174037Y-12864426D01*
X15174037Y-12864426D02*
X15193085Y-12873949D01*
X15193085Y-12873949D02*
X15202609Y-12883473D01*
X15202609Y-12883473D02*
X15212133Y-12902521D01*
X15212133Y-12902521D02*
X15212133Y-12912045D01*
X15212133Y-12912045D02*
X15202609Y-12931092D01*
X15202609Y-12931092D02*
X15193085Y-12940616D01*
X15193085Y-12940616D02*
X15174037Y-12950140D01*
X15174037Y-12950140D02*
X15135942Y-12950140D01*
X15135942Y-12950140D02*
X15116894Y-12959664D01*
X15116894Y-12959664D02*
X15107371Y-12969187D01*
X15107371Y-12969187D02*
X15097847Y-12988235D01*
X15097847Y-12988235D02*
X15097847Y-13026330D01*
X15097847Y-13026330D02*
X15107371Y-13045378D01*
X15107371Y-13045378D02*
X15116894Y-13054902D01*
X15116894Y-13054902D02*
X15135942Y-13064426D01*
X15135942Y-13064426D02*
X15174037Y-13064426D01*
X15174037Y-13064426D02*
X15193085Y-13054902D01*
X15193085Y-13054902D02*
X15202609Y-13045378D01*
X15202609Y-13045378D02*
X15212133Y-13026330D01*
X15212133Y-13026330D02*
X15212133Y-12988235D01*
X15212133Y-12988235D02*
X15202609Y-12969187D01*
X15202609Y-12969187D02*
X15193085Y-12959664D01*
X15193085Y-12959664D02*
X15174037Y-12950140D01*
X15288323Y-12864426D02*
X15288323Y-12902521D01*
X15364514Y-12864426D02*
X15364514Y-12902521D01*
X15659752Y-13140616D02*
X15650228Y-13131092D01*
X15650228Y-13131092D02*
X15631180Y-13102521D01*
X15631180Y-13102521D02*
X15621656Y-13083473D01*
X15621656Y-13083473D02*
X15612133Y-13054902D01*
X15612133Y-13054902D02*
X15602609Y-13007283D01*
X15602609Y-13007283D02*
X15602609Y-12969187D01*
X15602609Y-12969187D02*
X15612133Y-12921568D01*
X15612133Y-12921568D02*
X15621656Y-12892997D01*
X15621656Y-12892997D02*
X15631180Y-12873949D01*
X15631180Y-12873949D02*
X15650228Y-12845378D01*
X15650228Y-12845378D02*
X15659752Y-12835854D01*
X15821656Y-12931092D02*
X15821656Y-13064426D01*
X15774037Y-12854902D02*
X15726418Y-12997759D01*
X15726418Y-12997759D02*
X15850228Y-12997759D01*
X15964514Y-12864426D02*
X15983561Y-12864426D01*
X15983561Y-12864426D02*
X16002609Y-12873949D01*
X16002609Y-12873949D02*
X16012133Y-12883473D01*
X16012133Y-12883473D02*
X16021656Y-12902521D01*
X16021656Y-12902521D02*
X16031180Y-12940616D01*
X16031180Y-12940616D02*
X16031180Y-12988235D01*
X16031180Y-12988235D02*
X16021656Y-13026330D01*
X16021656Y-13026330D02*
X16012133Y-13045378D01*
X16012133Y-13045378D02*
X16002609Y-13054902D01*
X16002609Y-13054902D02*
X15983561Y-13064426D01*
X15983561Y-13064426D02*
X15964514Y-13064426D01*
X15964514Y-13064426D02*
X15945466Y-13054902D01*
X15945466Y-13054902D02*
X15935942Y-13045378D01*
X15935942Y-13045378D02*
X15926418Y-13026330D01*
X15926418Y-13026330D02*
X15916895Y-12988235D01*
X15916895Y-12988235D02*
X15916895Y-12940616D01*
X15916895Y-12940616D02*
X15926418Y-12902521D01*
X15926418Y-12902521D02*
X15935942Y-12883473D01*
X15935942Y-12883473D02*
X15945466Y-12873949D01*
X15945466Y-12873949D02*
X15964514Y-12864426D01*
X16126418Y-13064426D02*
X16164514Y-13064426D01*
X16164514Y-13064426D02*
X16183561Y-13054902D01*
X16183561Y-13054902D02*
X16193085Y-13045378D01*
X16193085Y-13045378D02*
X16212133Y-13016806D01*
X16212133Y-13016806D02*
X16221656Y-12978711D01*
X16221656Y-12978711D02*
X16221656Y-12902521D01*
X16221656Y-12902521D02*
X16212133Y-12883473D01*
X16212133Y-12883473D02*
X16202609Y-12873949D01*
X16202609Y-12873949D02*
X16183561Y-12864426D01*
X16183561Y-12864426D02*
X16145466Y-12864426D01*
X16145466Y-12864426D02*
X16126418Y-12873949D01*
X16126418Y-12873949D02*
X16116895Y-12883473D01*
X16116895Y-12883473D02*
X16107371Y-12902521D01*
X16107371Y-12902521D02*
X16107371Y-12950140D01*
X16107371Y-12950140D02*
X16116895Y-12969187D01*
X16116895Y-12969187D02*
X16126418Y-12978711D01*
X16126418Y-12978711D02*
X16145466Y-12988235D01*
X16145466Y-12988235D02*
X16183561Y-12988235D01*
X16183561Y-12988235D02*
X16202609Y-12978711D01*
X16202609Y-12978711D02*
X16212133Y-12969187D01*
X16212133Y-12969187D02*
X16221656Y-12950140D01*
X16459752Y-13064426D02*
X16459752Y-12864426D01*
X16545466Y-13064426D02*
X16545466Y-12959664D01*
X16545466Y-12959664D02*
X16535942Y-12940616D01*
X16535942Y-12940616D02*
X16516895Y-12931092D01*
X16516895Y-12931092D02*
X16488323Y-12931092D01*
X16488323Y-12931092D02*
X16469276Y-12940616D01*
X16469276Y-12940616D02*
X16459752Y-12950140D01*
X16669276Y-13064426D02*
X16650228Y-13054902D01*
X16650228Y-13054902D02*
X16640704Y-13045378D01*
X16640704Y-13045378D02*
X16631180Y-13026330D01*
X16631180Y-13026330D02*
X16631180Y-12969187D01*
X16631180Y-12969187D02*
X16640704Y-12950140D01*
X16640704Y-12950140D02*
X16650228Y-12940616D01*
X16650228Y-12940616D02*
X16669276Y-12931092D01*
X16669276Y-12931092D02*
X16697847Y-12931092D01*
X16697847Y-12931092D02*
X16716895Y-12940616D01*
X16716895Y-12940616D02*
X16726418Y-12950140D01*
X16726418Y-12950140D02*
X16735942Y-12969187D01*
X16735942Y-12969187D02*
X16735942Y-13026330D01*
X16735942Y-13026330D02*
X16726418Y-13045378D01*
X16726418Y-13045378D02*
X16716895Y-13054902D01*
X16716895Y-13054902D02*
X16697847Y-13064426D01*
X16697847Y-13064426D02*
X16669276Y-13064426D01*
X16850228Y-13064426D02*
X16831180Y-13054902D01*
X16831180Y-13054902D02*
X16821657Y-13035854D01*
X16821657Y-13035854D02*
X16821657Y-12864426D01*
X17002609Y-13054902D02*
X16983561Y-13064426D01*
X16983561Y-13064426D02*
X16945466Y-13064426D01*
X16945466Y-13064426D02*
X16926419Y-13054902D01*
X16926419Y-13054902D02*
X16916895Y-13035854D01*
X16916895Y-13035854D02*
X16916895Y-12959664D01*
X16916895Y-12959664D02*
X16926419Y-12940616D01*
X16926419Y-12940616D02*
X16945466Y-12931092D01*
X16945466Y-12931092D02*
X16983561Y-12931092D01*
X16983561Y-12931092D02*
X17002609Y-12940616D01*
X17002609Y-12940616D02*
X17012133Y-12959664D01*
X17012133Y-12959664D02*
X17012133Y-12978711D01*
X17012133Y-12978711D02*
X16916895Y-12997759D01*
X17088323Y-13054902D02*
X17107371Y-13064426D01*
X17107371Y-13064426D02*
X17145466Y-13064426D01*
X17145466Y-13064426D02*
X17164514Y-13054902D01*
X17164514Y-13054902D02*
X17174038Y-13035854D01*
X17174038Y-13035854D02*
X17174038Y-13026330D01*
X17174038Y-13026330D02*
X17164514Y-13007283D01*
X17164514Y-13007283D02*
X17145466Y-12997759D01*
X17145466Y-12997759D02*
X17116895Y-12997759D01*
X17116895Y-12997759D02*
X17097847Y-12988235D01*
X17097847Y-12988235D02*
X17088323Y-12969187D01*
X17088323Y-12969187D02*
X17088323Y-12959664D01*
X17088323Y-12959664D02*
X17097847Y-12940616D01*
X17097847Y-12940616D02*
X17116895Y-12931092D01*
X17116895Y-12931092D02*
X17145466Y-12931092D01*
X17145466Y-12931092D02*
X17164514Y-12940616D01*
X17240704Y-13140616D02*
X17250228Y-13131092D01*
X17250228Y-13131092D02*
X17269276Y-13102521D01*
X17269276Y-13102521D02*
X17278800Y-13083473D01*
X17278800Y-13083473D02*
X17288323Y-13054902D01*
X17288323Y-13054902D02*
X17297847Y-13007283D01*
X17297847Y-13007283D02*
X17297847Y-12969187D01*
X17297847Y-12969187D02*
X17288323Y-12921568D01*
X17288323Y-12921568D02*
X17278800Y-12892997D01*
X17278800Y-12892997D02*
X17269276Y-12873949D01*
X17269276Y-12873949D02*
X17250228Y-12845378D01*
X17250228Y-12845378D02*
X17240704Y-12835854D01*
D12*
X12084689Y-13236942D02*
G75*
G02*
X12054689Y-13236942I-15000J0D01*
G01*
X12054689Y-13236942D02*
G75*
G02*
X12084689Y-13236942I15000J0D01*
G01*
D11*
X12383561Y-13128426D02*
X12402609Y-13128426D01*
X12402609Y-13128426D02*
X12421656Y-13137949D01*
X12421656Y-13137949D02*
X12431180Y-13147473D01*
X12431180Y-13147473D02*
X12440704Y-13166521D01*
X12440704Y-13166521D02*
X12450228Y-13204616D01*
X12450228Y-13204616D02*
X12450228Y-13252235D01*
X12450228Y-13252235D02*
X12440704Y-13290330D01*
X12440704Y-13290330D02*
X12431180Y-13309378D01*
X12431180Y-13309378D02*
X12421656Y-13318902D01*
X12421656Y-13318902D02*
X12402609Y-13328426D01*
X12402609Y-13328426D02*
X12383561Y-13328426D01*
X12383561Y-13328426D02*
X12364513Y-13318902D01*
X12364513Y-13318902D02*
X12354989Y-13309378D01*
X12354989Y-13309378D02*
X12345466Y-13290330D01*
X12345466Y-13290330D02*
X12335942Y-13252235D01*
X12335942Y-13252235D02*
X12335942Y-13204616D01*
X12335942Y-13204616D02*
X12345466Y-13166521D01*
X12345466Y-13166521D02*
X12354989Y-13147473D01*
X12354989Y-13147473D02*
X12364513Y-13137949D01*
X12364513Y-13137949D02*
X12383561Y-13128426D01*
X12535942Y-13309378D02*
X12545466Y-13318902D01*
X12545466Y-13318902D02*
X12535942Y-13328426D01*
X12535942Y-13328426D02*
X12526418Y-13318902D01*
X12526418Y-13318902D02*
X12535942Y-13309378D01*
X12535942Y-13309378D02*
X12535942Y-13328426D01*
X12612132Y-13128426D02*
X12735942Y-13128426D01*
X12735942Y-13128426D02*
X12669275Y-13204616D01*
X12669275Y-13204616D02*
X12697847Y-13204616D01*
X12697847Y-13204616D02*
X12716894Y-13214140D01*
X12716894Y-13214140D02*
X12726418Y-13223664D01*
X12726418Y-13223664D02*
X12735942Y-13242711D01*
X12735942Y-13242711D02*
X12735942Y-13290330D01*
X12735942Y-13290330D02*
X12726418Y-13309378D01*
X12726418Y-13309378D02*
X12716894Y-13318902D01*
X12716894Y-13318902D02*
X12697847Y-13328426D01*
X12697847Y-13328426D02*
X12640704Y-13328426D01*
X12640704Y-13328426D02*
X12621656Y-13318902D01*
X12621656Y-13318902D02*
X12612132Y-13309378D01*
X12859751Y-13128426D02*
X12878799Y-13128426D01*
X12878799Y-13128426D02*
X12897847Y-13137949D01*
X12897847Y-13137949D02*
X12907370Y-13147473D01*
X12907370Y-13147473D02*
X12916894Y-13166521D01*
X12916894Y-13166521D02*
X12926418Y-13204616D01*
X12926418Y-13204616D02*
X12926418Y-13252235D01*
X12926418Y-13252235D02*
X12916894Y-13290330D01*
X12916894Y-13290330D02*
X12907370Y-13309378D01*
X12907370Y-13309378D02*
X12897847Y-13318902D01*
X12897847Y-13318902D02*
X12878799Y-13328426D01*
X12878799Y-13328426D02*
X12859751Y-13328426D01*
X12859751Y-13328426D02*
X12840704Y-13318902D01*
X12840704Y-13318902D02*
X12831180Y-13309378D01*
X12831180Y-13309378D02*
X12821656Y-13290330D01*
X12821656Y-13290330D02*
X12812132Y-13252235D01*
X12812132Y-13252235D02*
X12812132Y-13204616D01*
X12812132Y-13204616D02*
X12821656Y-13166521D01*
X12821656Y-13166521D02*
X12831180Y-13147473D01*
X12831180Y-13147473D02*
X12840704Y-13137949D01*
X12840704Y-13137949D02*
X12859751Y-13128426D01*
X13050228Y-13128426D02*
X13069275Y-13128426D01*
X13069275Y-13128426D02*
X13088323Y-13137949D01*
X13088323Y-13137949D02*
X13097847Y-13147473D01*
X13097847Y-13147473D02*
X13107370Y-13166521D01*
X13107370Y-13166521D02*
X13116894Y-13204616D01*
X13116894Y-13204616D02*
X13116894Y-13252235D01*
X13116894Y-13252235D02*
X13107370Y-13290330D01*
X13107370Y-13290330D02*
X13097847Y-13309378D01*
X13097847Y-13309378D02*
X13088323Y-13318902D01*
X13088323Y-13318902D02*
X13069275Y-13328426D01*
X13069275Y-13328426D02*
X13050228Y-13328426D01*
X13050228Y-13328426D02*
X13031180Y-13318902D01*
X13031180Y-13318902D02*
X13021656Y-13309378D01*
X13021656Y-13309378D02*
X13012132Y-13290330D01*
X13012132Y-13290330D02*
X13002609Y-13252235D01*
X13002609Y-13252235D02*
X13002609Y-13204616D01*
X13002609Y-13204616D02*
X13012132Y-13166521D01*
X13012132Y-13166521D02*
X13021656Y-13147473D01*
X13021656Y-13147473D02*
X13031180Y-13137949D01*
X13031180Y-13137949D02*
X13050228Y-13128426D01*
X13202609Y-13328426D02*
X13202609Y-13195092D01*
X13202609Y-13214140D02*
X13212132Y-13204616D01*
X13212132Y-13204616D02*
X13231180Y-13195092D01*
X13231180Y-13195092D02*
X13259751Y-13195092D01*
X13259751Y-13195092D02*
X13278799Y-13204616D01*
X13278799Y-13204616D02*
X13288323Y-13223664D01*
X13288323Y-13223664D02*
X13288323Y-13328426D01*
X13288323Y-13223664D02*
X13297847Y-13204616D01*
X13297847Y-13204616D02*
X13316894Y-13195092D01*
X13316894Y-13195092D02*
X13345466Y-13195092D01*
X13345466Y-13195092D02*
X13364513Y-13204616D01*
X13364513Y-13204616D02*
X13374037Y-13223664D01*
X13374037Y-13223664D02*
X13374037Y-13328426D01*
X13469275Y-13328426D02*
X13469275Y-13195092D01*
X13469275Y-13214140D02*
X13478799Y-13204616D01*
X13478799Y-13204616D02*
X13497847Y-13195092D01*
X13497847Y-13195092D02*
X13526418Y-13195092D01*
X13526418Y-13195092D02*
X13545466Y-13204616D01*
X13545466Y-13204616D02*
X13554990Y-13223664D01*
X13554990Y-13223664D02*
X13554990Y-13328426D01*
X13554990Y-13223664D02*
X13564513Y-13204616D01*
X13564513Y-13204616D02*
X13583561Y-13195092D01*
X13583561Y-13195092D02*
X13612132Y-13195092D01*
X13612132Y-13195092D02*
X13631180Y-13204616D01*
X13631180Y-13204616D02*
X13640704Y-13223664D01*
X13640704Y-13223664D02*
X13640704Y-13328426D01*
X14031180Y-13118902D02*
X13859752Y-13376045D01*
X14288323Y-13128426D02*
X14307371Y-13128426D01*
X14307371Y-13128426D02*
X14326418Y-13137949D01*
X14326418Y-13137949D02*
X14335942Y-13147473D01*
X14335942Y-13147473D02*
X14345466Y-13166521D01*
X14345466Y-13166521D02*
X14354990Y-13204616D01*
X14354990Y-13204616D02*
X14354990Y-13252235D01*
X14354990Y-13252235D02*
X14345466Y-13290330D01*
X14345466Y-13290330D02*
X14335942Y-13309378D01*
X14335942Y-13309378D02*
X14326418Y-13318902D01*
X14326418Y-13318902D02*
X14307371Y-13328426D01*
X14307371Y-13328426D02*
X14288323Y-13328426D01*
X14288323Y-13328426D02*
X14269275Y-13318902D01*
X14269275Y-13318902D02*
X14259752Y-13309378D01*
X14259752Y-13309378D02*
X14250228Y-13290330D01*
X14250228Y-13290330D02*
X14240704Y-13252235D01*
X14240704Y-13252235D02*
X14240704Y-13204616D01*
X14240704Y-13204616D02*
X14250228Y-13166521D01*
X14250228Y-13166521D02*
X14259752Y-13147473D01*
X14259752Y-13147473D02*
X14269275Y-13137949D01*
X14269275Y-13137949D02*
X14288323Y-13128426D01*
X14440704Y-13309378D02*
X14450228Y-13318902D01*
X14450228Y-13318902D02*
X14440704Y-13328426D01*
X14440704Y-13328426D02*
X14431180Y-13318902D01*
X14431180Y-13318902D02*
X14440704Y-13309378D01*
X14440704Y-13309378D02*
X14440704Y-13328426D01*
X14574037Y-13128426D02*
X14593085Y-13128426D01*
X14593085Y-13128426D02*
X14612133Y-13137949D01*
X14612133Y-13137949D02*
X14621656Y-13147473D01*
X14621656Y-13147473D02*
X14631180Y-13166521D01*
X14631180Y-13166521D02*
X14640704Y-13204616D01*
X14640704Y-13204616D02*
X14640704Y-13252235D01*
X14640704Y-13252235D02*
X14631180Y-13290330D01*
X14631180Y-13290330D02*
X14621656Y-13309378D01*
X14621656Y-13309378D02*
X14612133Y-13318902D01*
X14612133Y-13318902D02*
X14593085Y-13328426D01*
X14593085Y-13328426D02*
X14574037Y-13328426D01*
X14574037Y-13328426D02*
X14554990Y-13318902D01*
X14554990Y-13318902D02*
X14545466Y-13309378D01*
X14545466Y-13309378D02*
X14535942Y-13290330D01*
X14535942Y-13290330D02*
X14526418Y-13252235D01*
X14526418Y-13252235D02*
X14526418Y-13204616D01*
X14526418Y-13204616D02*
X14535942Y-13166521D01*
X14535942Y-13166521D02*
X14545466Y-13147473D01*
X14545466Y-13147473D02*
X14554990Y-13137949D01*
X14554990Y-13137949D02*
X14574037Y-13128426D01*
X14831180Y-13328426D02*
X14716894Y-13328426D01*
X14774037Y-13328426D02*
X14774037Y-13128426D01*
X14774037Y-13128426D02*
X14754990Y-13156997D01*
X14754990Y-13156997D02*
X14735942Y-13176045D01*
X14735942Y-13176045D02*
X14716894Y-13185568D01*
X15021656Y-13328426D02*
X14907371Y-13328426D01*
X14964513Y-13328426D02*
X14964513Y-13128426D01*
X14964513Y-13128426D02*
X14945466Y-13156997D01*
X14945466Y-13156997D02*
X14926418Y-13176045D01*
X14926418Y-13176045D02*
X14907371Y-13185568D01*
X15135942Y-13214140D02*
X15116894Y-13204616D01*
X15116894Y-13204616D02*
X15107371Y-13195092D01*
X15107371Y-13195092D02*
X15097847Y-13176045D01*
X15097847Y-13176045D02*
X15097847Y-13166521D01*
X15097847Y-13166521D02*
X15107371Y-13147473D01*
X15107371Y-13147473D02*
X15116894Y-13137949D01*
X15116894Y-13137949D02*
X15135942Y-13128426D01*
X15135942Y-13128426D02*
X15174037Y-13128426D01*
X15174037Y-13128426D02*
X15193085Y-13137949D01*
X15193085Y-13137949D02*
X15202609Y-13147473D01*
X15202609Y-13147473D02*
X15212133Y-13166521D01*
X15212133Y-13166521D02*
X15212133Y-13176045D01*
X15212133Y-13176045D02*
X15202609Y-13195092D01*
X15202609Y-13195092D02*
X15193085Y-13204616D01*
X15193085Y-13204616D02*
X15174037Y-13214140D01*
X15174037Y-13214140D02*
X15135942Y-13214140D01*
X15135942Y-13214140D02*
X15116894Y-13223664D01*
X15116894Y-13223664D02*
X15107371Y-13233187D01*
X15107371Y-13233187D02*
X15097847Y-13252235D01*
X15097847Y-13252235D02*
X15097847Y-13290330D01*
X15097847Y-13290330D02*
X15107371Y-13309378D01*
X15107371Y-13309378D02*
X15116894Y-13318902D01*
X15116894Y-13318902D02*
X15135942Y-13328426D01*
X15135942Y-13328426D02*
X15174037Y-13328426D01*
X15174037Y-13328426D02*
X15193085Y-13318902D01*
X15193085Y-13318902D02*
X15202609Y-13309378D01*
X15202609Y-13309378D02*
X15212133Y-13290330D01*
X15212133Y-13290330D02*
X15212133Y-13252235D01*
X15212133Y-13252235D02*
X15202609Y-13233187D01*
X15202609Y-13233187D02*
X15193085Y-13223664D01*
X15193085Y-13223664D02*
X15174037Y-13214140D01*
X15288323Y-13128426D02*
X15288323Y-13166521D01*
X15364514Y-13128426D02*
X15364514Y-13166521D01*
X15659752Y-13404616D02*
X15650228Y-13395092D01*
X15650228Y-13395092D02*
X15631180Y-13366521D01*
X15631180Y-13366521D02*
X15621656Y-13347473D01*
X15621656Y-13347473D02*
X15612133Y-13318902D01*
X15612133Y-13318902D02*
X15602609Y-13271283D01*
X15602609Y-13271283D02*
X15602609Y-13233187D01*
X15602609Y-13233187D02*
X15612133Y-13185568D01*
X15612133Y-13185568D02*
X15621656Y-13156997D01*
X15621656Y-13156997D02*
X15631180Y-13137949D01*
X15631180Y-13137949D02*
X15650228Y-13109378D01*
X15650228Y-13109378D02*
X15659752Y-13099854D01*
X15831180Y-13128426D02*
X15735942Y-13128426D01*
X15735942Y-13128426D02*
X15726418Y-13223664D01*
X15726418Y-13223664D02*
X15735942Y-13214140D01*
X15735942Y-13214140D02*
X15754990Y-13204616D01*
X15754990Y-13204616D02*
X15802609Y-13204616D01*
X15802609Y-13204616D02*
X15821656Y-13214140D01*
X15821656Y-13214140D02*
X15831180Y-13223664D01*
X15831180Y-13223664D02*
X15840704Y-13242711D01*
X15840704Y-13242711D02*
X15840704Y-13290330D01*
X15840704Y-13290330D02*
X15831180Y-13309378D01*
X15831180Y-13309378D02*
X15821656Y-13318902D01*
X15821656Y-13318902D02*
X15802609Y-13328426D01*
X15802609Y-13328426D02*
X15754990Y-13328426D01*
X15754990Y-13328426D02*
X15735942Y-13318902D01*
X15735942Y-13318902D02*
X15726418Y-13309378D01*
X16078799Y-13328426D02*
X16078799Y-13128426D01*
X16164514Y-13328426D02*
X16164514Y-13223664D01*
X16164514Y-13223664D02*
X16154990Y-13204616D01*
X16154990Y-13204616D02*
X16135942Y-13195092D01*
X16135942Y-13195092D02*
X16107371Y-13195092D01*
X16107371Y-13195092D02*
X16088323Y-13204616D01*
X16088323Y-13204616D02*
X16078799Y-13214140D01*
X16288323Y-13328426D02*
X16269276Y-13318902D01*
X16269276Y-13318902D02*
X16259752Y-13309378D01*
X16259752Y-13309378D02*
X16250228Y-13290330D01*
X16250228Y-13290330D02*
X16250228Y-13233187D01*
X16250228Y-13233187D02*
X16259752Y-13214140D01*
X16259752Y-13214140D02*
X16269276Y-13204616D01*
X16269276Y-13204616D02*
X16288323Y-13195092D01*
X16288323Y-13195092D02*
X16316895Y-13195092D01*
X16316895Y-13195092D02*
X16335942Y-13204616D01*
X16335942Y-13204616D02*
X16345466Y-13214140D01*
X16345466Y-13214140D02*
X16354990Y-13233187D01*
X16354990Y-13233187D02*
X16354990Y-13290330D01*
X16354990Y-13290330D02*
X16345466Y-13309378D01*
X16345466Y-13309378D02*
X16335942Y-13318902D01*
X16335942Y-13318902D02*
X16316895Y-13328426D01*
X16316895Y-13328426D02*
X16288323Y-13328426D01*
X16469276Y-13328426D02*
X16450228Y-13318902D01*
X16450228Y-13318902D02*
X16440704Y-13299854D01*
X16440704Y-13299854D02*
X16440704Y-13128426D01*
X16621657Y-13318902D02*
X16602609Y-13328426D01*
X16602609Y-13328426D02*
X16564514Y-13328426D01*
X16564514Y-13328426D02*
X16545466Y-13318902D01*
X16545466Y-13318902D02*
X16535942Y-13299854D01*
X16535942Y-13299854D02*
X16535942Y-13223664D01*
X16535942Y-13223664D02*
X16545466Y-13204616D01*
X16545466Y-13204616D02*
X16564514Y-13195092D01*
X16564514Y-13195092D02*
X16602609Y-13195092D01*
X16602609Y-13195092D02*
X16621657Y-13204616D01*
X16621657Y-13204616D02*
X16631180Y-13223664D01*
X16631180Y-13223664D02*
X16631180Y-13242711D01*
X16631180Y-13242711D02*
X16535942Y-13261759D01*
X16707371Y-13318902D02*
X16726418Y-13328426D01*
X16726418Y-13328426D02*
X16764514Y-13328426D01*
X16764514Y-13328426D02*
X16783561Y-13318902D01*
X16783561Y-13318902D02*
X16793085Y-13299854D01*
X16793085Y-13299854D02*
X16793085Y-13290330D01*
X16793085Y-13290330D02*
X16783561Y-13271283D01*
X16783561Y-13271283D02*
X16764514Y-13261759D01*
X16764514Y-13261759D02*
X16735942Y-13261759D01*
X16735942Y-13261759D02*
X16716895Y-13252235D01*
X16716895Y-13252235D02*
X16707371Y-13233187D01*
X16707371Y-13233187D02*
X16707371Y-13223664D01*
X16707371Y-13223664D02*
X16716895Y-13204616D01*
X16716895Y-13204616D02*
X16735942Y-13195092D01*
X16735942Y-13195092D02*
X16764514Y-13195092D01*
X16764514Y-13195092D02*
X16783561Y-13204616D01*
X16859752Y-13404616D02*
X16869276Y-13395092D01*
X16869276Y-13395092D02*
X16888323Y-13366521D01*
X16888323Y-13366521D02*
X16897847Y-13347473D01*
X16897847Y-13347473D02*
X16907371Y-13318902D01*
X16907371Y-13318902D02*
X16916895Y-13271283D01*
X16916895Y-13271283D02*
X16916895Y-13233187D01*
X16916895Y-13233187D02*
X16907371Y-13185568D01*
X16907371Y-13185568D02*
X16897847Y-13156997D01*
X16897847Y-13156997D02*
X16888323Y-13137949D01*
X16888323Y-13137949D02*
X16869276Y-13109378D01*
X16869276Y-13109378D02*
X16859752Y-13099854D01*
D12*
X12064689Y-13480942D02*
X12064689Y-13520942D01*
X12044689Y-13500942D02*
X12084689Y-13500942D01*
D11*
X12383561Y-13392426D02*
X12402609Y-13392426D01*
X12402609Y-13392426D02*
X12421656Y-13401949D01*
X12421656Y-13401949D02*
X12431180Y-13411473D01*
X12431180Y-13411473D02*
X12440704Y-13430521D01*
X12440704Y-13430521D02*
X12450228Y-13468616D01*
X12450228Y-13468616D02*
X12450228Y-13516235D01*
X12450228Y-13516235D02*
X12440704Y-13554330D01*
X12440704Y-13554330D02*
X12431180Y-13573378D01*
X12431180Y-13573378D02*
X12421656Y-13582902D01*
X12421656Y-13582902D02*
X12402609Y-13592426D01*
X12402609Y-13592426D02*
X12383561Y-13592426D01*
X12383561Y-13592426D02*
X12364513Y-13582902D01*
X12364513Y-13582902D02*
X12354989Y-13573378D01*
X12354989Y-13573378D02*
X12345466Y-13554330D01*
X12345466Y-13554330D02*
X12335942Y-13516235D01*
X12335942Y-13516235D02*
X12335942Y-13468616D01*
X12335942Y-13468616D02*
X12345466Y-13430521D01*
X12345466Y-13430521D02*
X12354989Y-13411473D01*
X12354989Y-13411473D02*
X12364513Y-13401949D01*
X12364513Y-13401949D02*
X12383561Y-13392426D01*
X12535942Y-13573378D02*
X12545466Y-13582902D01*
X12545466Y-13582902D02*
X12535942Y-13592426D01*
X12535942Y-13592426D02*
X12526418Y-13582902D01*
X12526418Y-13582902D02*
X12535942Y-13573378D01*
X12535942Y-13573378D02*
X12535942Y-13592426D01*
X12716894Y-13459092D02*
X12716894Y-13592426D01*
X12669275Y-13382902D02*
X12621656Y-13525759D01*
X12621656Y-13525759D02*
X12745466Y-13525759D01*
X12859751Y-13392426D02*
X12878799Y-13392426D01*
X12878799Y-13392426D02*
X12897847Y-13401949D01*
X12897847Y-13401949D02*
X12907370Y-13411473D01*
X12907370Y-13411473D02*
X12916894Y-13430521D01*
X12916894Y-13430521D02*
X12926418Y-13468616D01*
X12926418Y-13468616D02*
X12926418Y-13516235D01*
X12926418Y-13516235D02*
X12916894Y-13554330D01*
X12916894Y-13554330D02*
X12907370Y-13573378D01*
X12907370Y-13573378D02*
X12897847Y-13582902D01*
X12897847Y-13582902D02*
X12878799Y-13592426D01*
X12878799Y-13592426D02*
X12859751Y-13592426D01*
X12859751Y-13592426D02*
X12840704Y-13582902D01*
X12840704Y-13582902D02*
X12831180Y-13573378D01*
X12831180Y-13573378D02*
X12821656Y-13554330D01*
X12821656Y-13554330D02*
X12812132Y-13516235D01*
X12812132Y-13516235D02*
X12812132Y-13468616D01*
X12812132Y-13468616D02*
X12821656Y-13430521D01*
X12821656Y-13430521D02*
X12831180Y-13411473D01*
X12831180Y-13411473D02*
X12840704Y-13401949D01*
X12840704Y-13401949D02*
X12859751Y-13392426D01*
X13050228Y-13392426D02*
X13069275Y-13392426D01*
X13069275Y-13392426D02*
X13088323Y-13401949D01*
X13088323Y-13401949D02*
X13097847Y-13411473D01*
X13097847Y-13411473D02*
X13107370Y-13430521D01*
X13107370Y-13430521D02*
X13116894Y-13468616D01*
X13116894Y-13468616D02*
X13116894Y-13516235D01*
X13116894Y-13516235D02*
X13107370Y-13554330D01*
X13107370Y-13554330D02*
X13097847Y-13573378D01*
X13097847Y-13573378D02*
X13088323Y-13582902D01*
X13088323Y-13582902D02*
X13069275Y-13592426D01*
X13069275Y-13592426D02*
X13050228Y-13592426D01*
X13050228Y-13592426D02*
X13031180Y-13582902D01*
X13031180Y-13582902D02*
X13021656Y-13573378D01*
X13021656Y-13573378D02*
X13012132Y-13554330D01*
X13012132Y-13554330D02*
X13002609Y-13516235D01*
X13002609Y-13516235D02*
X13002609Y-13468616D01*
X13002609Y-13468616D02*
X13012132Y-13430521D01*
X13012132Y-13430521D02*
X13021656Y-13411473D01*
X13021656Y-13411473D02*
X13031180Y-13401949D01*
X13031180Y-13401949D02*
X13050228Y-13392426D01*
X13202609Y-13592426D02*
X13202609Y-13459092D01*
X13202609Y-13478140D02*
X13212132Y-13468616D01*
X13212132Y-13468616D02*
X13231180Y-13459092D01*
X13231180Y-13459092D02*
X13259751Y-13459092D01*
X13259751Y-13459092D02*
X13278799Y-13468616D01*
X13278799Y-13468616D02*
X13288323Y-13487664D01*
X13288323Y-13487664D02*
X13288323Y-13592426D01*
X13288323Y-13487664D02*
X13297847Y-13468616D01*
X13297847Y-13468616D02*
X13316894Y-13459092D01*
X13316894Y-13459092D02*
X13345466Y-13459092D01*
X13345466Y-13459092D02*
X13364513Y-13468616D01*
X13364513Y-13468616D02*
X13374037Y-13487664D01*
X13374037Y-13487664D02*
X13374037Y-13592426D01*
X13469275Y-13592426D02*
X13469275Y-13459092D01*
X13469275Y-13478140D02*
X13478799Y-13468616D01*
X13478799Y-13468616D02*
X13497847Y-13459092D01*
X13497847Y-13459092D02*
X13526418Y-13459092D01*
X13526418Y-13459092D02*
X13545466Y-13468616D01*
X13545466Y-13468616D02*
X13554990Y-13487664D01*
X13554990Y-13487664D02*
X13554990Y-13592426D01*
X13554990Y-13487664D02*
X13564513Y-13468616D01*
X13564513Y-13468616D02*
X13583561Y-13459092D01*
X13583561Y-13459092D02*
X13612132Y-13459092D01*
X13612132Y-13459092D02*
X13631180Y-13468616D01*
X13631180Y-13468616D02*
X13640704Y-13487664D01*
X13640704Y-13487664D02*
X13640704Y-13592426D01*
X14031180Y-13382902D02*
X13859752Y-13640045D01*
X14288323Y-13392426D02*
X14307371Y-13392426D01*
X14307371Y-13392426D02*
X14326418Y-13401949D01*
X14326418Y-13401949D02*
X14335942Y-13411473D01*
X14335942Y-13411473D02*
X14345466Y-13430521D01*
X14345466Y-13430521D02*
X14354990Y-13468616D01*
X14354990Y-13468616D02*
X14354990Y-13516235D01*
X14354990Y-13516235D02*
X14345466Y-13554330D01*
X14345466Y-13554330D02*
X14335942Y-13573378D01*
X14335942Y-13573378D02*
X14326418Y-13582902D01*
X14326418Y-13582902D02*
X14307371Y-13592426D01*
X14307371Y-13592426D02*
X14288323Y-13592426D01*
X14288323Y-13592426D02*
X14269275Y-13582902D01*
X14269275Y-13582902D02*
X14259752Y-13573378D01*
X14259752Y-13573378D02*
X14250228Y-13554330D01*
X14250228Y-13554330D02*
X14240704Y-13516235D01*
X14240704Y-13516235D02*
X14240704Y-13468616D01*
X14240704Y-13468616D02*
X14250228Y-13430521D01*
X14250228Y-13430521D02*
X14259752Y-13411473D01*
X14259752Y-13411473D02*
X14269275Y-13401949D01*
X14269275Y-13401949D02*
X14288323Y-13392426D01*
X14440704Y-13573378D02*
X14450228Y-13582902D01*
X14450228Y-13582902D02*
X14440704Y-13592426D01*
X14440704Y-13592426D02*
X14431180Y-13582902D01*
X14431180Y-13582902D02*
X14440704Y-13573378D01*
X14440704Y-13573378D02*
X14440704Y-13592426D01*
X14574037Y-13392426D02*
X14593085Y-13392426D01*
X14593085Y-13392426D02*
X14612133Y-13401949D01*
X14612133Y-13401949D02*
X14621656Y-13411473D01*
X14621656Y-13411473D02*
X14631180Y-13430521D01*
X14631180Y-13430521D02*
X14640704Y-13468616D01*
X14640704Y-13468616D02*
X14640704Y-13516235D01*
X14640704Y-13516235D02*
X14631180Y-13554330D01*
X14631180Y-13554330D02*
X14621656Y-13573378D01*
X14621656Y-13573378D02*
X14612133Y-13582902D01*
X14612133Y-13582902D02*
X14593085Y-13592426D01*
X14593085Y-13592426D02*
X14574037Y-13592426D01*
X14574037Y-13592426D02*
X14554990Y-13582902D01*
X14554990Y-13582902D02*
X14545466Y-13573378D01*
X14545466Y-13573378D02*
X14535942Y-13554330D01*
X14535942Y-13554330D02*
X14526418Y-13516235D01*
X14526418Y-13516235D02*
X14526418Y-13468616D01*
X14526418Y-13468616D02*
X14535942Y-13430521D01*
X14535942Y-13430521D02*
X14545466Y-13411473D01*
X14545466Y-13411473D02*
X14554990Y-13401949D01*
X14554990Y-13401949D02*
X14574037Y-13392426D01*
X14831180Y-13592426D02*
X14716894Y-13592426D01*
X14774037Y-13592426D02*
X14774037Y-13392426D01*
X14774037Y-13392426D02*
X14754990Y-13420997D01*
X14754990Y-13420997D02*
X14735942Y-13440045D01*
X14735942Y-13440045D02*
X14716894Y-13449568D01*
X15012133Y-13392426D02*
X14916894Y-13392426D01*
X14916894Y-13392426D02*
X14907371Y-13487664D01*
X14907371Y-13487664D02*
X14916894Y-13478140D01*
X14916894Y-13478140D02*
X14935942Y-13468616D01*
X14935942Y-13468616D02*
X14983561Y-13468616D01*
X14983561Y-13468616D02*
X15002609Y-13478140D01*
X15002609Y-13478140D02*
X15012133Y-13487664D01*
X15012133Y-13487664D02*
X15021656Y-13506711D01*
X15021656Y-13506711D02*
X15021656Y-13554330D01*
X15021656Y-13554330D02*
X15012133Y-13573378D01*
X15012133Y-13573378D02*
X15002609Y-13582902D01*
X15002609Y-13582902D02*
X14983561Y-13592426D01*
X14983561Y-13592426D02*
X14935942Y-13592426D01*
X14935942Y-13592426D02*
X14916894Y-13582902D01*
X14916894Y-13582902D02*
X14907371Y-13573378D01*
X15088323Y-13392426D02*
X15221656Y-13392426D01*
X15221656Y-13392426D02*
X15135942Y-13592426D01*
X15288323Y-13392426D02*
X15288323Y-13430521D01*
X15364514Y-13392426D02*
X15364514Y-13430521D01*
X15659752Y-13668616D02*
X15650228Y-13659092D01*
X15650228Y-13659092D02*
X15631180Y-13630521D01*
X15631180Y-13630521D02*
X15621656Y-13611473D01*
X15621656Y-13611473D02*
X15612133Y-13582902D01*
X15612133Y-13582902D02*
X15602609Y-13535283D01*
X15602609Y-13535283D02*
X15602609Y-13497187D01*
X15602609Y-13497187D02*
X15612133Y-13449568D01*
X15612133Y-13449568D02*
X15621656Y-13420997D01*
X15621656Y-13420997D02*
X15631180Y-13401949D01*
X15631180Y-13401949D02*
X15650228Y-13373378D01*
X15650228Y-13373378D02*
X15659752Y-13363854D01*
X15726418Y-13411473D02*
X15735942Y-13401949D01*
X15735942Y-13401949D02*
X15754990Y-13392426D01*
X15754990Y-13392426D02*
X15802609Y-13392426D01*
X15802609Y-13392426D02*
X15821656Y-13401949D01*
X15821656Y-13401949D02*
X15831180Y-13411473D01*
X15831180Y-13411473D02*
X15840704Y-13430521D01*
X15840704Y-13430521D02*
X15840704Y-13449568D01*
X15840704Y-13449568D02*
X15831180Y-13478140D01*
X15831180Y-13478140D02*
X15716895Y-13592426D01*
X15716895Y-13592426D02*
X15840704Y-13592426D01*
X15954990Y-13478140D02*
X15935942Y-13468616D01*
X15935942Y-13468616D02*
X15926418Y-13459092D01*
X15926418Y-13459092D02*
X15916895Y-13440045D01*
X15916895Y-13440045D02*
X15916895Y-13430521D01*
X15916895Y-13430521D02*
X15926418Y-13411473D01*
X15926418Y-13411473D02*
X15935942Y-13401949D01*
X15935942Y-13401949D02*
X15954990Y-13392426D01*
X15954990Y-13392426D02*
X15993085Y-13392426D01*
X15993085Y-13392426D02*
X16012133Y-13401949D01*
X16012133Y-13401949D02*
X16021656Y-13411473D01*
X16021656Y-13411473D02*
X16031180Y-13430521D01*
X16031180Y-13430521D02*
X16031180Y-13440045D01*
X16031180Y-13440045D02*
X16021656Y-13459092D01*
X16021656Y-13459092D02*
X16012133Y-13468616D01*
X16012133Y-13468616D02*
X15993085Y-13478140D01*
X15993085Y-13478140D02*
X15954990Y-13478140D01*
X15954990Y-13478140D02*
X15935942Y-13487664D01*
X15935942Y-13487664D02*
X15926418Y-13497187D01*
X15926418Y-13497187D02*
X15916895Y-13516235D01*
X15916895Y-13516235D02*
X15916895Y-13554330D01*
X15916895Y-13554330D02*
X15926418Y-13573378D01*
X15926418Y-13573378D02*
X15935942Y-13582902D01*
X15935942Y-13582902D02*
X15954990Y-13592426D01*
X15954990Y-13592426D02*
X15993085Y-13592426D01*
X15993085Y-13592426D02*
X16012133Y-13582902D01*
X16012133Y-13582902D02*
X16021656Y-13573378D01*
X16021656Y-13573378D02*
X16031180Y-13554330D01*
X16031180Y-13554330D02*
X16031180Y-13516235D01*
X16031180Y-13516235D02*
X16021656Y-13497187D01*
X16021656Y-13497187D02*
X16012133Y-13487664D01*
X16012133Y-13487664D02*
X15993085Y-13478140D01*
X16269276Y-13592426D02*
X16269276Y-13392426D01*
X16354990Y-13592426D02*
X16354990Y-13487664D01*
X16354990Y-13487664D02*
X16345466Y-13468616D01*
X16345466Y-13468616D02*
X16326418Y-13459092D01*
X16326418Y-13459092D02*
X16297847Y-13459092D01*
X16297847Y-13459092D02*
X16278799Y-13468616D01*
X16278799Y-13468616D02*
X16269276Y-13478140D01*
X16478799Y-13592426D02*
X16459752Y-13582902D01*
X16459752Y-13582902D02*
X16450228Y-13573378D01*
X16450228Y-13573378D02*
X16440704Y-13554330D01*
X16440704Y-13554330D02*
X16440704Y-13497187D01*
X16440704Y-13497187D02*
X16450228Y-13478140D01*
X16450228Y-13478140D02*
X16459752Y-13468616D01*
X16459752Y-13468616D02*
X16478799Y-13459092D01*
X16478799Y-13459092D02*
X16507371Y-13459092D01*
X16507371Y-13459092D02*
X16526418Y-13468616D01*
X16526418Y-13468616D02*
X16535942Y-13478140D01*
X16535942Y-13478140D02*
X16545466Y-13497187D01*
X16545466Y-13497187D02*
X16545466Y-13554330D01*
X16545466Y-13554330D02*
X16535942Y-13573378D01*
X16535942Y-13573378D02*
X16526418Y-13582902D01*
X16526418Y-13582902D02*
X16507371Y-13592426D01*
X16507371Y-13592426D02*
X16478799Y-13592426D01*
X16659752Y-13592426D02*
X16640704Y-13582902D01*
X16640704Y-13582902D02*
X16631180Y-13563854D01*
X16631180Y-13563854D02*
X16631180Y-13392426D01*
X16812133Y-13582902D02*
X16793085Y-13592426D01*
X16793085Y-13592426D02*
X16754990Y-13592426D01*
X16754990Y-13592426D02*
X16735942Y-13582902D01*
X16735942Y-13582902D02*
X16726418Y-13563854D01*
X16726418Y-13563854D02*
X16726418Y-13487664D01*
X16726418Y-13487664D02*
X16735942Y-13468616D01*
X16735942Y-13468616D02*
X16754990Y-13459092D01*
X16754990Y-13459092D02*
X16793085Y-13459092D01*
X16793085Y-13459092D02*
X16812133Y-13468616D01*
X16812133Y-13468616D02*
X16821657Y-13487664D01*
X16821657Y-13487664D02*
X16821657Y-13506711D01*
X16821657Y-13506711D02*
X16726418Y-13525759D01*
X16897847Y-13582902D02*
X16916895Y-13592426D01*
X16916895Y-13592426D02*
X16954990Y-13592426D01*
X16954990Y-13592426D02*
X16974038Y-13582902D01*
X16974038Y-13582902D02*
X16983561Y-13563854D01*
X16983561Y-13563854D02*
X16983561Y-13554330D01*
X16983561Y-13554330D02*
X16974038Y-13535283D01*
X16974038Y-13535283D02*
X16954990Y-13525759D01*
X16954990Y-13525759D02*
X16926419Y-13525759D01*
X16926419Y-13525759D02*
X16907371Y-13516235D01*
X16907371Y-13516235D02*
X16897847Y-13497187D01*
X16897847Y-13497187D02*
X16897847Y-13487664D01*
X16897847Y-13487664D02*
X16907371Y-13468616D01*
X16907371Y-13468616D02*
X16926419Y-13459092D01*
X16926419Y-13459092D02*
X16954990Y-13459092D01*
X16954990Y-13459092D02*
X16974038Y-13468616D01*
X17050228Y-13668616D02*
X17059752Y-13659092D01*
X17059752Y-13659092D02*
X17078800Y-13630521D01*
X17078800Y-13630521D02*
X17088323Y-13611473D01*
X17088323Y-13611473D02*
X17097847Y-13582902D01*
X17097847Y-13582902D02*
X17107371Y-13535283D01*
X17107371Y-13535283D02*
X17107371Y-13497187D01*
X17107371Y-13497187D02*
X17097847Y-13449568D01*
X17097847Y-13449568D02*
X17088323Y-13420997D01*
X17088323Y-13420997D02*
X17078800Y-13401949D01*
X17078800Y-13401949D02*
X17059752Y-13373378D01*
X17059752Y-13373378D02*
X17050228Y-13363854D01*
D12*
X12075902Y-13786155D02*
X12075902Y-13743728D01*
X12033476Y-13743728D01*
X12033476Y-13786155D01*
X12075902Y-13786155D01*
D11*
X12383561Y-13656426D02*
X12402609Y-13656426D01*
X12402609Y-13656426D02*
X12421656Y-13665949D01*
X12421656Y-13665949D02*
X12431180Y-13675473D01*
X12431180Y-13675473D02*
X12440704Y-13694521D01*
X12440704Y-13694521D02*
X12450228Y-13732616D01*
X12450228Y-13732616D02*
X12450228Y-13780235D01*
X12450228Y-13780235D02*
X12440704Y-13818330D01*
X12440704Y-13818330D02*
X12431180Y-13837378D01*
X12431180Y-13837378D02*
X12421656Y-13846902D01*
X12421656Y-13846902D02*
X12402609Y-13856426D01*
X12402609Y-13856426D02*
X12383561Y-13856426D01*
X12383561Y-13856426D02*
X12364513Y-13846902D01*
X12364513Y-13846902D02*
X12354989Y-13837378D01*
X12354989Y-13837378D02*
X12345466Y-13818330D01*
X12345466Y-13818330D02*
X12335942Y-13780235D01*
X12335942Y-13780235D02*
X12335942Y-13732616D01*
X12335942Y-13732616D02*
X12345466Y-13694521D01*
X12345466Y-13694521D02*
X12354989Y-13675473D01*
X12354989Y-13675473D02*
X12364513Y-13665949D01*
X12364513Y-13665949D02*
X12383561Y-13656426D01*
X12535942Y-13837378D02*
X12545466Y-13846902D01*
X12545466Y-13846902D02*
X12535942Y-13856426D01*
X12535942Y-13856426D02*
X12526418Y-13846902D01*
X12526418Y-13846902D02*
X12535942Y-13837378D01*
X12535942Y-13837378D02*
X12535942Y-13856426D01*
X12716894Y-13656426D02*
X12678799Y-13656426D01*
X12678799Y-13656426D02*
X12659751Y-13665949D01*
X12659751Y-13665949D02*
X12650228Y-13675473D01*
X12650228Y-13675473D02*
X12631180Y-13704045D01*
X12631180Y-13704045D02*
X12621656Y-13742140D01*
X12621656Y-13742140D02*
X12621656Y-13818330D01*
X12621656Y-13818330D02*
X12631180Y-13837378D01*
X12631180Y-13837378D02*
X12640704Y-13846902D01*
X12640704Y-13846902D02*
X12659751Y-13856426D01*
X12659751Y-13856426D02*
X12697847Y-13856426D01*
X12697847Y-13856426D02*
X12716894Y-13846902D01*
X12716894Y-13846902D02*
X12726418Y-13837378D01*
X12726418Y-13837378D02*
X12735942Y-13818330D01*
X12735942Y-13818330D02*
X12735942Y-13770711D01*
X12735942Y-13770711D02*
X12726418Y-13751664D01*
X12726418Y-13751664D02*
X12716894Y-13742140D01*
X12716894Y-13742140D02*
X12697847Y-13732616D01*
X12697847Y-13732616D02*
X12659751Y-13732616D01*
X12659751Y-13732616D02*
X12640704Y-13742140D01*
X12640704Y-13742140D02*
X12631180Y-13751664D01*
X12631180Y-13751664D02*
X12621656Y-13770711D01*
X12859751Y-13656426D02*
X12878799Y-13656426D01*
X12878799Y-13656426D02*
X12897847Y-13665949D01*
X12897847Y-13665949D02*
X12907370Y-13675473D01*
X12907370Y-13675473D02*
X12916894Y-13694521D01*
X12916894Y-13694521D02*
X12926418Y-13732616D01*
X12926418Y-13732616D02*
X12926418Y-13780235D01*
X12926418Y-13780235D02*
X12916894Y-13818330D01*
X12916894Y-13818330D02*
X12907370Y-13837378D01*
X12907370Y-13837378D02*
X12897847Y-13846902D01*
X12897847Y-13846902D02*
X12878799Y-13856426D01*
X12878799Y-13856426D02*
X12859751Y-13856426D01*
X12859751Y-13856426D02*
X12840704Y-13846902D01*
X12840704Y-13846902D02*
X12831180Y-13837378D01*
X12831180Y-13837378D02*
X12821656Y-13818330D01*
X12821656Y-13818330D02*
X12812132Y-13780235D01*
X12812132Y-13780235D02*
X12812132Y-13732616D01*
X12812132Y-13732616D02*
X12821656Y-13694521D01*
X12821656Y-13694521D02*
X12831180Y-13675473D01*
X12831180Y-13675473D02*
X12840704Y-13665949D01*
X12840704Y-13665949D02*
X12859751Y-13656426D01*
X13050228Y-13656426D02*
X13069275Y-13656426D01*
X13069275Y-13656426D02*
X13088323Y-13665949D01*
X13088323Y-13665949D02*
X13097847Y-13675473D01*
X13097847Y-13675473D02*
X13107370Y-13694521D01*
X13107370Y-13694521D02*
X13116894Y-13732616D01*
X13116894Y-13732616D02*
X13116894Y-13780235D01*
X13116894Y-13780235D02*
X13107370Y-13818330D01*
X13107370Y-13818330D02*
X13097847Y-13837378D01*
X13097847Y-13837378D02*
X13088323Y-13846902D01*
X13088323Y-13846902D02*
X13069275Y-13856426D01*
X13069275Y-13856426D02*
X13050228Y-13856426D01*
X13050228Y-13856426D02*
X13031180Y-13846902D01*
X13031180Y-13846902D02*
X13021656Y-13837378D01*
X13021656Y-13837378D02*
X13012132Y-13818330D01*
X13012132Y-13818330D02*
X13002609Y-13780235D01*
X13002609Y-13780235D02*
X13002609Y-13732616D01*
X13002609Y-13732616D02*
X13012132Y-13694521D01*
X13012132Y-13694521D02*
X13021656Y-13675473D01*
X13021656Y-13675473D02*
X13031180Y-13665949D01*
X13031180Y-13665949D02*
X13050228Y-13656426D01*
X13202609Y-13856426D02*
X13202609Y-13723092D01*
X13202609Y-13742140D02*
X13212132Y-13732616D01*
X13212132Y-13732616D02*
X13231180Y-13723092D01*
X13231180Y-13723092D02*
X13259751Y-13723092D01*
X13259751Y-13723092D02*
X13278799Y-13732616D01*
X13278799Y-13732616D02*
X13288323Y-13751664D01*
X13288323Y-13751664D02*
X13288323Y-13856426D01*
X13288323Y-13751664D02*
X13297847Y-13732616D01*
X13297847Y-13732616D02*
X13316894Y-13723092D01*
X13316894Y-13723092D02*
X13345466Y-13723092D01*
X13345466Y-13723092D02*
X13364513Y-13732616D01*
X13364513Y-13732616D02*
X13374037Y-13751664D01*
X13374037Y-13751664D02*
X13374037Y-13856426D01*
X13469275Y-13856426D02*
X13469275Y-13723092D01*
X13469275Y-13742140D02*
X13478799Y-13732616D01*
X13478799Y-13732616D02*
X13497847Y-13723092D01*
X13497847Y-13723092D02*
X13526418Y-13723092D01*
X13526418Y-13723092D02*
X13545466Y-13732616D01*
X13545466Y-13732616D02*
X13554990Y-13751664D01*
X13554990Y-13751664D02*
X13554990Y-13856426D01*
X13554990Y-13751664D02*
X13564513Y-13732616D01*
X13564513Y-13732616D02*
X13583561Y-13723092D01*
X13583561Y-13723092D02*
X13612132Y-13723092D01*
X13612132Y-13723092D02*
X13631180Y-13732616D01*
X13631180Y-13732616D02*
X13640704Y-13751664D01*
X13640704Y-13751664D02*
X13640704Y-13856426D01*
X14031180Y-13646902D02*
X13859752Y-13904045D01*
X14288323Y-13656426D02*
X14307371Y-13656426D01*
X14307371Y-13656426D02*
X14326418Y-13665949D01*
X14326418Y-13665949D02*
X14335942Y-13675473D01*
X14335942Y-13675473D02*
X14345466Y-13694521D01*
X14345466Y-13694521D02*
X14354990Y-13732616D01*
X14354990Y-13732616D02*
X14354990Y-13780235D01*
X14354990Y-13780235D02*
X14345466Y-13818330D01*
X14345466Y-13818330D02*
X14335942Y-13837378D01*
X14335942Y-13837378D02*
X14326418Y-13846902D01*
X14326418Y-13846902D02*
X14307371Y-13856426D01*
X14307371Y-13856426D02*
X14288323Y-13856426D01*
X14288323Y-13856426D02*
X14269275Y-13846902D01*
X14269275Y-13846902D02*
X14259752Y-13837378D01*
X14259752Y-13837378D02*
X14250228Y-13818330D01*
X14250228Y-13818330D02*
X14240704Y-13780235D01*
X14240704Y-13780235D02*
X14240704Y-13732616D01*
X14240704Y-13732616D02*
X14250228Y-13694521D01*
X14250228Y-13694521D02*
X14259752Y-13675473D01*
X14259752Y-13675473D02*
X14269275Y-13665949D01*
X14269275Y-13665949D02*
X14288323Y-13656426D01*
X14440704Y-13837378D02*
X14450228Y-13846902D01*
X14450228Y-13846902D02*
X14440704Y-13856426D01*
X14440704Y-13856426D02*
X14431180Y-13846902D01*
X14431180Y-13846902D02*
X14440704Y-13837378D01*
X14440704Y-13837378D02*
X14440704Y-13856426D01*
X14574037Y-13656426D02*
X14593085Y-13656426D01*
X14593085Y-13656426D02*
X14612133Y-13665949D01*
X14612133Y-13665949D02*
X14621656Y-13675473D01*
X14621656Y-13675473D02*
X14631180Y-13694521D01*
X14631180Y-13694521D02*
X14640704Y-13732616D01*
X14640704Y-13732616D02*
X14640704Y-13780235D01*
X14640704Y-13780235D02*
X14631180Y-13818330D01*
X14631180Y-13818330D02*
X14621656Y-13837378D01*
X14621656Y-13837378D02*
X14612133Y-13846902D01*
X14612133Y-13846902D02*
X14593085Y-13856426D01*
X14593085Y-13856426D02*
X14574037Y-13856426D01*
X14574037Y-13856426D02*
X14554990Y-13846902D01*
X14554990Y-13846902D02*
X14545466Y-13837378D01*
X14545466Y-13837378D02*
X14535942Y-13818330D01*
X14535942Y-13818330D02*
X14526418Y-13780235D01*
X14526418Y-13780235D02*
X14526418Y-13732616D01*
X14526418Y-13732616D02*
X14535942Y-13694521D01*
X14535942Y-13694521D02*
X14545466Y-13675473D01*
X14545466Y-13675473D02*
X14554990Y-13665949D01*
X14554990Y-13665949D02*
X14574037Y-13656426D01*
X14716894Y-13675473D02*
X14726418Y-13665949D01*
X14726418Y-13665949D02*
X14745466Y-13656426D01*
X14745466Y-13656426D02*
X14793085Y-13656426D01*
X14793085Y-13656426D02*
X14812133Y-13665949D01*
X14812133Y-13665949D02*
X14821656Y-13675473D01*
X14821656Y-13675473D02*
X14831180Y-13694521D01*
X14831180Y-13694521D02*
X14831180Y-13713568D01*
X14831180Y-13713568D02*
X14821656Y-13742140D01*
X14821656Y-13742140D02*
X14707371Y-13856426D01*
X14707371Y-13856426D02*
X14831180Y-13856426D01*
X14897847Y-13656426D02*
X15021656Y-13656426D01*
X15021656Y-13656426D02*
X14954990Y-13732616D01*
X14954990Y-13732616D02*
X14983561Y-13732616D01*
X14983561Y-13732616D02*
X15002609Y-13742140D01*
X15002609Y-13742140D02*
X15012133Y-13751664D01*
X15012133Y-13751664D02*
X15021656Y-13770711D01*
X15021656Y-13770711D02*
X15021656Y-13818330D01*
X15021656Y-13818330D02*
X15012133Y-13837378D01*
X15012133Y-13837378D02*
X15002609Y-13846902D01*
X15002609Y-13846902D02*
X14983561Y-13856426D01*
X14983561Y-13856426D02*
X14926418Y-13856426D01*
X14926418Y-13856426D02*
X14907371Y-13846902D01*
X14907371Y-13846902D02*
X14897847Y-13837378D01*
X15193085Y-13656426D02*
X15154990Y-13656426D01*
X15154990Y-13656426D02*
X15135942Y-13665949D01*
X15135942Y-13665949D02*
X15126418Y-13675473D01*
X15126418Y-13675473D02*
X15107371Y-13704045D01*
X15107371Y-13704045D02*
X15097847Y-13742140D01*
X15097847Y-13742140D02*
X15097847Y-13818330D01*
X15097847Y-13818330D02*
X15107371Y-13837378D01*
X15107371Y-13837378D02*
X15116894Y-13846902D01*
X15116894Y-13846902D02*
X15135942Y-13856426D01*
X15135942Y-13856426D02*
X15174037Y-13856426D01*
X15174037Y-13856426D02*
X15193085Y-13846902D01*
X15193085Y-13846902D02*
X15202609Y-13837378D01*
X15202609Y-13837378D02*
X15212133Y-13818330D01*
X15212133Y-13818330D02*
X15212133Y-13770711D01*
X15212133Y-13770711D02*
X15202609Y-13751664D01*
X15202609Y-13751664D02*
X15193085Y-13742140D01*
X15193085Y-13742140D02*
X15174037Y-13732616D01*
X15174037Y-13732616D02*
X15135942Y-13732616D01*
X15135942Y-13732616D02*
X15116894Y-13742140D01*
X15116894Y-13742140D02*
X15107371Y-13751664D01*
X15107371Y-13751664D02*
X15097847Y-13770711D01*
X15288323Y-13656426D02*
X15288323Y-13694521D01*
X15364514Y-13656426D02*
X15364514Y-13694521D01*
X15659752Y-13932616D02*
X15650228Y-13923092D01*
X15650228Y-13923092D02*
X15631180Y-13894521D01*
X15631180Y-13894521D02*
X15621656Y-13875473D01*
X15621656Y-13875473D02*
X15612133Y-13846902D01*
X15612133Y-13846902D02*
X15602609Y-13799283D01*
X15602609Y-13799283D02*
X15602609Y-13761187D01*
X15602609Y-13761187D02*
X15612133Y-13713568D01*
X15612133Y-13713568D02*
X15621656Y-13684997D01*
X15621656Y-13684997D02*
X15631180Y-13665949D01*
X15631180Y-13665949D02*
X15650228Y-13637378D01*
X15650228Y-13637378D02*
X15659752Y-13627854D01*
X15774037Y-13656426D02*
X15793085Y-13656426D01*
X15793085Y-13656426D02*
X15812133Y-13665949D01*
X15812133Y-13665949D02*
X15821656Y-13675473D01*
X15821656Y-13675473D02*
X15831180Y-13694521D01*
X15831180Y-13694521D02*
X15840704Y-13732616D01*
X15840704Y-13732616D02*
X15840704Y-13780235D01*
X15840704Y-13780235D02*
X15831180Y-13818330D01*
X15831180Y-13818330D02*
X15821656Y-13837378D01*
X15821656Y-13837378D02*
X15812133Y-13846902D01*
X15812133Y-13846902D02*
X15793085Y-13856426D01*
X15793085Y-13856426D02*
X15774037Y-13856426D01*
X15774037Y-13856426D02*
X15754990Y-13846902D01*
X15754990Y-13846902D02*
X15745466Y-13837378D01*
X15745466Y-13837378D02*
X15735942Y-13818330D01*
X15735942Y-13818330D02*
X15726418Y-13780235D01*
X15726418Y-13780235D02*
X15726418Y-13732616D01*
X15726418Y-13732616D02*
X15735942Y-13694521D01*
X15735942Y-13694521D02*
X15745466Y-13675473D01*
X15745466Y-13675473D02*
X15754990Y-13665949D01*
X15754990Y-13665949D02*
X15774037Y-13656426D01*
X16078799Y-13856426D02*
X16078799Y-13656426D01*
X16164514Y-13856426D02*
X16164514Y-13751664D01*
X16164514Y-13751664D02*
X16154990Y-13732616D01*
X16154990Y-13732616D02*
X16135942Y-13723092D01*
X16135942Y-13723092D02*
X16107371Y-13723092D01*
X16107371Y-13723092D02*
X16088323Y-13732616D01*
X16088323Y-13732616D02*
X16078799Y-13742140D01*
X16288323Y-13856426D02*
X16269276Y-13846902D01*
X16269276Y-13846902D02*
X16259752Y-13837378D01*
X16259752Y-13837378D02*
X16250228Y-13818330D01*
X16250228Y-13818330D02*
X16250228Y-13761187D01*
X16250228Y-13761187D02*
X16259752Y-13742140D01*
X16259752Y-13742140D02*
X16269276Y-13732616D01*
X16269276Y-13732616D02*
X16288323Y-13723092D01*
X16288323Y-13723092D02*
X16316895Y-13723092D01*
X16316895Y-13723092D02*
X16335942Y-13732616D01*
X16335942Y-13732616D02*
X16345466Y-13742140D01*
X16345466Y-13742140D02*
X16354990Y-13761187D01*
X16354990Y-13761187D02*
X16354990Y-13818330D01*
X16354990Y-13818330D02*
X16345466Y-13837378D01*
X16345466Y-13837378D02*
X16335942Y-13846902D01*
X16335942Y-13846902D02*
X16316895Y-13856426D01*
X16316895Y-13856426D02*
X16288323Y-13856426D01*
X16469276Y-13856426D02*
X16450228Y-13846902D01*
X16450228Y-13846902D02*
X16440704Y-13827854D01*
X16440704Y-13827854D02*
X16440704Y-13656426D01*
X16621657Y-13846902D02*
X16602609Y-13856426D01*
X16602609Y-13856426D02*
X16564514Y-13856426D01*
X16564514Y-13856426D02*
X16545466Y-13846902D01*
X16545466Y-13846902D02*
X16535942Y-13827854D01*
X16535942Y-13827854D02*
X16535942Y-13751664D01*
X16535942Y-13751664D02*
X16545466Y-13732616D01*
X16545466Y-13732616D02*
X16564514Y-13723092D01*
X16564514Y-13723092D02*
X16602609Y-13723092D01*
X16602609Y-13723092D02*
X16621657Y-13732616D01*
X16621657Y-13732616D02*
X16631180Y-13751664D01*
X16631180Y-13751664D02*
X16631180Y-13770711D01*
X16631180Y-13770711D02*
X16535942Y-13789759D01*
X16707371Y-13846902D02*
X16726418Y-13856426D01*
X16726418Y-13856426D02*
X16764514Y-13856426D01*
X16764514Y-13856426D02*
X16783561Y-13846902D01*
X16783561Y-13846902D02*
X16793085Y-13827854D01*
X16793085Y-13827854D02*
X16793085Y-13818330D01*
X16793085Y-13818330D02*
X16783561Y-13799283D01*
X16783561Y-13799283D02*
X16764514Y-13789759D01*
X16764514Y-13789759D02*
X16735942Y-13789759D01*
X16735942Y-13789759D02*
X16716895Y-13780235D01*
X16716895Y-13780235D02*
X16707371Y-13761187D01*
X16707371Y-13761187D02*
X16707371Y-13751664D01*
X16707371Y-13751664D02*
X16716895Y-13732616D01*
X16716895Y-13732616D02*
X16735942Y-13723092D01*
X16735942Y-13723092D02*
X16764514Y-13723092D01*
X16764514Y-13723092D02*
X16783561Y-13732616D01*
X17031181Y-13780235D02*
X17183562Y-13780235D01*
X17107371Y-13856426D02*
X17107371Y-13704045D01*
X17459752Y-13742140D02*
X17440704Y-13732616D01*
X17440704Y-13732616D02*
X17431181Y-13723092D01*
X17431181Y-13723092D02*
X17421657Y-13704045D01*
X17421657Y-13704045D02*
X17421657Y-13694521D01*
X17421657Y-13694521D02*
X17431181Y-13675473D01*
X17431181Y-13675473D02*
X17440704Y-13665949D01*
X17440704Y-13665949D02*
X17459752Y-13656426D01*
X17459752Y-13656426D02*
X17497847Y-13656426D01*
X17497847Y-13656426D02*
X17516895Y-13665949D01*
X17516895Y-13665949D02*
X17526419Y-13675473D01*
X17526419Y-13675473D02*
X17535942Y-13694521D01*
X17535942Y-13694521D02*
X17535942Y-13704045D01*
X17535942Y-13704045D02*
X17526419Y-13723092D01*
X17526419Y-13723092D02*
X17516895Y-13732616D01*
X17516895Y-13732616D02*
X17497847Y-13742140D01*
X17497847Y-13742140D02*
X17459752Y-13742140D01*
X17459752Y-13742140D02*
X17440704Y-13751664D01*
X17440704Y-13751664D02*
X17431181Y-13761187D01*
X17431181Y-13761187D02*
X17421657Y-13780235D01*
X17421657Y-13780235D02*
X17421657Y-13818330D01*
X17421657Y-13818330D02*
X17431181Y-13837378D01*
X17431181Y-13837378D02*
X17440704Y-13846902D01*
X17440704Y-13846902D02*
X17459752Y-13856426D01*
X17459752Y-13856426D02*
X17497847Y-13856426D01*
X17497847Y-13856426D02*
X17516895Y-13846902D01*
X17516895Y-13846902D02*
X17526419Y-13837378D01*
X17526419Y-13837378D02*
X17535942Y-13818330D01*
X17535942Y-13818330D02*
X17535942Y-13780235D01*
X17535942Y-13780235D02*
X17526419Y-13761187D01*
X17526419Y-13761187D02*
X17516895Y-13751664D01*
X17516895Y-13751664D02*
X17497847Y-13742140D01*
X17764514Y-13846902D02*
X17783562Y-13856426D01*
X17783562Y-13856426D02*
X17821657Y-13856426D01*
X17821657Y-13856426D02*
X17840704Y-13846902D01*
X17840704Y-13846902D02*
X17850228Y-13827854D01*
X17850228Y-13827854D02*
X17850228Y-13818330D01*
X17850228Y-13818330D02*
X17840704Y-13799283D01*
X17840704Y-13799283D02*
X17821657Y-13789759D01*
X17821657Y-13789759D02*
X17793085Y-13789759D01*
X17793085Y-13789759D02*
X17774038Y-13780235D01*
X17774038Y-13780235D02*
X17764514Y-13761187D01*
X17764514Y-13761187D02*
X17764514Y-13751664D01*
X17764514Y-13751664D02*
X17774038Y-13732616D01*
X17774038Y-13732616D02*
X17793085Y-13723092D01*
X17793085Y-13723092D02*
X17821657Y-13723092D01*
X17821657Y-13723092D02*
X17840704Y-13732616D01*
X17964514Y-13856426D02*
X17945466Y-13846902D01*
X17945466Y-13846902D02*
X17935943Y-13827854D01*
X17935943Y-13827854D02*
X17935943Y-13656426D01*
X18069276Y-13856426D02*
X18050228Y-13846902D01*
X18050228Y-13846902D02*
X18040704Y-13837378D01*
X18040704Y-13837378D02*
X18031181Y-13818330D01*
X18031181Y-13818330D02*
X18031181Y-13761187D01*
X18031181Y-13761187D02*
X18040704Y-13742140D01*
X18040704Y-13742140D02*
X18050228Y-13732616D01*
X18050228Y-13732616D02*
X18069276Y-13723092D01*
X18069276Y-13723092D02*
X18097847Y-13723092D01*
X18097847Y-13723092D02*
X18116895Y-13732616D01*
X18116895Y-13732616D02*
X18126419Y-13742140D01*
X18126419Y-13742140D02*
X18135943Y-13761187D01*
X18135943Y-13761187D02*
X18135943Y-13818330D01*
X18135943Y-13818330D02*
X18126419Y-13837378D01*
X18126419Y-13837378D02*
X18116895Y-13846902D01*
X18116895Y-13846902D02*
X18097847Y-13856426D01*
X18097847Y-13856426D02*
X18069276Y-13856426D01*
X18193085Y-13723092D02*
X18269276Y-13723092D01*
X18221657Y-13656426D02*
X18221657Y-13827854D01*
X18221657Y-13827854D02*
X18231181Y-13846902D01*
X18231181Y-13846902D02*
X18250228Y-13856426D01*
X18250228Y-13856426D02*
X18269276Y-13856426D01*
X18326419Y-13846902D02*
X18345466Y-13856426D01*
X18345466Y-13856426D02*
X18383562Y-13856426D01*
X18383562Y-13856426D02*
X18402609Y-13846902D01*
X18402609Y-13846902D02*
X18412133Y-13827854D01*
X18412133Y-13827854D02*
X18412133Y-13818330D01*
X18412133Y-13818330D02*
X18402609Y-13799283D01*
X18402609Y-13799283D02*
X18383562Y-13789759D01*
X18383562Y-13789759D02*
X18354990Y-13789759D01*
X18354990Y-13789759D02*
X18335943Y-13780235D01*
X18335943Y-13780235D02*
X18326419Y-13761187D01*
X18326419Y-13761187D02*
X18326419Y-13751664D01*
X18326419Y-13751664D02*
X18335943Y-13732616D01*
X18335943Y-13732616D02*
X18354990Y-13723092D01*
X18354990Y-13723092D02*
X18383562Y-13723092D01*
X18383562Y-13723092D02*
X18402609Y-13732616D01*
X18478800Y-13932616D02*
X18488324Y-13923092D01*
X18488324Y-13923092D02*
X18507371Y-13894521D01*
X18507371Y-13894521D02*
X18516895Y-13875473D01*
X18516895Y-13875473D02*
X18526419Y-13846902D01*
X18526419Y-13846902D02*
X18535943Y-13799283D01*
X18535943Y-13799283D02*
X18535943Y-13761187D01*
X18535943Y-13761187D02*
X18526419Y-13713568D01*
X18526419Y-13713568D02*
X18516895Y-13684997D01*
X18516895Y-13684997D02*
X18507371Y-13665949D01*
X18507371Y-13665949D02*
X18488324Y-13637378D01*
X18488324Y-13637378D02*
X18478800Y-13627854D01*
D12*
X12034689Y-14078942D02*
X12084689Y-14028942D01*
X12034689Y-13978942D01*
X11984689Y-14028942D01*
X12034689Y-14078942D01*
D11*
X12450228Y-14120426D02*
X12335942Y-14120426D01*
X12393085Y-14120426D02*
X12393085Y-13920426D01*
X12393085Y-13920426D02*
X12374037Y-13948997D01*
X12374037Y-13948997D02*
X12354989Y-13968045D01*
X12354989Y-13968045D02*
X12335942Y-13977568D01*
X12535942Y-14101378D02*
X12545466Y-14110902D01*
X12545466Y-14110902D02*
X12535942Y-14120426D01*
X12535942Y-14120426D02*
X12526418Y-14110902D01*
X12526418Y-14110902D02*
X12535942Y-14101378D01*
X12535942Y-14101378D02*
X12535942Y-14120426D01*
X12669275Y-13920426D02*
X12688323Y-13920426D01*
X12688323Y-13920426D02*
X12707370Y-13929949D01*
X12707370Y-13929949D02*
X12716894Y-13939473D01*
X12716894Y-13939473D02*
X12726418Y-13958521D01*
X12726418Y-13958521D02*
X12735942Y-13996616D01*
X12735942Y-13996616D02*
X12735942Y-14044235D01*
X12735942Y-14044235D02*
X12726418Y-14082330D01*
X12726418Y-14082330D02*
X12716894Y-14101378D01*
X12716894Y-14101378D02*
X12707370Y-14110902D01*
X12707370Y-14110902D02*
X12688323Y-14120426D01*
X12688323Y-14120426D02*
X12669275Y-14120426D01*
X12669275Y-14120426D02*
X12650228Y-14110902D01*
X12650228Y-14110902D02*
X12640704Y-14101378D01*
X12640704Y-14101378D02*
X12631180Y-14082330D01*
X12631180Y-14082330D02*
X12621656Y-14044235D01*
X12621656Y-14044235D02*
X12621656Y-13996616D01*
X12621656Y-13996616D02*
X12631180Y-13958521D01*
X12631180Y-13958521D02*
X12640704Y-13939473D01*
X12640704Y-13939473D02*
X12650228Y-13929949D01*
X12650228Y-13929949D02*
X12669275Y-13920426D01*
X12859751Y-13920426D02*
X12878799Y-13920426D01*
X12878799Y-13920426D02*
X12897847Y-13929949D01*
X12897847Y-13929949D02*
X12907370Y-13939473D01*
X12907370Y-13939473D02*
X12916894Y-13958521D01*
X12916894Y-13958521D02*
X12926418Y-13996616D01*
X12926418Y-13996616D02*
X12926418Y-14044235D01*
X12926418Y-14044235D02*
X12916894Y-14082330D01*
X12916894Y-14082330D02*
X12907370Y-14101378D01*
X12907370Y-14101378D02*
X12897847Y-14110902D01*
X12897847Y-14110902D02*
X12878799Y-14120426D01*
X12878799Y-14120426D02*
X12859751Y-14120426D01*
X12859751Y-14120426D02*
X12840704Y-14110902D01*
X12840704Y-14110902D02*
X12831180Y-14101378D01*
X12831180Y-14101378D02*
X12821656Y-14082330D01*
X12821656Y-14082330D02*
X12812132Y-14044235D01*
X12812132Y-14044235D02*
X12812132Y-13996616D01*
X12812132Y-13996616D02*
X12821656Y-13958521D01*
X12821656Y-13958521D02*
X12831180Y-13939473D01*
X12831180Y-13939473D02*
X12840704Y-13929949D01*
X12840704Y-13929949D02*
X12859751Y-13920426D01*
X13050228Y-13920426D02*
X13069275Y-13920426D01*
X13069275Y-13920426D02*
X13088323Y-13929949D01*
X13088323Y-13929949D02*
X13097847Y-13939473D01*
X13097847Y-13939473D02*
X13107370Y-13958521D01*
X13107370Y-13958521D02*
X13116894Y-13996616D01*
X13116894Y-13996616D02*
X13116894Y-14044235D01*
X13116894Y-14044235D02*
X13107370Y-14082330D01*
X13107370Y-14082330D02*
X13097847Y-14101378D01*
X13097847Y-14101378D02*
X13088323Y-14110902D01*
X13088323Y-14110902D02*
X13069275Y-14120426D01*
X13069275Y-14120426D02*
X13050228Y-14120426D01*
X13050228Y-14120426D02*
X13031180Y-14110902D01*
X13031180Y-14110902D02*
X13021656Y-14101378D01*
X13021656Y-14101378D02*
X13012132Y-14082330D01*
X13012132Y-14082330D02*
X13002609Y-14044235D01*
X13002609Y-14044235D02*
X13002609Y-13996616D01*
X13002609Y-13996616D02*
X13012132Y-13958521D01*
X13012132Y-13958521D02*
X13021656Y-13939473D01*
X13021656Y-13939473D02*
X13031180Y-13929949D01*
X13031180Y-13929949D02*
X13050228Y-13920426D01*
X13202609Y-14120426D02*
X13202609Y-13987092D01*
X13202609Y-14006140D02*
X13212132Y-13996616D01*
X13212132Y-13996616D02*
X13231180Y-13987092D01*
X13231180Y-13987092D02*
X13259751Y-13987092D01*
X13259751Y-13987092D02*
X13278799Y-13996616D01*
X13278799Y-13996616D02*
X13288323Y-14015664D01*
X13288323Y-14015664D02*
X13288323Y-14120426D01*
X13288323Y-14015664D02*
X13297847Y-13996616D01*
X13297847Y-13996616D02*
X13316894Y-13987092D01*
X13316894Y-13987092D02*
X13345466Y-13987092D01*
X13345466Y-13987092D02*
X13364513Y-13996616D01*
X13364513Y-13996616D02*
X13374037Y-14015664D01*
X13374037Y-14015664D02*
X13374037Y-14120426D01*
X13469275Y-14120426D02*
X13469275Y-13987092D01*
X13469275Y-14006140D02*
X13478799Y-13996616D01*
X13478799Y-13996616D02*
X13497847Y-13987092D01*
X13497847Y-13987092D02*
X13526418Y-13987092D01*
X13526418Y-13987092D02*
X13545466Y-13996616D01*
X13545466Y-13996616D02*
X13554990Y-14015664D01*
X13554990Y-14015664D02*
X13554990Y-14120426D01*
X13554990Y-14015664D02*
X13564513Y-13996616D01*
X13564513Y-13996616D02*
X13583561Y-13987092D01*
X13583561Y-13987092D02*
X13612132Y-13987092D01*
X13612132Y-13987092D02*
X13631180Y-13996616D01*
X13631180Y-13996616D02*
X13640704Y-14015664D01*
X13640704Y-14015664D02*
X13640704Y-14120426D01*
X14031180Y-13910902D02*
X13859752Y-14168045D01*
X14288323Y-13920426D02*
X14307371Y-13920426D01*
X14307371Y-13920426D02*
X14326418Y-13929949D01*
X14326418Y-13929949D02*
X14335942Y-13939473D01*
X14335942Y-13939473D02*
X14345466Y-13958521D01*
X14345466Y-13958521D02*
X14354990Y-13996616D01*
X14354990Y-13996616D02*
X14354990Y-14044235D01*
X14354990Y-14044235D02*
X14345466Y-14082330D01*
X14345466Y-14082330D02*
X14335942Y-14101378D01*
X14335942Y-14101378D02*
X14326418Y-14110902D01*
X14326418Y-14110902D02*
X14307371Y-14120426D01*
X14307371Y-14120426D02*
X14288323Y-14120426D01*
X14288323Y-14120426D02*
X14269275Y-14110902D01*
X14269275Y-14110902D02*
X14259752Y-14101378D01*
X14259752Y-14101378D02*
X14250228Y-14082330D01*
X14250228Y-14082330D02*
X14240704Y-14044235D01*
X14240704Y-14044235D02*
X14240704Y-13996616D01*
X14240704Y-13996616D02*
X14250228Y-13958521D01*
X14250228Y-13958521D02*
X14259752Y-13939473D01*
X14259752Y-13939473D02*
X14269275Y-13929949D01*
X14269275Y-13929949D02*
X14288323Y-13920426D01*
X14440704Y-14101378D02*
X14450228Y-14110902D01*
X14450228Y-14110902D02*
X14440704Y-14120426D01*
X14440704Y-14120426D02*
X14431180Y-14110902D01*
X14431180Y-14110902D02*
X14440704Y-14101378D01*
X14440704Y-14101378D02*
X14440704Y-14120426D01*
X14574037Y-13920426D02*
X14593085Y-13920426D01*
X14593085Y-13920426D02*
X14612133Y-13929949D01*
X14612133Y-13929949D02*
X14621656Y-13939473D01*
X14621656Y-13939473D02*
X14631180Y-13958521D01*
X14631180Y-13958521D02*
X14640704Y-13996616D01*
X14640704Y-13996616D02*
X14640704Y-14044235D01*
X14640704Y-14044235D02*
X14631180Y-14082330D01*
X14631180Y-14082330D02*
X14621656Y-14101378D01*
X14621656Y-14101378D02*
X14612133Y-14110902D01*
X14612133Y-14110902D02*
X14593085Y-14120426D01*
X14593085Y-14120426D02*
X14574037Y-14120426D01*
X14574037Y-14120426D02*
X14554990Y-14110902D01*
X14554990Y-14110902D02*
X14545466Y-14101378D01*
X14545466Y-14101378D02*
X14535942Y-14082330D01*
X14535942Y-14082330D02*
X14526418Y-14044235D01*
X14526418Y-14044235D02*
X14526418Y-13996616D01*
X14526418Y-13996616D02*
X14535942Y-13958521D01*
X14535942Y-13958521D02*
X14545466Y-13939473D01*
X14545466Y-13939473D02*
X14554990Y-13929949D01*
X14554990Y-13929949D02*
X14574037Y-13920426D01*
X14707371Y-13920426D02*
X14831180Y-13920426D01*
X14831180Y-13920426D02*
X14764513Y-13996616D01*
X14764513Y-13996616D02*
X14793085Y-13996616D01*
X14793085Y-13996616D02*
X14812133Y-14006140D01*
X14812133Y-14006140D02*
X14821656Y-14015664D01*
X14821656Y-14015664D02*
X14831180Y-14034711D01*
X14831180Y-14034711D02*
X14831180Y-14082330D01*
X14831180Y-14082330D02*
X14821656Y-14101378D01*
X14821656Y-14101378D02*
X14812133Y-14110902D01*
X14812133Y-14110902D02*
X14793085Y-14120426D01*
X14793085Y-14120426D02*
X14735942Y-14120426D01*
X14735942Y-14120426D02*
X14716894Y-14110902D01*
X14716894Y-14110902D02*
X14707371Y-14101378D01*
X14926418Y-14120426D02*
X14964513Y-14120426D01*
X14964513Y-14120426D02*
X14983561Y-14110902D01*
X14983561Y-14110902D02*
X14993085Y-14101378D01*
X14993085Y-14101378D02*
X15012133Y-14072806D01*
X15012133Y-14072806D02*
X15021656Y-14034711D01*
X15021656Y-14034711D02*
X15021656Y-13958521D01*
X15021656Y-13958521D02*
X15012133Y-13939473D01*
X15012133Y-13939473D02*
X15002609Y-13929949D01*
X15002609Y-13929949D02*
X14983561Y-13920426D01*
X14983561Y-13920426D02*
X14945466Y-13920426D01*
X14945466Y-13920426D02*
X14926418Y-13929949D01*
X14926418Y-13929949D02*
X14916894Y-13939473D01*
X14916894Y-13939473D02*
X14907371Y-13958521D01*
X14907371Y-13958521D02*
X14907371Y-14006140D01*
X14907371Y-14006140D02*
X14916894Y-14025187D01*
X14916894Y-14025187D02*
X14926418Y-14034711D01*
X14926418Y-14034711D02*
X14945466Y-14044235D01*
X14945466Y-14044235D02*
X14983561Y-14044235D01*
X14983561Y-14044235D02*
X15002609Y-14034711D01*
X15002609Y-14034711D02*
X15012133Y-14025187D01*
X15012133Y-14025187D02*
X15021656Y-14006140D01*
X15193085Y-13987092D02*
X15193085Y-14120426D01*
X15145466Y-13910902D02*
X15097847Y-14053759D01*
X15097847Y-14053759D02*
X15221656Y-14053759D01*
X15288323Y-13920426D02*
X15288323Y-13958521D01*
X15364514Y-13920426D02*
X15364514Y-13958521D01*
X15659752Y-14196616D02*
X15650228Y-14187092D01*
X15650228Y-14187092D02*
X15631180Y-14158521D01*
X15631180Y-14158521D02*
X15621656Y-14139473D01*
X15621656Y-14139473D02*
X15612133Y-14110902D01*
X15612133Y-14110902D02*
X15602609Y-14063283D01*
X15602609Y-14063283D02*
X15602609Y-14025187D01*
X15602609Y-14025187D02*
X15612133Y-13977568D01*
X15612133Y-13977568D02*
X15621656Y-13948997D01*
X15621656Y-13948997D02*
X15631180Y-13929949D01*
X15631180Y-13929949D02*
X15650228Y-13901378D01*
X15650228Y-13901378D02*
X15659752Y-13891854D01*
X15821656Y-13987092D02*
X15821656Y-14120426D01*
X15774037Y-13910902D02*
X15726418Y-14053759D01*
X15726418Y-14053759D02*
X15850228Y-14053759D01*
X16078799Y-14120426D02*
X16078799Y-13920426D01*
X16164514Y-14120426D02*
X16164514Y-14015664D01*
X16164514Y-14015664D02*
X16154990Y-13996616D01*
X16154990Y-13996616D02*
X16135942Y-13987092D01*
X16135942Y-13987092D02*
X16107371Y-13987092D01*
X16107371Y-13987092D02*
X16088323Y-13996616D01*
X16088323Y-13996616D02*
X16078799Y-14006140D01*
X16288323Y-14120426D02*
X16269276Y-14110902D01*
X16269276Y-14110902D02*
X16259752Y-14101378D01*
X16259752Y-14101378D02*
X16250228Y-14082330D01*
X16250228Y-14082330D02*
X16250228Y-14025187D01*
X16250228Y-14025187D02*
X16259752Y-14006140D01*
X16259752Y-14006140D02*
X16269276Y-13996616D01*
X16269276Y-13996616D02*
X16288323Y-13987092D01*
X16288323Y-13987092D02*
X16316895Y-13987092D01*
X16316895Y-13987092D02*
X16335942Y-13996616D01*
X16335942Y-13996616D02*
X16345466Y-14006140D01*
X16345466Y-14006140D02*
X16354990Y-14025187D01*
X16354990Y-14025187D02*
X16354990Y-14082330D01*
X16354990Y-14082330D02*
X16345466Y-14101378D01*
X16345466Y-14101378D02*
X16335942Y-14110902D01*
X16335942Y-14110902D02*
X16316895Y-14120426D01*
X16316895Y-14120426D02*
X16288323Y-14120426D01*
X16469276Y-14120426D02*
X16450228Y-14110902D01*
X16450228Y-14110902D02*
X16440704Y-14091854D01*
X16440704Y-14091854D02*
X16440704Y-13920426D01*
X16621657Y-14110902D02*
X16602609Y-14120426D01*
X16602609Y-14120426D02*
X16564514Y-14120426D01*
X16564514Y-14120426D02*
X16545466Y-14110902D01*
X16545466Y-14110902D02*
X16535942Y-14091854D01*
X16535942Y-14091854D02*
X16535942Y-14015664D01*
X16535942Y-14015664D02*
X16545466Y-13996616D01*
X16545466Y-13996616D02*
X16564514Y-13987092D01*
X16564514Y-13987092D02*
X16602609Y-13987092D01*
X16602609Y-13987092D02*
X16621657Y-13996616D01*
X16621657Y-13996616D02*
X16631180Y-14015664D01*
X16631180Y-14015664D02*
X16631180Y-14034711D01*
X16631180Y-14034711D02*
X16535942Y-14053759D01*
X16707371Y-14110902D02*
X16726418Y-14120426D01*
X16726418Y-14120426D02*
X16764514Y-14120426D01*
X16764514Y-14120426D02*
X16783561Y-14110902D01*
X16783561Y-14110902D02*
X16793085Y-14091854D01*
X16793085Y-14091854D02*
X16793085Y-14082330D01*
X16793085Y-14082330D02*
X16783561Y-14063283D01*
X16783561Y-14063283D02*
X16764514Y-14053759D01*
X16764514Y-14053759D02*
X16735942Y-14053759D01*
X16735942Y-14053759D02*
X16716895Y-14044235D01*
X16716895Y-14044235D02*
X16707371Y-14025187D01*
X16707371Y-14025187D02*
X16707371Y-14015664D01*
X16707371Y-14015664D02*
X16716895Y-13996616D01*
X16716895Y-13996616D02*
X16735942Y-13987092D01*
X16735942Y-13987092D02*
X16764514Y-13987092D01*
X16764514Y-13987092D02*
X16783561Y-13996616D01*
X16859752Y-14196616D02*
X16869276Y-14187092D01*
X16869276Y-14187092D02*
X16888323Y-14158521D01*
X16888323Y-14158521D02*
X16897847Y-14139473D01*
X16897847Y-14139473D02*
X16907371Y-14110902D01*
X16907371Y-14110902D02*
X16916895Y-14063283D01*
X16916895Y-14063283D02*
X16916895Y-14025187D01*
X16916895Y-14025187D02*
X16907371Y-13977568D01*
X16907371Y-13977568D02*
X16897847Y-13948997D01*
X16897847Y-13948997D02*
X16888323Y-13929949D01*
X16888323Y-13929949D02*
X16869276Y-13901378D01*
X16869276Y-13901378D02*
X16859752Y-13891854D01*
D13*
X11914687Y-14207941D02*
X12084689Y-14377943D01*
X12084689Y-14207941D02*
X11914687Y-14377943D01*
X12084689Y-14292942D02*
G75*
G02*
X11914687Y-14292942I-85001J0D01*
G01*
X11914687Y-14292942D02*
G75*
G02*
X12084689Y-14292942I85001J0D01*
G01*
D11*
X12450228Y-14384426D02*
X12335942Y-14384426D01*
X12393085Y-14384426D02*
X12393085Y-14184426D01*
X12393085Y-14184426D02*
X12374037Y-14212997D01*
X12374037Y-14212997D02*
X12354989Y-14232045D01*
X12354989Y-14232045D02*
X12335942Y-14241568D01*
X12535942Y-14365378D02*
X12545466Y-14374902D01*
X12545466Y-14374902D02*
X12535942Y-14384426D01*
X12535942Y-14384426D02*
X12526418Y-14374902D01*
X12526418Y-14374902D02*
X12535942Y-14365378D01*
X12535942Y-14365378D02*
X12535942Y-14384426D01*
X12612132Y-14184426D02*
X12745466Y-14184426D01*
X12745466Y-14184426D02*
X12659751Y-14384426D01*
X12859751Y-14184426D02*
X12878799Y-14184426D01*
X12878799Y-14184426D02*
X12897847Y-14193949D01*
X12897847Y-14193949D02*
X12907370Y-14203473D01*
X12907370Y-14203473D02*
X12916894Y-14222521D01*
X12916894Y-14222521D02*
X12926418Y-14260616D01*
X12926418Y-14260616D02*
X12926418Y-14308235D01*
X12926418Y-14308235D02*
X12916894Y-14346330D01*
X12916894Y-14346330D02*
X12907370Y-14365378D01*
X12907370Y-14365378D02*
X12897847Y-14374902D01*
X12897847Y-14374902D02*
X12878799Y-14384426D01*
X12878799Y-14384426D02*
X12859751Y-14384426D01*
X12859751Y-14384426D02*
X12840704Y-14374902D01*
X12840704Y-14374902D02*
X12831180Y-14365378D01*
X12831180Y-14365378D02*
X12821656Y-14346330D01*
X12821656Y-14346330D02*
X12812132Y-14308235D01*
X12812132Y-14308235D02*
X12812132Y-14260616D01*
X12812132Y-14260616D02*
X12821656Y-14222521D01*
X12821656Y-14222521D02*
X12831180Y-14203473D01*
X12831180Y-14203473D02*
X12840704Y-14193949D01*
X12840704Y-14193949D02*
X12859751Y-14184426D01*
X13050228Y-14184426D02*
X13069275Y-14184426D01*
X13069275Y-14184426D02*
X13088323Y-14193949D01*
X13088323Y-14193949D02*
X13097847Y-14203473D01*
X13097847Y-14203473D02*
X13107370Y-14222521D01*
X13107370Y-14222521D02*
X13116894Y-14260616D01*
X13116894Y-14260616D02*
X13116894Y-14308235D01*
X13116894Y-14308235D02*
X13107370Y-14346330D01*
X13107370Y-14346330D02*
X13097847Y-14365378D01*
X13097847Y-14365378D02*
X13088323Y-14374902D01*
X13088323Y-14374902D02*
X13069275Y-14384426D01*
X13069275Y-14384426D02*
X13050228Y-14384426D01*
X13050228Y-14384426D02*
X13031180Y-14374902D01*
X13031180Y-14374902D02*
X13021656Y-14365378D01*
X13021656Y-14365378D02*
X13012132Y-14346330D01*
X13012132Y-14346330D02*
X13002609Y-14308235D01*
X13002609Y-14308235D02*
X13002609Y-14260616D01*
X13002609Y-14260616D02*
X13012132Y-14222521D01*
X13012132Y-14222521D02*
X13021656Y-14203473D01*
X13021656Y-14203473D02*
X13031180Y-14193949D01*
X13031180Y-14193949D02*
X13050228Y-14184426D01*
X13202609Y-14384426D02*
X13202609Y-14251092D01*
X13202609Y-14270140D02*
X13212132Y-14260616D01*
X13212132Y-14260616D02*
X13231180Y-14251092D01*
X13231180Y-14251092D02*
X13259751Y-14251092D01*
X13259751Y-14251092D02*
X13278799Y-14260616D01*
X13278799Y-14260616D02*
X13288323Y-14279664D01*
X13288323Y-14279664D02*
X13288323Y-14384426D01*
X13288323Y-14279664D02*
X13297847Y-14260616D01*
X13297847Y-14260616D02*
X13316894Y-14251092D01*
X13316894Y-14251092D02*
X13345466Y-14251092D01*
X13345466Y-14251092D02*
X13364513Y-14260616D01*
X13364513Y-14260616D02*
X13374037Y-14279664D01*
X13374037Y-14279664D02*
X13374037Y-14384426D01*
X13469275Y-14384426D02*
X13469275Y-14251092D01*
X13469275Y-14270140D02*
X13478799Y-14260616D01*
X13478799Y-14260616D02*
X13497847Y-14251092D01*
X13497847Y-14251092D02*
X13526418Y-14251092D01*
X13526418Y-14251092D02*
X13545466Y-14260616D01*
X13545466Y-14260616D02*
X13554990Y-14279664D01*
X13554990Y-14279664D02*
X13554990Y-14384426D01*
X13554990Y-14279664D02*
X13564513Y-14260616D01*
X13564513Y-14260616D02*
X13583561Y-14251092D01*
X13583561Y-14251092D02*
X13612132Y-14251092D01*
X13612132Y-14251092D02*
X13631180Y-14260616D01*
X13631180Y-14260616D02*
X13640704Y-14279664D01*
X13640704Y-14279664D02*
X13640704Y-14384426D01*
X14031180Y-14174902D02*
X13859752Y-14432045D01*
X14288323Y-14184426D02*
X14307371Y-14184426D01*
X14307371Y-14184426D02*
X14326418Y-14193949D01*
X14326418Y-14193949D02*
X14335942Y-14203473D01*
X14335942Y-14203473D02*
X14345466Y-14222521D01*
X14345466Y-14222521D02*
X14354990Y-14260616D01*
X14354990Y-14260616D02*
X14354990Y-14308235D01*
X14354990Y-14308235D02*
X14345466Y-14346330D01*
X14345466Y-14346330D02*
X14335942Y-14365378D01*
X14335942Y-14365378D02*
X14326418Y-14374902D01*
X14326418Y-14374902D02*
X14307371Y-14384426D01*
X14307371Y-14384426D02*
X14288323Y-14384426D01*
X14288323Y-14384426D02*
X14269275Y-14374902D01*
X14269275Y-14374902D02*
X14259752Y-14365378D01*
X14259752Y-14365378D02*
X14250228Y-14346330D01*
X14250228Y-14346330D02*
X14240704Y-14308235D01*
X14240704Y-14308235D02*
X14240704Y-14260616D01*
X14240704Y-14260616D02*
X14250228Y-14222521D01*
X14250228Y-14222521D02*
X14259752Y-14203473D01*
X14259752Y-14203473D02*
X14269275Y-14193949D01*
X14269275Y-14193949D02*
X14288323Y-14184426D01*
X14440704Y-14365378D02*
X14450228Y-14374902D01*
X14450228Y-14374902D02*
X14440704Y-14384426D01*
X14440704Y-14384426D02*
X14431180Y-14374902D01*
X14431180Y-14374902D02*
X14440704Y-14365378D01*
X14440704Y-14365378D02*
X14440704Y-14384426D01*
X14574037Y-14184426D02*
X14593085Y-14184426D01*
X14593085Y-14184426D02*
X14612133Y-14193949D01*
X14612133Y-14193949D02*
X14621656Y-14203473D01*
X14621656Y-14203473D02*
X14631180Y-14222521D01*
X14631180Y-14222521D02*
X14640704Y-14260616D01*
X14640704Y-14260616D02*
X14640704Y-14308235D01*
X14640704Y-14308235D02*
X14631180Y-14346330D01*
X14631180Y-14346330D02*
X14621656Y-14365378D01*
X14621656Y-14365378D02*
X14612133Y-14374902D01*
X14612133Y-14374902D02*
X14593085Y-14384426D01*
X14593085Y-14384426D02*
X14574037Y-14384426D01*
X14574037Y-14384426D02*
X14554990Y-14374902D01*
X14554990Y-14374902D02*
X14545466Y-14365378D01*
X14545466Y-14365378D02*
X14535942Y-14346330D01*
X14535942Y-14346330D02*
X14526418Y-14308235D01*
X14526418Y-14308235D02*
X14526418Y-14260616D01*
X14526418Y-14260616D02*
X14535942Y-14222521D01*
X14535942Y-14222521D02*
X14545466Y-14203473D01*
X14545466Y-14203473D02*
X14554990Y-14193949D01*
X14554990Y-14193949D02*
X14574037Y-14184426D01*
X14812133Y-14184426D02*
X14774037Y-14184426D01*
X14774037Y-14184426D02*
X14754990Y-14193949D01*
X14754990Y-14193949D02*
X14745466Y-14203473D01*
X14745466Y-14203473D02*
X14726418Y-14232045D01*
X14726418Y-14232045D02*
X14716894Y-14270140D01*
X14716894Y-14270140D02*
X14716894Y-14346330D01*
X14716894Y-14346330D02*
X14726418Y-14365378D01*
X14726418Y-14365378D02*
X14735942Y-14374902D01*
X14735942Y-14374902D02*
X14754990Y-14384426D01*
X14754990Y-14384426D02*
X14793085Y-14384426D01*
X14793085Y-14384426D02*
X14812133Y-14374902D01*
X14812133Y-14374902D02*
X14821656Y-14365378D01*
X14821656Y-14365378D02*
X14831180Y-14346330D01*
X14831180Y-14346330D02*
X14831180Y-14298711D01*
X14831180Y-14298711D02*
X14821656Y-14279664D01*
X14821656Y-14279664D02*
X14812133Y-14270140D01*
X14812133Y-14270140D02*
X14793085Y-14260616D01*
X14793085Y-14260616D02*
X14754990Y-14260616D01*
X14754990Y-14260616D02*
X14735942Y-14270140D01*
X14735942Y-14270140D02*
X14726418Y-14279664D01*
X14726418Y-14279664D02*
X14716894Y-14298711D01*
X15002609Y-14184426D02*
X14964513Y-14184426D01*
X14964513Y-14184426D02*
X14945466Y-14193949D01*
X14945466Y-14193949D02*
X14935942Y-14203473D01*
X14935942Y-14203473D02*
X14916894Y-14232045D01*
X14916894Y-14232045D02*
X14907371Y-14270140D01*
X14907371Y-14270140D02*
X14907371Y-14346330D01*
X14907371Y-14346330D02*
X14916894Y-14365378D01*
X14916894Y-14365378D02*
X14926418Y-14374902D01*
X14926418Y-14374902D02*
X14945466Y-14384426D01*
X14945466Y-14384426D02*
X14983561Y-14384426D01*
X14983561Y-14384426D02*
X15002609Y-14374902D01*
X15002609Y-14374902D02*
X15012133Y-14365378D01*
X15012133Y-14365378D02*
X15021656Y-14346330D01*
X15021656Y-14346330D02*
X15021656Y-14298711D01*
X15021656Y-14298711D02*
X15012133Y-14279664D01*
X15012133Y-14279664D02*
X15002609Y-14270140D01*
X15002609Y-14270140D02*
X14983561Y-14260616D01*
X14983561Y-14260616D02*
X14945466Y-14260616D01*
X14945466Y-14260616D02*
X14926418Y-14270140D01*
X14926418Y-14270140D02*
X14916894Y-14279664D01*
X14916894Y-14279664D02*
X14907371Y-14298711D01*
X15116894Y-14384426D02*
X15154990Y-14384426D01*
X15154990Y-14384426D02*
X15174037Y-14374902D01*
X15174037Y-14374902D02*
X15183561Y-14365378D01*
X15183561Y-14365378D02*
X15202609Y-14336806D01*
X15202609Y-14336806D02*
X15212133Y-14298711D01*
X15212133Y-14298711D02*
X15212133Y-14222521D01*
X15212133Y-14222521D02*
X15202609Y-14203473D01*
X15202609Y-14203473D02*
X15193085Y-14193949D01*
X15193085Y-14193949D02*
X15174037Y-14184426D01*
X15174037Y-14184426D02*
X15135942Y-14184426D01*
X15135942Y-14184426D02*
X15116894Y-14193949D01*
X15116894Y-14193949D02*
X15107371Y-14203473D01*
X15107371Y-14203473D02*
X15097847Y-14222521D01*
X15097847Y-14222521D02*
X15097847Y-14270140D01*
X15097847Y-14270140D02*
X15107371Y-14289187D01*
X15107371Y-14289187D02*
X15116894Y-14298711D01*
X15116894Y-14298711D02*
X15135942Y-14308235D01*
X15135942Y-14308235D02*
X15174037Y-14308235D01*
X15174037Y-14308235D02*
X15193085Y-14298711D01*
X15193085Y-14298711D02*
X15202609Y-14289187D01*
X15202609Y-14289187D02*
X15212133Y-14270140D01*
X15288323Y-14184426D02*
X15288323Y-14222521D01*
X15364514Y-14184426D02*
X15364514Y-14222521D01*
X15659752Y-14460616D02*
X15650228Y-14451092D01*
X15650228Y-14451092D02*
X15631180Y-14422521D01*
X15631180Y-14422521D02*
X15621656Y-14403473D01*
X15621656Y-14403473D02*
X15612133Y-14374902D01*
X15612133Y-14374902D02*
X15602609Y-14327283D01*
X15602609Y-14327283D02*
X15602609Y-14289187D01*
X15602609Y-14289187D02*
X15612133Y-14241568D01*
X15612133Y-14241568D02*
X15621656Y-14212997D01*
X15621656Y-14212997D02*
X15631180Y-14193949D01*
X15631180Y-14193949D02*
X15650228Y-14165378D01*
X15650228Y-14165378D02*
X15659752Y-14155854D01*
X15726418Y-14203473D02*
X15735942Y-14193949D01*
X15735942Y-14193949D02*
X15754990Y-14184426D01*
X15754990Y-14184426D02*
X15802609Y-14184426D01*
X15802609Y-14184426D02*
X15821656Y-14193949D01*
X15821656Y-14193949D02*
X15831180Y-14203473D01*
X15831180Y-14203473D02*
X15840704Y-14222521D01*
X15840704Y-14222521D02*
X15840704Y-14241568D01*
X15840704Y-14241568D02*
X15831180Y-14270140D01*
X15831180Y-14270140D02*
X15716895Y-14384426D01*
X15716895Y-14384426D02*
X15840704Y-14384426D01*
X16078799Y-14384426D02*
X16078799Y-14184426D01*
X16164514Y-14384426D02*
X16164514Y-14279664D01*
X16164514Y-14279664D02*
X16154990Y-14260616D01*
X16154990Y-14260616D02*
X16135942Y-14251092D01*
X16135942Y-14251092D02*
X16107371Y-14251092D01*
X16107371Y-14251092D02*
X16088323Y-14260616D01*
X16088323Y-14260616D02*
X16078799Y-14270140D01*
X16288323Y-14384426D02*
X16269276Y-14374902D01*
X16269276Y-14374902D02*
X16259752Y-14365378D01*
X16259752Y-14365378D02*
X16250228Y-14346330D01*
X16250228Y-14346330D02*
X16250228Y-14289187D01*
X16250228Y-14289187D02*
X16259752Y-14270140D01*
X16259752Y-14270140D02*
X16269276Y-14260616D01*
X16269276Y-14260616D02*
X16288323Y-14251092D01*
X16288323Y-14251092D02*
X16316895Y-14251092D01*
X16316895Y-14251092D02*
X16335942Y-14260616D01*
X16335942Y-14260616D02*
X16345466Y-14270140D01*
X16345466Y-14270140D02*
X16354990Y-14289187D01*
X16354990Y-14289187D02*
X16354990Y-14346330D01*
X16354990Y-14346330D02*
X16345466Y-14365378D01*
X16345466Y-14365378D02*
X16335942Y-14374902D01*
X16335942Y-14374902D02*
X16316895Y-14384426D01*
X16316895Y-14384426D02*
X16288323Y-14384426D01*
X16469276Y-14384426D02*
X16450228Y-14374902D01*
X16450228Y-14374902D02*
X16440704Y-14355854D01*
X16440704Y-14355854D02*
X16440704Y-14184426D01*
X16621657Y-14374902D02*
X16602609Y-14384426D01*
X16602609Y-14384426D02*
X16564514Y-14384426D01*
X16564514Y-14384426D02*
X16545466Y-14374902D01*
X16545466Y-14374902D02*
X16535942Y-14355854D01*
X16535942Y-14355854D02*
X16535942Y-14279664D01*
X16535942Y-14279664D02*
X16545466Y-14260616D01*
X16545466Y-14260616D02*
X16564514Y-14251092D01*
X16564514Y-14251092D02*
X16602609Y-14251092D01*
X16602609Y-14251092D02*
X16621657Y-14260616D01*
X16621657Y-14260616D02*
X16631180Y-14279664D01*
X16631180Y-14279664D02*
X16631180Y-14298711D01*
X16631180Y-14298711D02*
X16535942Y-14317759D01*
X16707371Y-14374902D02*
X16726418Y-14384426D01*
X16726418Y-14384426D02*
X16764514Y-14384426D01*
X16764514Y-14384426D02*
X16783561Y-14374902D01*
X16783561Y-14374902D02*
X16793085Y-14355854D01*
X16793085Y-14355854D02*
X16793085Y-14346330D01*
X16793085Y-14346330D02*
X16783561Y-14327283D01*
X16783561Y-14327283D02*
X16764514Y-14317759D01*
X16764514Y-14317759D02*
X16735942Y-14317759D01*
X16735942Y-14317759D02*
X16716895Y-14308235D01*
X16716895Y-14308235D02*
X16707371Y-14289187D01*
X16707371Y-14289187D02*
X16707371Y-14279664D01*
X16707371Y-14279664D02*
X16716895Y-14260616D01*
X16716895Y-14260616D02*
X16735942Y-14251092D01*
X16735942Y-14251092D02*
X16764514Y-14251092D01*
X16764514Y-14251092D02*
X16783561Y-14260616D01*
X16859752Y-14460616D02*
X16869276Y-14451092D01*
X16869276Y-14451092D02*
X16888323Y-14422521D01*
X16888323Y-14422521D02*
X16897847Y-14403473D01*
X16897847Y-14403473D02*
X16907371Y-14374902D01*
X16907371Y-14374902D02*
X16916895Y-14327283D01*
X16916895Y-14327283D02*
X16916895Y-14289187D01*
X16916895Y-14289187D02*
X16907371Y-14241568D01*
X16907371Y-14241568D02*
X16897847Y-14212997D01*
X16897847Y-14212997D02*
X16888323Y-14193949D01*
X16888323Y-14193949D02*
X16869276Y-14165378D01*
X16869276Y-14165378D02*
X16859752Y-14155854D01*
M02*
